<ttFont>
<head>
    <!-- Most of this table will be recalculated by the compiler -->
    <tableVersion value="1.0"/>
    <fontRevision value="2.004"/>
    <checkSumAdjustment value="0x67ecdd38"/>
    <magicNumber value="0x5f0f3cf5"/>
    <flags value="00000000 00000011"/>
    <unitsPerEm value="1000"/>
    <created value="Thu Oct  8 09:58:35 2009"/>
    <modified value="Thu Oct  8 09:58:35 2009"/>
    <xMin value="-442"/>
    <yMin value="-295"/>
    <xMax value="1406"/>
    <yMax value="1136"/>
    <macStyle value="00000000 00000000"/>
    <lowestRecPPEM value="3"/>
    <fontDirectionHint value="2"/>
    <indexToLocFormat value="0"/>
    <glyphDataFormat value="0"/>
  </head>
          <CharString index="0">
            480 24 rmoveto
            20 -10 2 -11 1 vhcurveto
            -47 3 0 13 21 vvcurveto
            216 vlineto
            95 -74 58 -123 -33 -131 -2 -90 -44 35 -19 27 31 32 21 42 32 -23 18 0 vhcurveto
            4 21 8 2 30 hhcurveto
            60 26 -48 -68 hvcurveto
            -36 vlineto
            -144 -3 -131 -48 -105 vvcurveto
            -83 94 -32 75 61 41 35 45 21 vhcurveto
            -21 0 -53 91 vhcurveto
            42 hlineto
            20 12 0 24 hvcurveto
            -182 114 rmoveto
            -86 -65 -22 -29 -41 -23 41 38 110 132 12 26 2 vhcurveto
            return
          </CharString>
          <CharString index="1">
            693 339 rmoveto
            237 -145 121 -173 -180 -139 -127 -231 -231 144 -119 174 182 137 126 224 vhcurveto
            -153 14 rmoveto
            -79 -1 -68 -29 -72 vhcurveto
            -63 -26 -53 -40 -56 hhcurveto
            -60 -48 41 58 -26 hvcurveto
            -31 70 -1 79 74 vvcurveto
            64 0 75 28 65 vhcurveto
            74 33 57 26 47 hhcurveto
            57 54 -36 -68 28 hvcurveto
            26 -63 1 -64 -73 vvcurveto
            return
          </CharString>
          <CharString index="2">
            471 219 rmoveto
            141 -88 93 -134 -129 -92 -89 -145 -144 94 -81 127 132 90 85 140 vhcurveto
            -128 10 rmoveto
            -47 0 -52 -10 -34 vhcurveto
            -39 -10 -37 -23 -36 hhcurveto
            -37 -38 22 44 -11 hvcurveto
            -8 33 0 61 35 vvcurveto
            47 0 48 9 32 vhcurveto
            38 10 37 23 37 hhcurveto
            43 33 -29 -32 9 hvcurveto
            9 -33 0 -48 -46 vvcurveto
            return
          </CharString>
          <CharString index="3">
            -20 -105 callgsubr
            return
          </CharString>
          <CharString index="4">
            38 -31 32 -39 -42 -29 -34 -36 -38 31 -32 39 42 29 34 36 vhcurveto
            return
          </CharString>
          <CharString index="5">
            438 117 rmoveto
            18 -19 0 -5 -17 -2 -5 -14 -5 vhcurveto
            -61 -24 -58 -21 -40 hhcurveto
            -112 0 125 59 hvcurveto
            250 hlineto
            25 7 1 28 89 -36 117 -155 -129 -90 -88 -140 -145 100 -86 131 134 45 102 21 144 callgsubr
            -187 hlineto
            return
          </CharString>
          <CharString index="6">
            rmoveto
            -36 hlineto
            -82 -2 -62 -43 -56 hhcurveto
            -60 -59 46 79 -2 hvcurveto
            -36 hlineto
            -116 3 72 -71 82 hhcurveto
            78 75 68 119 3 hvcurveto
            return
          </CharString>
          <CharString index="7">
            -99 callgsubr
            endchar
          </CharString>
          <CharString index="8">
            hstemhm
            56 153 331 153 hintmask 11001100
            -106 callsubr
            return
          </CharString>
          <CharString index="9">
            -30 callgsubr
            317 53 hintmask 00100000
            734 639 rmoveto
            47 vlineto
            hintmask 01000000
            -120 -3 rlineto
            hintmask 00100000
            -121 3 rlineto
            -47 20 vlineto
            hintmask 11000110
            -85 callgsubr
            hintmask 00100100
            429 94 47 vlineto
            hintmask 01000000
            -3 -35 -90 0 -40 hhcurveto
            hintmask 10100110
            -40 -90 0 3 -35 hvcurveto
            125 callgsubr
            -136 102 -104 174 154 82 107 131 vhcurveto
            383 vlineto
            hintmask 01000000
            22 0 1 24 3 vhcurveto
            hintmask 00100000
            3 22 21 0 7 hhcurveto
            return
          </CharString>
          <CharString index="10">
            -15 callgsubr
            118 47 -19 47 hintmask 1100011001000000
            627 274 rmoveto
            -47 hlineto
            -130 -21 -20 -97 -166 hhcurveto
            -103 282 22 hlineto
            hintmask 0000000100000000
            91 4 -44 -73 hvcurveto
            47 281 -47 hlineto
            hintmask 1110011010000000
            -73 -4 -44 -91 vhcurveto
            -22 257 99 hlineto
            155 13 -82 -112 15 hvcurveto
            47 hlineto
            -31 241 rlineto
            -534 9 callsubr
            547 hlineto
            hintmask 0000000001000000
            return
          </CharString>
          <CharString index="11">
            hstemhm
            28 128 92 95 0 95 hintmask 11100101
            -102 callsubr
            hintmask 01100010
            -52 callgsubr
            return
          </CharString>
          <CharString index="12">
            rmoveto
            -175 141 -175 -141 14 -24 160 58 160 -58 rlineto
            return
          </CharString>
          <CharString index="13">
            505 397 rmoveto
            47 vlineto
            -2 -25 -29 -1 -25 hhcurveto
            -32 -46 2 1 -13 hvcurveto
            -47 vlineto
            0 52 0 -12 vvcurveto
            -5 -13 -85 -222 -96 247 rlineto
            56 47 hlineto
            -123 -3 -112 3 rlineto
            -47 62 vlineto
            154 -397 -8 -22 -24 -65 -12 -21 rlinecurve
            -48 -28 -36 -8 -17 hhcurveto
            -10 -2 1 1 -4 hvcurveto
            15 6 22 15 34 vvcurveto
            33 -24 24 -34 -28 -29 -19 -39 -47 38 -45 55 76 50 69 47 18 vhcurveto
            177 457 rlineto
            17 7 2 7 63 hhcurveto
            return
          </CharString>
          <CharString index="14">
            10 callsubr
            hintmask 0110100010000000
            553 71 callgsubr
            364 vlineto
            hintmask 1001000110000000
            -73 callsubr
            -193 vlineto
            -72 -35 -61 -64 -63 -1 22 53 vhcurveto
            hintmask 0000100100000000
            345 vlineto
            hintmask 1011000100000000
            -81 callgsubr
            return
          </CharString>
          <CharString index="15">
            779 736 rmoveto
            43 -26 40 -41 -44 -22 -33 -33 -34 22 -33 44 vhcurveto
            4 hlineto
            -17 -23 -28 -15 -31 -6 rrcurveto
            44 vlineto
            -2 -9 -9 -1 -9 hhcurveto
            -120 3 rlineto
            -47 vlineto
            23 24 0 -3 23 hvcurveto
            11 -2 13 -2 -6 vvcurveto
            -397 vlineto
            -57 -15 -50 -33 -35 vhcurveto
            -34 -32 -48 -17 -53 hhcurveto
            -44 -40 17 32 -24 hvcurveto
            -25 34 -4 40 70 vvcurveto
            410 94 47 vlineto
            -165 -3 -165 3 rlineto
            125 callgsubr
            -68 28 -64 50 -43 vhcurveto
            -46 53 71 -19 77 hhcurveto
            65 62 21 45 43 hvcurveto
            43 45 21 62 67 vvcurveto
            365 vlineto
            76 11 63 56 75 vvcurveto
            return
          </CharString>
          <CharString index="16">
            368 hmoveto
            47 -99 592 99 47 vlineto
            -3 -36 -93 0 -41 hhcurveto
            -41 -93 0 3 -36 hvcurveto
            -47 99 -592 -99 -47 vlineto
            3 36 93 0 41 hhcurveto
            41 93 49 callsubr
            return
          </CharString>
          <CharString index="17">
            739 639 rmoveto
            47 vlineto
            -102 -3 -119 3 rlineto
            -47 vlineto
            22 23 0 -10 24 hvcurveto
            -162 -283 -167 293 rlineto
            75 47 hlineto
            -3 -36 -90 0 -41 hhcurveto
            -39 -75 0 3 -36 hvcurveto
            -47 85 vlineto
            208 -365 rlineto
            -227 -94 -47 vlineto
            32 callsubr
            88 125 callsubr
            -95 227 vlineto
            197 344 rlineto
            14 8 4 7 85 hhcurveto
            return
          </CharString>
          <CharString index="18">
            -54 callsubr
            hintmask 00010000
            -82 callgsubr
            hintmask 00001000
            -84 callgsubr
            hintmask 00010000
            -6 20 24 -8 21 hhcurveto
            hintmask 00001000
            39 21 27 4 3 hvcurveto
            endchar
          </CharString>
          <CharString index="19">
            748 141 callgsubr
            vlineto
            -3 -35 -90 0 -40 hhcurveto
            -40 -90 0 3 -35 hvcurveto
            -47 94 -259 -242 259 94 47 vlineto
            -3 -35 -90 0 -40 hhcurveto
            -40 -90 0 3 -35 hvcurveto
            -47 94 -592 -44 callsubr
            286 242 -286 -64 callgsubr
            return
          </CharString>
          <CharString index="20">
            36 -52 -63 17 -65 hhcurveto
            -88 -86 -32 -66 -58 hvcurveto
            -63 -70 -24 -95 -95 vvcurveto
            -93 25 -93 62 -69 vhcurveto
            -64 59 86 -31 87 hhcurveto
            87 86 31 64 59 hvcurveto
            62 69 24 93 93 vvcurveto
            -152 18 rmoveto
            -82 -1 -84 -38 -73 vhcurveto
            -50 -25 -47 -37 -55 hhcurveto
            -55 -47 37 50 -26 hvcurveto
            -37 73 -1 84 82 vvcurveto
            75 2 78 36 66 vhcurveto
            48 27 47 33 54 hhcurveto
            54 47 -33 -48 26 hvcurveto
            37 -66 2 -78 -75 vvcurveto
            return
          </CharString>
          <CharString index="21">
            -20 hstemhm
            56 153 220 142 -47 142 hintmask 01000001
            -46 callsubr
            hintmask 10100110
            -60 callsubr
            hintmask 10100110
            -46 callgsubr
            hintmask 00011000
            return
          </CharString>
          <CharString index="22">
            -28 -22 -26 -3 -15 hhcurveto
            -20 -23 7 10 -30 hvcurveto
            return
          </CharString>
          <CharString index="23">
            rmoveto
            -28 22 rlineto
            hintmask 10000000
            -85 callsubr
            hintmask 01000000
            6 -20 -24 8 -21 hhcurveto
            hintmask 10000000
            -82 callgsubr
            hintmask 01000000
            -84 callgsubr
            hintmask 10000000
            -6 20 24 -8 21 hhcurveto
            hintmask 01000000
            39 21 27 4 3 hvcurveto
            endchar
          </CharString>
          <CharString index="24">
            741 hmoveto
            47 -23 vlineto
            -49 -3 5 14 -9 hvcurveto
            -228 357 188 185 rlineto
            27 28 3 4 79 hhcurveto
            47 vlineto
            -2 -30 -32 -1 -30 hhcurveto
            -38 -55 0 3 -37 hvcurveto
            -47 vlineto
            17 22 0 -10 25 hvcurveto
            -3 -4 0 -2 -6 -5 -290 -286 rcurveline
            307 94 47 vlineto
            -3 -35 -90 0 -40 hhcurveto
            -40 -90 0 3 -35 hvcurveto
            -47 94 -592 -44 callsubr
            219 vlineto
            68 67 168 -264 rlineto
            6 -8 0 -3 0 vvcurveto
            -11 -43 0 -21 vhcurveto
            102 callsubr
            85 0 39 hhcurveto
            43 48 0 -3 43 hvcurveto
            return
          </CharString>
          <CharString index="25">
            rmoveto
            -103 callsubr
            306 hmoveto
            -103 callsubr
            endchar
          </CharString>
          <CharString index="26">
            rmoveto
            32 -34 27 -33 -44 -8 -43 -11 -2 vhcurveto
            -22 -120 42 -21 80 91 rlineto
            11 13 10 15 17 vvcurveto
            167 hmoveto
            32 -34 27 -33 -44 -8 -43 -11 -2 vhcurveto
            -22 -120 42 -21 80 91 rlineto
            11 13 10 15 17 vvcurveto
            endchar
          </CharString>
          <CharString index="27">
            560 284 rmoveto
            -47 hlineto
            -100 -6 -7 -133 -186 hhcurveto
            -100 hlineto
            333 586 rlineto
            7 12 0 5 7 vvcurveto
            25 -11 0 -21 vhcurveto
            -441 hlineto
            -12 -241 rlineto
            47 hlineto
            66 4 10 128 173 hhcurveto
            94 hlineto
            -334 -587 rlineto
            -7 -12 0 -5 -9 vvcurveto
            -26 10 0 22 vhcurveto
            454 hlineto
            return
          </CharString>
          <CharString index="28">
            665 227 rmoveto
            20 -7 1 -17 -13 -9 0 -17 -1 vhcurveto
            -132 -104 -63 -86 -71 -70 31 61 -37 vhcurveto
            -35 59 -6 65 91 vvcurveto
            64 0 96 47 65 vhcurveto
            69 50 77 13 43 hhcurveto
            -45 callgsubr
            -58 -53 rlineto
            40 -46 -51 22 -66 hhcurveto
            return
          </CharString>
          <CharString index="29">
            -5 callsubr
            hintmask 0101000010100000
            -48 callgsubr
            hintmask 0001000001000000
            -6 7 -2 24 39 vvcurveto
            332 vlineto
            hintmask 0001000100000000
            -183 -8 rlineto
            -48 vlineto
            hintmask 0000000010000000
            20 26 0 -4 12 hvcurveto
            hintmask 0000000001000000
            9 -4 3 -10 -9 vvcurveto
            -249 vlineto
            hintmask 0010000100000000
            -39 13 -36 30 -21 vhcurveto
            hintmask 1000000000010000
            -23 callgsubr
            hintmask 0010000000101000
            12 callsubr
            hintmask 0000101000000000
            return
          </CharString>
          <CharString index="30">
            -95 callsubr
            -54 238 rmoveto
            -26 -38 -142 60 -13 6 -22 10 -5 27 rlinecurve
            38 -7 28 35 39 hhcurveto
            18 13 -9 -13 12 hvcurveto
            endchar
          </CharString>
          <CharString index="31">
            760 0 47 278 36 278 49 callgsubr
            37 157 -112 136 -1 153 cntrmask 11100000
            hintmask 11100100
            756 94 rmoveto
            23 -14 0 -10 -18 -4 -7 -16 -1 vhcurveto
            -44 -4 -20 -25 -28 hhcurveto
            -47 -7 57 63 -8 hvcurveto
            -3 23 -6 48 -1 3 -11 61 -39 36 -53 23 rrcurveto
            hintmask 11110010
            97 25 55 65 71 vvcurveto
            103 -97 83 -170 vhcurveto
            -333 -47 94 -592 -94 -47 hlineto
            32 callsubr
            87 54 callsubr
            278 86 vlineto
            20 30 0 -38 24 hvcurveto
            20 -32 0 -24 -62 vvcurveto
            -63 0 -4 7 -22 vhcurveto
            -81 29 111 -10 59 hhcurveto
            98 8 94 11 hvcurveto
            -275 406 rmoveto
            -69 0 -70 -137 vhcurveto
            -80 278 hlineto
            hintmask 11100100
            82 hlineto
            return
          </CharString>
          <CharString index="32">
            -97 callgsubr
            10 return
          </CharString>
          <CharString index="33">
            142 hintmask 11001000
            -91 callsubr
            return
          </CharString>
          <CharString index="34">
            -183 -90 callgsubr
            return
          </CharString>
          <CharString index="35">
            111 77 47 50 16 20 -5 -88 vhcurveto
            -274 -65 64 callsubr
            return
          </CharString>
          <CharString index="36">
            686 343 rmoveto
            190 -153 153 -190 -189 -154 -153 -190 -189 154 -154 189 190 153 154 189 vhcurveto
            -60 hmoveto
            -156 -127 -127 -156 -156 -127 127 156 156 127 127 156 156 127 -127 -156 vhcurveto
            return
          </CharString>
          <CharString index="37">
            vvcurveto
            -45 35 -45 70 44 35 24 30 28 vhcurveto
            -51 callgsubr
            return
          </CharString>
          <CharString index="38">
            -79 -66 -13 -29 -48 -83 17 75 -48 vhcurveto
            -39 63 -2 84 68 vvcurveto
            54 0 98 40 62 vhcurveto
            82 53 82 11 43 hhcurveto
            78 86 -59 -149 22 hvcurveto
            -16 2 7 0 17 hhcurveto
            return
          </CharString>
          <CharString index="39">
            -20 -30 callgsubr
            -85 39 callgsubr
            -45 53 hintmask 0010000000000000
            734 639 rmoveto
            47 vlineto
            hintmask 0100000000000000
            -120 -3 rlineto
            hintmask 0010000000000000
            -121 3 rlineto
            -47 20 vlineto
            hintmask 1100001001000000
            -85 callgsubr
            hintmask 0010001000000000
            429 94 47 vlineto
            hintmask 0100000000000000
            -3 -35 -90 0 -40 hhcurveto
            hintmask 1010001001000000
            -40 -90 0 3 -35 hvcurveto
            125 callgsubr
            -136 102 -104 174 154 82 107 131 vhcurveto
            383 vlineto
            hintmask 0100000000000000
            22 0 1 24 3 vhcurveto
            hintmask 0010000000000000
            3 22 21 0 7 hhcurveto
            return
          </CharString>
          <CharString index="40">
            401 202 rmoveto
            -47 hlineto
            -96 -8 -9 -66 -123 hhcurveto
            -55 hlineto
            232 362 rlineto
            8 12 0 3 6 vvcurveto
            21 -14 0 -18 vhcurveto
            -313 hlineto
            -12 -175 rlineto
            47 hlineto
            91 6 13 48 108 hhcurveto
            53 hlineto
            -233 -364 rlineto
            -8 -11 0 -2 -9 vvcurveto
            -22 13 0 19 vhcurveto
            323 hlineto
            return
          </CharString>
          <CharString index="41">
            rmoveto
            -84 132 rlineto
            17 -11 -14 13 -23 hhcurveto
            -32 -30 -30 -32 -28 20 -13 12 -8 hvcurveto
            129 -84 rlineto
            endchar
          </CharString>
          <CharString index="42">
            -172 -71 callgsubr
            126 -3 rlineto
            47 -69 209 vlineto
            return
          </CharString>
          <CharString index="43">
            721 340 rmoveto
            115 -39 117 -99 68 vhcurveto
            48 85 -34 20 -48 -84 rlineto
            28 -60 -54 8 -46 hhcurveto
            -197 -136 -137 -220 -172 83 -89 55 -34 hvcurveto
            -48 -84 34 -20 48 84 rlineto
            -26 52 57 -10 52 hhcurveto
            186 146 123 228 hvcurveto
            -204 267 rmoveto
            -284 -493 rlineto
            -35 63 0 86 77 vvcurveto
            70 0 86 29 62 vhcurveto
            86 42 75 17 44 hhcurveto
            72 44 -40 -14 13 hvcurveto
            62 -267 rmoveto
            -77 0 -87 -35 -63 vhcurveto
            -69 -40 -70 -19 -45 hhcurveto
            -49 -45 18 35 -36 hvcurveto
            284 493 rlineto
            36 -64 0 -92 -75 vvcurveto
            return
          </CharString>
          <CharString index="44">
            50 15 32 54 58 vvcurveto
            -166 -265 rmoveto
            -50 0 -68 -13 -29 vhcurveto
            -30 -15 -31 -19 -34 hhcurveto
            -34 -31 19 30 -15 hvcurveto
            -14 29 0 68 50 vvcurveto
            47 0 63 14 28 vhcurveto
            30 15 31 18 34 hhcurveto
            33 32 -18 -30 15 hvcurveto
            return
          </CharString>
          <CharString index="45">
            rmoveto
            27 -218 vlineto
            -11 -43 1 3 -26 hvcurveto
            -44 5 -2 8 -3 15 rrcurveto
            -47 hlineto
            -35 -254 rlineto
            47 hlineto
            5 34 5 39 13 16 rrcurveto
            8 5 78 0 14 hhcurveto
            134 hlineto
            -69 -92 rlineto
            -3 -4 -125 -168 -195 vvcurveto
            -71 55 0 7 16 47 5 66 vhcurveto
            53 vlineto
            75 6 159 49 66 vhcurveto
            136 185 rlineto
            9 11 0 2 6 vvcurveto
            endchar
          </CharString>
          <CharString index="46">
            26 1 2 26 hvcurveto
            215 vlineto
            19 0 9 -18 -9 -2 -2 -7 -8 vhcurveto
            return
          </CharString>
          <CharString index="47">
            -69 callsubr
            hintmask 00100001
            -61 callsubr
            return
          </CharString>
          <CharString index="48">
            rmoveto
            125 -82 82 -119 -19 -42 -1 -30 -44 vhcurveto
            126 vlineto
            -4 16 6 -1 30 hhcurveto
            136 79 112 26 7 -2 11 -12 -3 -2 0 -5 -8 hvcurveto
            -19 -46 -46 -8 -41 hhcurveto
            -61 -44 16 12 -28 hvcurveto
            2 -6 -3 2 -3 hhcurveto
            -15 0 -13 -16 hvcurveto
            -288 vlineto
            -20 0 -13 23 11 4 3 7 5 vhcurveto
            16 11 31 42 69 hhcurveto
            return
          </CharString>
          <CharString index="49">
            34 -40 -53 16 -53 hhcurveto
            -60 -60 -21 -43 -41 hvcurveto
            -43 -46 -17 -62 -63 vvcurveto
            -60 18 -60 42 -43 vhcurveto
            -42 42 59 -19 60 hhcurveto
            60 59 19 42 42 hvcurveto
            42 43 18 60 60 vvcurveto
            54 -13 54 -31 43 vhcurveto
            return
          </CharString>
          <CharString index="50">
            43 -35 35 -43 -43 -35 -35 -43 -43 35 -35 43 43 35 35 43 vhcurveto
            return
          </CharString>
          <CharString index="51">
            rmoveto
            -28 22 rlineto
            hintmask 0000100000000000
            -85 callsubr
            hintmask 0000010000000000
            6 -20 -24 8 -21 hhcurveto
            hintmask 0000100000000000
            -82 callgsubr
            hintmask 0000010000000000
            -84 callgsubr
            hintmask 0000100000000000
            -6 20 24 -8 21 hhcurveto
            hintmask 0000010000000000
            39 21 27 4 3 hvcurveto
            endchar
          </CharString>
          <CharString index="52">
            692 339 rmoveto
            95 -24 95 -62 70 vhcurveto
            -5 5 -4 4 -4 5 rrcurveto
            46 18 29 51 56 vvcurveto
            42 -27 39 -39 -45 -22 -33 -33 -34 22 -33 45 vhcurveto
            5 hlineto
            -12 -19 -19 -15 -22 -8 rrcurveto
            return
          </CharString>
          <CharString index="53">
            rmoveto
            -28 22 rlineto
            hintmask 00010000
            -85 callsubr
            hintmask 00001000
            6 -20 -24 8 -21 hhcurveto
            return
          </CharString>
          <CharString index="54">
            rmoveto
            -18 22 -158 -99 -158 99 -20 -22 177 -185 rlineto
            endchar
          </CharString>
          <CharString index="55">
            -95 callsubr
            endchar
          </CharString>
          <CharString index="56">
            -82 callgsubr
            hintmask 00010000
            -84 callgsubr
            hintmask 00100000
            -6 20 24 -8 21 hhcurveto
            hintmask 00010000
            39 21 27 4 3 hvcurveto
            endchar
          </CharString>
          <CharString index="57">
            -86 callgsubr
            endchar
          </CharString>
          <CharString index="58">
            778 -6 36 -36 40 27 33 124 73 callsubr
            hstemhm
            28 117 214 114 181 95 hintmask 01111111
            749 117 rmoveto
            18 -19 0 -5 -18 -2 -7 -12 -4 vhcurveto
            -61 -21 -50 -21 -38 hhcurveto
            -117 -1 138 46 -1 hvcurveto
            244 hlineto
            25 7 1 28 115 -52 91 -125 -64 -56 -25 -40 -37 hvcurveto
            8 -7 -53 57 -104 hhcurveto
            -128 -95 -85 -144 -142 92 -88 131 55 61 16 51 50 hvcurveto
            -58 58 70 -9 40 hhcurveto
            119 45 100 23 144 callgsubr
            -181 hlineto
            1 35 1 39 16 35 rrcurveto
            38 18 34 19 29 hhcurveto
            77 4 -124 -42 1 hvcurveto
            -295 -22 rmoveto
            -42 0 -55 -18 -39 vhcurveto
            hintmask 10101110
            -51 -23 -40 -12 -27 hhcurveto
            -35 -37 22 42 -17 hvcurveto
            -14 34 -3 37 64 vvcurveto
            48 0 47 18 38 vhcurveto
            29 15 32 26 41 hhcurveto
            37 35 -21 -34 17 hvcurveto
            19 -38 0 -48 -47 vvcurveto
            endchar
          </CharString>
          <CharString index="59">
            1017 -11 36 -25 47 286 47 -36 36 259 47 -25 36 hstemhm
            73 147 297 123 164 47 62 47 -19 47 hintmask 0110100110100000
            988 274 rmoveto
            -47 hlineto
            -128 -21 -18 -99 -161 hhcurveto
            -101 286 60 hlineto
            96 8 -44 -73 hvcurveto
            47 281 -47 hlineto
            -72 -8 -45 -96 vhcurveto
            -60 259 96 hlineto
            hintmask 0000100001000000
            150 12 -83 -111 15 hvcurveto
            47 hlineto
            -31 241 rlineto
            -355 hlineto
            -4 -31 0 5 -42 hvcurveto
            hintmask 1000011000000000
            4 -33 -22 2 -35 hhcurveto
            -204 -130 -143 -214 -221 138 -130 196 30 39 4 0 hvcurveto
            hintmask 0100000000100000
            3 31 36 4 31 hhcurveto
            368 hlineto
            -425 344 rmoveto
            -112 0 -70 -4 -35 vhcurveto
            hintmask 1001011100000000
            -64 -7 -13 -38 -85 hhcurveto
            -97 -91 100 230 227 99 79 89 83 15 -36 -65 7 hvcurveto
            4 -37 0 -98 -81 vvcurveto
            endchar
          </CharString>
          <CharString index="60">
            -63 callsubr
            hintmask 0000000100000000
            13 -28 0 -63 -47 vvcurveto
            return
          </CharString>
          <CharString index="61">
            735 229 rmoveto
            47 vlineto
            -3 -37 -72 0 -40 hhcurveto
            -48 -95 0 3 -44 hvcurveto
            -47 125 -101 vlineto
            return
          </CharString>
          <CharString index="62">
            -2 callgsubr
            239 hmoveto
            -66 callgsubr
            endchar
          </CharString>
          <CharString index="63">
            -64 callgsubr
            47 -94 return
          </CharString>
          <CharString index="64">
            -20 3 callsubr
            hintmask 10100010
            -58 callgsubr
            hintmask 00010001
            -33 callsubr
            hintmask 00001100
            return
          </CharString>
          <CharString index="65">
            556 -6 -18 callsubr
            return
          </CharString>
          <CharString index="66">
            10 callsubr
            hintmask 11010001
            -37 callgsubr
            72 callsubr
            vhcurveto
            -1 101 hlineto
            hintmask 11100010
            -65 callsubr
            hintmask 10010001
            -21 callgsubr
            return
          </CharString>
          <CharString index="67">
            192 -36 callgsubr
            return
          </CharString>
          <CharString index="68">
            756 0 47 589 47 -44 47 hstemhm
            hintmask 11000000
            727 hmoveto
            47 -85 vlineto
            -216 354 139 216 10 15 1 1 30 3 rlinecurve
            hintmask 00100000
            3 24 3 0 27 hhcurveto
            24 47 hlineto
            hintmask 01000000
            -122 -3 rlineto
            hintmask 00100000
            -38 -64 0 3 -36 hvcurveto
            -47 vlineto
            15 38 0 -11 31 hvcurveto
            -7 -12 -106 -165 -114 188 rlineto
            73 47 hlineto
            hintmask 01000000
            -3 -36 -87 0 -41 hhcurveto
            hintmask 10100000
            -39 -73 0 3 -36 hvcurveto
            -47 85 vlineto
            189 -310 -175 -272 rlineto
            -10 -25 -59 0 -4 hhcurveto
            -24 -47 hlineto
            122 3 rlineto
            39 62 0 -3 37 hvcurveto
            47 vlineto
            -18 -36 0 11 -30 hvcurveto
            142 221 141 -232 rlineto
            -73 -47 hlineto
            3 36 87 0 41 hhcurveto
            40 71 0 -3 37 hvcurveto
            endchar
          </CharString>
          <CharString index="69">
            rmoveto
            -86 callgsubr
            return
          </CharString>
          <CharString index="70">
            -126 -45 -40 -32 -50 0 93 72 74 0 92 50 33 44 -43 -122 vhcurveto
            return
          </CharString>
          <CharString index="71">
            51 20 75 54 91 vvcurveto
            81 -74 58 -120 -105 -62 -73 -70 -47 33 -24 36 45 25 32 37 21 -9 42 -55 6 vhcurveto
            33 31 39 4 16 hhcurveto
            62 1 -62 -34 -7 0 -55 -15 -41 hvcurveto
            -18 -45 -24 -2 -37 -2 rrcurveto
            return
          </CharString>
          <CharString index="72">
            906 0 47 259 47 286 47 hstemhm
            419 132 81 47 0 47 76 47 -19 47 hintmask 11110101
            877 274 rmoveto
            -47 hlineto
            -130 -22 -17 -97 -154 hhcurveto
            -86 259 31 hlineto
            92 5 -42 -75 hvcurveto
            47 281 -47 hlineto
            -74 -5 -43 -92 vhcurveto
            -31 286 hlineto
            hintmask 11111010
            81 hlineto
            145 11 -84 -110 14 hvcurveto
            47 hlineto
            -31 241 rlineto
            -549 -47 67 hlineto
            -207 -569 rlineto
            -17 -6 -2 -6 -86 hhcurveto
            -47 vlineto
            106 3 119 -3 rlineto
            47 vlineto
            0 -78 0 13 vvcurveto
            0 3 10 1 2 vhcurveto
            85 234 rlineto
            148 -259 -71 -47 483 hlineto
            hintmask 01110001
            -412 353 rmoveto
            -131 hlineto
            105 286 rlineto
            26 hlineto
            endchar
          </CharString>
          <CharString index="73">
            528 13 callgsubr
            339 55 -44 47 195 47 -47 55 hstemhm
            85 108 -5 108 -72 108 71 108 hintmask 0010100010100000
            511 -4 callgsubr
            hintmask 0001000000000000
            -3 -23 -30 0 -24 hhcurveto
            hintmask 0000100000000000
            -38 -63 2 1 -13 hvcurveto
            -47 vlineto
            hintmask 0001001101000000
            18 25 -4 -7 -3 -6 -6 -2 -1 hvcurveto
            -139 -128 rlineto
            446 vlineto
            hintmask 0010010100000000
            -177 -90 callgsubr
            -553 -69 -47 vlineto
            120 3 65 callgsubr
            vlineto
            hintmask 0010000010000000
            -69 132 hlineto
            return
          </CharString>
          <CharString index="74">
            75 15 113 89 vhcurveto
            0 -19 -17 -29 vvcurveto
            -41 32 -20 29 29 32 21 40 vhcurveto
            return
          </CharString>
          <CharString index="75">
            42 -35 36 -43 return
          </CharString>
          <CharString index="76">
            693 339 rmoveto
            237 -145 121 -173 -180 -139 -127 -231 -218 128 -118 161 -13 vhcurveto
            -30 -29 -25 -42 -33 -70 callsubr
            -48 -23 127 callgsubr
            8 17 12 14 14 10 rrcurveto
            161 19 116 123 206 vvcurveto
            -153 14 rmoveto
            -79 -1 -68 -29 -72 vhcurveto
            -63 -26 -53 -40 -56 hhcurveto
            -60 -48 41 58 -26 hvcurveto
            -31 70 -1 79 74 vvcurveto
            64 0 75 28 65 vhcurveto
            74 33 57 26 47 hhcurveto
            57 54 -36 -68 28 hvcurveto
            26 -63 1 -64 -73 vvcurveto
            return
          </CharString>
          <CharString index="77">
            -36 -23 -37 -28 -45 hhcurveto
            -37 -29 25 38 -13 hvcurveto
            -11 34 0 59 35 vvcurveto
            40 0 53 12 35 vhcurveto
            40 15 33 25 41 hhcurveto
            31 36 -15 -38 27 hvcurveto
            return
          </CharString>
          <CharString index="78">
            471 219 rmoveto
            141 -88 93 -134 -129 -92 -89 -145 -130 77 -79 109 -14 vhcurveto
            -32 -29 -30 -46 -35 -70 callsubr
            -47 -24 127 callgsubr
            10 19 14 16 18 11 rrcurveto
            112 15 73 82 126 vvcurveto
            -128 10 rmoveto
            -47 0 -52 -10 -34 vhcurveto
            -39 -10 -37 -23 -36 hhcurveto
            -37 -38 22 44 -11 hvcurveto
            -8 33 0 61 35 vvcurveto
            47 0 48 9 32 vhcurveto
            38 10 37 23 37 hhcurveto
            43 33 -29 -32 9 hvcurveto
            9 -33 0 -48 -46 vvcurveto
            return
          </CharString>
          <CharString index="79">
            330 rmoveto
            66 0 259 -206 -79 -39 -27 -32 -32 vhcurveto
            -45 -44 -14 -46 -66 vvcurveto
            -144 92 -69 102 16 44 1 48 25 vhcurveto
            -1 -26 0 -26 -2 -26 -4 -60 -6 -26 -15 -27 rrcurveto
            -18 -11 -28 -35 -48 hhcurveto
            -9 -34 1 21 -23 hvcurveto
            29 5 23 22 35 vvcurveto
            34 -23 28 -39 -36 -27 -23 -42 -65 45 -59 96 88 161 58 283 vhcurveto
            -136 116 rmoveto
            -93 -10 -90 -68 -39 -19 29 28 -4 vhcurveto
            -3 26 0 73 16 vvcurveto
            48 0 52 6 27 vhcurveto
            21 4 19 33 46 hhcurveto
            hintmask 00010011
            36 17 -34 -25 8 hvcurveto
            1 -3 6 -17 -91 vvcurveto
            endchar
          </CharString>
          <CharString index="80">
            486 -6 -10 callgsubr
            return
          </CharString>
          <CharString index="81">
            -10 75 -17 74 -24 71 24 72 17 73 10 75 rrcurveto
            10 -6 6 -8 vhcurveto
            -8 hlineto
            -6 -5 -4 -5 -2 hvcurveto
            -27 -81 -43 -74 -57 -62 rrcurveto
            -3 -3 -1 -3 -4 vvcurveto
            -4 1 -3 3 -2 vhcurveto
            57 -63 43 -74 27 -80 rrcurveto
            -6 2 5 -4 6 hhcurveto
            8 hlineto
            8 6 6 10 hvcurveto
            return
          </CharString>
          <CharString index="82">
            508 496 rmoveto
            43 -27 39 -40 -44 -22 -34 -33 -33 22 -34 44 vhcurveto
            6 hlineto
            -12 -19 -18 -15 -22 -7 rrcurveto
            return
          </CharString>
          <CharString index="83">
            -388 3 callgsubr
            return
          </CharString>
          <CharString index="84">
            467 -6 40 184 73 callsubr
            return
          </CharString>
          <CharString index="85">
            500 -201 36 152 96 0 96 -25 36 164 96 -36 36 -36 41 return
          </CharString>
          <CharString index="86">
            7 0 -39 hvcurveto
            -309 -69 -47 vlineto
            return
          </CharString>
          <CharString index="87">
            205 rmoveto
            147 -94 66 -100 -13 -45 0 -49 -27 vhcurveto
            5 0 61 7 48 vhcurveto
            122 18 78 11 24 hhcurveto
            21 24 -7 -18 15 hvcurveto
            -27 -3 -31 -19 -41 vvcurveto
            -34 23 -28 39 36 27 23 42 54 -32 70 -97 -89 -172 -57 -282 -66 0 -261 211 109 95 71 145 vhcurveto
            -29 callgsubr
          </CharString>
          <CharString index="88">
            151 -67 51 -59 -67 -84 -53 -148 -155 89 -47 62 62 64 56 145 vhcurveto
            return
          </CharString>
          <CharString index="89">
            36 -30 47 39 36 273 47 -47 55 return
          </CharString>
          <CharString index="90">
            769 -11 47 600 47 -44 47 return
          </CharString>
          <CharString index="91">
            656 0 6 callsubr
            return
          </CharString>
          <CharString index="92">
            114 45 callsubr
            return
          </CharString>
          <CharString index="93">
            767 0 47 272 48 272 47 hstem
            128 136 299 147 cntrmask 11100000
            710 337 rmoveto
            232 -140 117 -164 vhcurveto
            -372 -47 94 -272 -94 -48 94 -272 -94 -47 372 hlineto
            167 137 115 222 hvcurveto
            -147 hmoveto
            -105 -8 -56 -24 -44 vhcurveto
            -56 -32 -62 -29 -72 hhcurveto
            -101 272 119 48 -119 272 99 callsubr
          </CharString>
          <CharString index="94">
            683 0 47 255 41 296 134 callsubr
            -71 153 121 153 hintmask 10110000
            626 491 rmoveto
            109 -84 86 -149 vhcurveto
            -359 -47 94 -592 -94 -47 hlineto
            hintmask 10001000
            70 callgsubr
            vlineto
            hintmask 11010100
            -94 255 132 hlineto
            123 101 70 119 hvcurveto
            -153 hmoveto
            hintmask 01101100
            -86 0 -62 -121 vhcurveto
            -88 296 88 hlineto
            121 0 -61 -87 hvcurveto
            endchar
          </CharString>
          <CharString index="95">
            1 callgsubr
            350 return
          </CharString>
          <CharString index="96">
            222 rmoveto
            -47 hlineto
            -3 -24 -7 -49 -12 -16 rrcurveto
            -5 -8 -86 0 0 vvcurveto
            -120 hlineto
            27 24 64 63 27 24 20 19 52 44 20 19 rrcurveto
            49 50 21 47 51 vvcurveto
            110 -90 79 -122 -106 -81 -68 -84 -59 48 -15 24 32 40 22 50 41 -26 25 -35 6 vhcurveto
            30 27 38 5 17 hhcurveto
            85 11 -101 -41 -56 -19 -69 -74 -92 hvcurveto
            -158 -198 rlineto
            -10 -12 0 -2 -19 vvcurveto
            -18 368 vlineto
            endchar
          </CharString>
          <CharString index="97">
            63 0 -73 -92 -47 0 -44 -11 -30 hvcurveto
            -39 -13 -36 -16 -31 hhcurveto
            -35 -42 19 43 -24 hvcurveto
            47 2 22 30 35 vvcurveto
            53 -43 15 -24 vhcurveto
            return
          </CharString>
          <CharString index="98">
            123 -492 hlineto
            -90 -39 -32 -42 -6 -33 1 15 -29 vhcurveto
            11 4 39 20 49 vvcurveto
            54 -43 23 -33 return
          </CharString>
          <CharString index="99">
            624 485 rmoveto
            -22 22 -20 -20 -10 -10 -183 -183 rcurveline
            -184 183 -9 9 -21 21 -21 -21 rlinecurve
            -22 -22 20 -20 10 -10 183 -183 rcurveline
            -183 -184 -9 -9 -21 -21 21 -21 rlinecurve
            22 -22 20 20 10 10 184 183 rcurveline
            183 -183 9 -9 21 -21 21 21 rlinecurve
            22 22 -20 20 -10 10 -183 184 rcurveline
            183 183 9 9 21 21 -21 21 rlinecurve
            return
          </CharString>
          <CharString index="100">
            8 callgsubr
            hintmask 00001000
            -85 callsubr
            hintmask 00000100
            6 -20 -24 8 -21 hhcurveto
            hintmask 00001000
            -82 callgsubr
            hintmask 00000100
            -84 callgsubr
            hintmask 00001000
            -6 20 24 -8 21 hhcurveto
            hintmask 00000100
            39 21 27 4 3 hvcurveto
            endchar
          </CharString>
          <CharString index="101">
            182 rmoveto
            -47 hlineto
            -10 -43 rlineto
            -14 -4 -10 -8 -14 hhcurveto
            -162 hlineto
            hintmask 00001000
            142 79 rlineto
            hintmask 00000100
            55 31 50 30 68 vvcurveto
            hintmask 01101000
            105 -124 31 -90 -69 -111 -15 -88 -29 20 -27 34 29 26 20 35 19 -8 14 -14 12 vhcurveto
            5 22 17 7 24 hhcurveto
            hintmask 10000100
            50 56 -31 -61 -63 -51 -47 -45 -36 hvcurveto
            -152 -120 rlineto
            -11 -9 -8 -3 -20 vvcurveto
            -24 375 vlineto
            endchar
          </CharString>
          <CharString index="102">
            622 494 rmoveto
            44 -26 40 -40 -45 -22 -34 -33 -33 22 -34 45 vhcurveto
            1 hlineto
            return
          </CharString>
          <CharString index="103">
            -20 100 callsubr
            hintmask 00100010
            459 11 callgsubr
            hintmask 11100101
            -9 callsubr
            -37 -40 -25 -52 vhcurveto
            hintmask 10000010
            -73 73 -52 103 vhcurveto
            hintmask 00100001
            62 callsubr
            hintmask 00011000
            return
          </CharString>
          <CharString index="104">
            319 rmoveto
            95 0 241 -210 -211 0 -239 -97 -96 0 -234 210 211 0 233 97 vhcurveto
            -128 12 rmoveto
            -66 0 -91 -4 -48 vhcurveto
            -87 -7 -51 -14 -20 hhcurveto
            -19 -54 11 95 -6 hvcurveto
            -4 51 0 115 33 vvcurveto
            44 0 103 3 43 vhcurveto
            96 8 61 3 10 hhcurveto
            26 47 -17 -81 6 hvcurveto
            4 -45 0 -110 -35 vvcurveto
            endchar
          </CharString>
          <CharString index="105">
            -196 -155 -128 -226 -223 151 -131 201 163 94 131 107 hvcurveto
            return
          </CharString>
          <CharString index="106">
            -156 615 rmoveto
            -103 callsubr
            258 hmoveto
            -103 callsubr
            return
          </CharString>
          <CharString index="107">
            556 13 callgsubr
            262 47 39 47 -28 36 10 callsubr
            hintmask 00110101
            -37 callgsubr
            72 callsubr
            vhcurveto
            -1 101 hlineto
            hintmask 00111010
            -65 callsubr
            return
          </CharString>
          <CharString index="108">
            rmoveto
            99 -161 8 -52 vhcurveto
            -17 hlineto
            -59 -7 -118 -13 -88 vvcurveto
            -12 6 -5 15 vhcurveto
            5 hlineto
            13 5 2 19 4 hvcurveto
            47 16 85 5 46 hhcurveto
            53 73 -3 -38 32 hvcurveto
            return
          </CharString>
          <CharString index="109">
            265 hmoveto
            47 -62 403 vlineto
            return
          </CharString>
          <CharString index="110">
            hstemhm
            85 108 85 122 hintmask 01010000
            -27 callgsubr
            return
          </CharString>
          <CharString index="111">
            -69 64 callsubr
            123 -3 rlineto
            47 -69 return
          </CharString>
          <CharString index="112">
            -65 callsubr
            111 77 47 50 16 20 -5 -88 vhcurveto
            -274 -65 -47 vlineto
            123 3 125 65 callsubr
            return
          </CharString>
          <CharString index="113">
            47 282 47 257 47 return
          </CharString>
          <CharString index="114">
            rlineto
            13 -18 90 -131 -6 vvcurveto
            -10 -23 0 -14 vhcurveto
            -47 vlineto
            120 3 rlineto
            40 39 -2 -1 22 hvcurveto
            return
          </CharString>
          <CharString index="115">
            63 -274 hlineto
            -108 81 -21 65 76 29 68 60 vhcurveto
            return
          </CharString>
          <CharString index="116">
            -47 94 69 callgsubr
            return
          </CharString>
          <CharString index="117">
            hstemhm
            93 -15 callsubr
            return
          </CharString>
          <CharString index="118">
            500 -6 40 383 36 return
          </CharString>
          <CharString index="119">
            -9 3 -3 10 10 vvcurveto
            282 vlineto
            77 16 62 48 73 vvcurveto
            return
          </CharString>
          <CharString index="120">
            47 135 47 469 return
          </CharString>
          <CharString index="121">
            -38 -48 -75 0 -25 hhcurveto
            -28 vlineto
            18 34 0 10 38 hvcurveto
            -309 -80 -28 vlineto
            2 27 66 0 31 hhcurveto
            31 67 0 -2 28 hvcurveto
            return
          </CharString>
          <CharString index="122">
            vlineto
            -1 -8 -55 -4 -3 hhcurveto
            -4 -2 0 3 -9 hvcurveto
            8 -26 -24 0 -13 hhcurveto
            -120 -121 -43 -113 hvcurveto
            85 callsubr
            169 -350 -69 64 callsubr
            return
          </CharString>
          <CharString index="123">
            26 callsubr
            44 47 return
          </CharString>
          <CharString index="124">
            783 0 35 callsubr
            return
          </CharString>
          <CharString index="125">
            65 callgsubr
            -20 vlineto
            return
          </CharString>
          <CharString index="126">
            0 -19 hhcurveto
            -115 -125 -41 -115 hvcurveto
            85 callsubr
            169 -12 callsubr
            return
          </CharString>
          <CharString index="127">
            -10 -6 -8 -5 vhcurveto
            -400 -646 rlineto
            -3 -5 -1 -5 -6 vvcurveto
            -17 13 -13 17 10 10 6 8 5 vhcurveto
            return
          </CharString>
          <CharString index="128">
            hmoveto
            47 -116 389 vlineto
            14 -4 11 -22 -20 -22 -18 -8 -22 vhcurveto
            -17 -49 -54 -2 -52 hhcurveto
            -47 vlineto
            42 43 0 11 41 hvcurveto
            -333 -112 -47 vlineto
            hintmask 01000000
            173 4 rlineto
            hintmask 10000000
            endchar
          </CharString>
          <CharString index="129">
            54 0 54 -2 54 0 54 return
          </CharString>
          <CharString index="130">
            29 callsubr
            -419 403 rmoveto
            return
          </CharString>
          <CharString index="131">
            -15 -52 -9 -61 -79 61 -91 109 130 99 79 134 hvcurveto
            endchar
          </CharString>
          <CharString index="132">
            -19 callsubr
            -327 hmoveto
            -19 callsubr
            return
          </CharString>
          <CharString index="133">
            -200 156 return
          </CharString>
          <CharString index="134">
            272 54 callgsubr
            return
          </CharString>
          <CharString index="135">
            397 50 callsubr
            return
          </CharString>
          <CharString index="136">
            -37 callsubr
            -327 hmoveto
            -37 callsubr
            return
          </CharString>
          <CharString index="137">
            -20 -10 -20 -11 -17 -14 -54 -44 rcurveline
            hintmask 10010000
            14 -17 rlineto
            41 49 53 30 51 hhcurveto
            40 29 -17 -20 35 hvcurveto
            -17 29 31 -17 40 hhcurveto
            hintmask 01000000
            25 26 8 10 22 hvcurveto
            return
          </CharString>
          <CharString index="138">
            333 174 97 hstem
            11 265 vstem
            276 174 rmoveto
            97 -265 -97 vlineto
            endchar
          </CharString>
          <CharString index="139">
            3 35 87 39 callsubr
            return
          </CharString>
          <CharString index="140">
            44 35 24 30 28 hvcurveto
            -51 callgsubr
            -47 -24 127 callgsubr
            12 23 18 18 23 12 rrcurveto
            return
          </CharString>
          <CharString index="141">
            306 -200 36 0 55 504 55 return
          </CharString>
          <CharString index="142">
            47 -44 47 539 47 115 callsubr
            return
          </CharString>
          <CharString index="143">
            hstemhm
            26 127 -111 111 return
          </CharString>
          <CharString index="144">
            rmoveto
            -37 callsubr
            return
          </CharString>
          <CharString index="145">
            556 0 47 312 55 0 36 189 47 -47 55 return
          </CharString>
          <CharString index="146">
            0 40 hhcurveto
            40 return
          </CharString>
          <CharString index="147">
            95 29 99 82 51 47 -22 -36 26 vhcurveto
            -32 -3 -26 -27 -33 vvcurveto
            -35 29 -28 34 35 28 28 35 98 -90 71 -102 -127 -98 -111 -131 return
          </CharString>
          <CharString index="148">
            -30 callgsubr
            -21 157 -114 109 callsubr
            return
          </CharString>
          <CharString index="149">
            hstemhm
            55 153 38 128 166 128 return
          </CharString>
          <CharString index="150">
            556 0 56 callgsubr
            return
          </CharString>
          <CharString index="151">
            830 hmoveto
            47 -69 262 vlineto
            75 -24 66 -111 -71 -48 -39 -52 -27 vhcurveto
            88 -19 -80 3 -32 hhcurveto
            72 callsubr
            hvcurveto
            -1 101 hlineto
            return
          </CharString>
          <CharString index="152">
            163 114 return
          </CharString>
          <CharString index="153">
            539 71 callgsubr
            608 vlineto
            return
          </CharString>
          <CharString index="154">
            769 636 47 -44 44 -44 47 return
          </CharString>
          <CharString index="155">
            528 -200 36 561 47 return
          </CharString>
          <CharString index="156">
            0 -3 36 hvcurveto
            return
          </CharString>
          <CharString index="157">
            0 47 592 47 return
          </CharString>
          <CharString index="158">
            278 129 callsubr
            -47 55 hstemhm
            95 108 hintmask 00101100
            27 callsubr
            return
          </CharString>
          <CharString index="159">
            -174 -8 rlineto
            -47 vlineto
            59 -21 callsubr
            74 2 rlineto
            -35 -28 -34 -50 -38 vvcurveto
            -45 35 -45 70 vhcurveto
            return
          </CharString>
          <CharString index="160">
            47 hstem
            128 142 return
          </CharString>
          <CharString index="161">
            125 callsubr
            -94 return
          </CharString>
          <CharString index="162">
            51 callgsubr
            hstemhm
            return
          </CharString>
          <CharString index="163">
            -183 -8 rlineto
            -48 vlineto
            hintmask 0000000100000000
            20 26 0 -4 12 hvcurveto
            hintmask 0000000010000000
            9 -4 3 -10 -9 vvcurveto
            -249 vlineto
            return
          </CharString>
          <CharString index="164">
            85 98 126 97 hstem
            277 85 rmoveto
            98 -266 -98 vlineto
            266 224 rmoveto
            97 -266 -97 vlineto
            endchar
          </CharString>
          <CharString index="165">
            310 304 rmoveto
            28 -84 346 vlineto
            19 -4 0 -24 vhcurveto
            return
          </CharString>
          <CharString index="166">
            47 -47 55 10 callsubr
            return
          </CharString>
          <CharString index="167">
            126 3 rlineto
            38 64 49 callsubr
            47 return
          </CharString>
          <CharString index="168">
            750 -11 42 613 42 -29 40 return
          </CharString>
          <CharString index="169">
            122 90 57 103 hvcurveto
            490 vlineto
            return
          </CharString>
          <CharString index="170">
            444 -6 40 379 40 return
          </CharString>
          <CharString index="171">
            -47 vlineto
            123 3 return
          </CharString>
          <CharString index="172">
            -47 callgsubr
            rlineto
            return
          </CharString>
          <CharString index="173">
            hlineto
            66 251 rlineto
            4 15 0 2 3 vvcurveto
            15 -12 15 -19 -23 -6 -21 -9 -2 vhcurveto
            -71 -271 rlineto
            return
          </CharString>
          <CharString index="174">
            hlineto
            -66 -252 rlineto
            -4 -15 0 -1 -4 vvcurveto
            -15 12 -15 19 23 6 21 9 2 vhcurveto
            71 272 rlineto
            return
          </CharString>
          <CharString index="175">
            75 33 41 44 hvcurveto
            return
          </CharString>
          <CharString index="176">
            vstem
            553 225 rmoveto
            90 -74 74 -90 -90 -74 -74 -90 -90 74 -74 90 90 74 74 90 vhcurveto
            return
          </CharString>
          <CharString index="177">
            344 156 194 -20 hstem
            return
          </CharString>
          <CharString index="178">
            23 117 158 114 return
          </CharString>
          <CharString index="179">
            -72 -51 -41 -60 -29 return
          </CharString>
          <CharString index="180">
            33 166 36 return
          </CharString>
          <CharString index="181">
            9 callsubr
            hlineto
            3 35 94 0 40 hhcurveto
            46 98 0 -3 41 hvcurveto
            47 -118 return
          </CharString>
          <CharString index="182">
            rmoveto
            -19 callsubr
            return
          </CharString>
          <CharString index="183">
            333 174 97 hstem
            34 265 vstem
            299 174 rmoveto
            97 -265 -97 vlineto
            endchar
          </CharString>
          <CharString index="184">
            187 128 return
          </CharString>
          <CharString index="185">
            16 callsubr
            592 47 return
          </CharString>
          <CharString index="186">
            394 -6 113 callgsubr
            return
          </CharString>
          <CharString index="187">
            -11 43 157 43 384 39 hstemhm
            return
          </CharString>
          <CharString index="188">
            82 55 callsubr
            return
          </CharString>
          <CharString index="189">
            79 55 callsubr
            return
          </CharString>
          <CharString index="190">
            575 -250 36 446 36 446 36 hstem
            232 111 cntrmask 11100000
            496 return
          </CharString>
          <CharString index="191">
            -107 -118 -47 vlineto
            3 38 102 0 43 hhcurveto
            44 102 0 -3 38 hvcurveto
            47 -118 return
          </CharString>
          <CharString index="192">
            -100 -58 -47 58 -12 callsubr
            return
          </CharString>
          <CharString index="193">
            137 -1 125 -118 136 -14 125 -111 136 hintmask 0100010000000000
            return
          </CharString>
          <CharString index="194">
            15 0 5 -21 -11 -4 0 -9 -7 vhcurveto
            -221 -263 rlineto
            -28 174 -66 return
          </CharString>
          <CharString index="195">
            117 callgsubr
            -15 101 44 93 hvcurveto
            return
          </CharString>
          <CharString index="196">
            hstemhm
            28 128 -2 157 -63 95 0 95 return
          </CharString>
          <CharString index="197">
            526 -21 207 -20 hstem
            return
          </CharString>
          <CharString index="198">
            -94 102 callsubr
            return
          </CharString>
          <CharString index="199">
            rmoveto
            35 -29 28 -34 -35 -28 -28 -35 -35 28 -28 35 34 29 28 35 vhcurveto
            return
          </CharString>
          <CharString index="200">
            rmoveto
            -99 callgsubr
            return
          </CharString>
          <CharString index="201">
            53 52 53 59 142 -53 53 return
          </CharString>
          <CharString index="202">
            76 -21 207 -20 hstemhm
            return
          </CharString>
          <CharString index="203">
            41 86 41 hstemhm
            -350 22 callsubr
            hintmask 11010100
            -190 return
          </CharString>
          <CharString index="204">
            522 222 rmoveto
            153 -99 75 -109 -48 -39 -15 -27 -34 vhcurveto
            return
          </CharString>
          <CharString index="205">
            704 148 rmoveto
            -48 hlineto
            -56 -58 -35 -62 -50 -46 20 23 -45 vhcurveto
            return
          </CharString>
          <CharString index="206">
            100 hlineto
            71 63 -29 -61 33 hvcurveto
            24 -43 8 -58 -111 vvcurveto
            endchar
          </CharString>
          <CharString index="207">
            hstemhm
            0 153 113 callsubr
            return
          </CharString>
          <CharString index="208">
            517 -11 36 17 149 448 47 return
          </CharString>
          <CharString index="209">
            -47 vlineto
            3 35 return
          </CharString>
          <CharString index="210">
            0 -4 hhcurveto
            -12 -28 hlineto
            72 2 72 -2 rlineto
            28 -12 vlineto
            -12 -13 return
          </CharString>
          <CharString index="211">
            467 -204 66 -12 36 108 40 184 73 callsubr
            return
          </CharString>
          <CharString index="212">
            -175 99 vlineto
            17 0 44 38 31 vhcurveto
            28 36 49 1 10 hhcurveto
            return
          </CharString>
          <CharString index="213">
            500 -11 36 594 36 hstem
            39 128 165 128 vstem
            return
          </CharString>
          <CharString index="214">
            -56 36 331 36 0 36 228 35 -35 36 67 36 hstemhm
            return
          </CharString>
          <CharString index="215">
            129 -65 129 17 36 hstemhm
            85 108 169 108 return
          </CharString>
          <CharString index="216">
            74 callgsubr
            118 47 -19 47 return
          </CharString>
          <CharString index="217">
            139 callsubr
            153 return
          </CharString>
          <CharString index="218">
            556 -11 47 618 43 return
          </CharString>
          <CharString index="219">
            444 0 40 368 36 return
          </CharString>
          <CharString index="220">
            23 136 -60 136 return
          </CharString>
          <CharString index="221">
            260 32 99 32 return
          </CharString>
          <CharString index="222">
            0 47 -44 47 return
          </CharString>
          <CharString index="223">
            121 callsubr
            71 return
          </CharString>
          <CharString index="224">
            16 callgsubr
            -68 -18 94 44 93 hvcurveto
            69 hlineto
            return
          </CharString>
          <CharString index="225">
            31 25 34 25 45 hhcurveto
            51 40 -64 -123 hvcurveto
            endchar
          </CharString>
          <CharString index="226">
            3 5 1 5 6 vvcurveto
            -32 -544 rmoveto
            -147 hlineto
            return
          </CharString>
          <CharString index="227">
            -205 43 109 39 150 38 248 39 hstemhm
            return
          </CharString>
          <CharString index="228">
            390 -6 40 143 -20 240 47 191 -20 return
          </CharString>
          <CharString index="229">
            131 callgsubr
            rrcurveto
            return
          </CharString>
          <CharString index="230">
            hstemhm
            60 157 -122 108 return
          </CharString>
          <CharString index="231">
            75 -44 75 -30 callgsubr
            return
          </CharString>
          <CharString index="232">
            0 -3 35 hvcurveto
            47 return
          </CharString>
          <CharString index="233">
            62 125 -20 return
          </CharString>
          <CharString index="234">
            -39 29 -26 36 35 31 22 45 47 -39 68 -99 return
          </CharString>
          <CharString index="235">
            125 283 -20 90 156 hstemhm
            56 128 return
          </CharString>
          <CharString index="236">
            13 callgsubr
            592 47 return
          </CharString>
          <CharString index="237">
            vvcurveto
            33 0 4 -24 -23 0 -5 -22 vhcurveto
            -12 vlineto
            return
          </CharString>
          <CharString index="238">
            36 callsubr
            138 111 return
          </CharString>
          <CharString index="239">
            -20 21 -20 hstemhm
            hintmask 00100000
            return
          </CharString>
          <CharString index="240">
            -21 176 -20 hstemhm
            56 return
          </CharString>
          <CharString index="241">
            47 -30 callgsubr
            return
          </CharString>
          <CharString index="242">
            -11 43 350 36 48 return
          </CharString>
          <CharString index="243">
            44 callgsubr
            hstemhm
            56 153 return
          </CharString>
          <CharString index="244">
            hstemhm
            69 157 -141 108 85 122 return
          </CharString>
          <CharString index="245">
            556 -6 36 -30 47 0 47 320 36 return
          </CharString>
          <CharString index="246">
            62 133 callsubr
            return
          </CharString>
          <CharString index="247">
            -69 64 callsubr
            rlineto
            return
          </CharString>
          <CharString index="248">
            52 143 callsubr
            56 return
          </CharString>
          <CharString index="249">
            13 -21 647 47 return
          </CharString>
          <CharString index="250">
            -21 165 -20 hstemhm
            return
          </CharString>
          <CharString index="251">
            400 646 rlineto
            return
          </CharString>
          <CharString index="252">
            75 -44 75 hstemhm
            return
          </CharString>
          <CharString index="253">
            hlineto
            -12 -29 0 -30 -31 31 0 15 hvcurveto
            return
          </CharString>
          <CharString index="254">
            hstemhm
            -24 141 10 142 13 141 return
          </CharString>
          <CharString index="255">
            0 125 304 143 36 47 hstem
            return
          </CharString>
          <CharString index="256">
            0 47 -43 43 322 47 45 -20 hstemhm
            return
          </CharString>
          <CharString index="257">
            156 hstem
            -322 157 vstem
            -165 return
          </CharString>
          <CharString index="258">
            894 -65 -21 673 -20 hstem
            797 return
          </CharString>
          <CharString index="259">
            -21 125 62 return
          </CharString>
        <CharString name=".notdef">
          280 endchar
        </CharString>
        <CharString name="A">
          -32 callgsubr
          hstem
          -106 callgsubr
          endchar
        </CharString>
        <CharString name="AE">
          -35 callsubr
        </CharString>
        <CharString name="AE.dup">
          -35 callsubr
        </CharString>
        <CharString name="AEacute">
          906 0 47 259 47 286 47 73 -21 176 -20 hstemhm
          419 132 81 47 0 47 76 47 -19 47 hintmask 1110010101000000
          877 274 rmoveto
          -47 hlineto
          -130 -22 -17 -97 -154 hhcurveto
          -86 259 31 hlineto
          92 5 -42 -75 hvcurveto
          47 281 -47 hlineto
          -74 -5 -43 -92 vhcurveto
          -31 286 hlineto
          hintmask 1110011010000000
          81 hlineto
          145 11 -84 -110 14 hvcurveto
          47 hlineto
          -31 241 rlineto
          -549 -47 67 hlineto
          -207 -569 rlineto
          -17 -6 -2 -6 -86 hhcurveto
          -47 vlineto
          106 3 119 -3 rlineto
          47 vlineto
          0 -78 0 13 vvcurveto
          0 3 10 1 2 vhcurveto
          85 234 rlineto
          148 -259 -71 -47 483 hlineto
          hintmask 0110010001000000
          -412 353 rmoveto
          -131 hlineto
          105 286 rlineto
          26 hlineto
          hintmask 0001110000000000
          172 202 -103 callgsubr
        </CharString>
        <CharString name="Aacute">
          -32 callgsubr
          81 -21 176 -102 callgsubr
          183 348 -103 callgsubr
        </CharString>
        <CharString name="Abreve">
          -32 callgsubr
          60 62 125 -102 callgsubr
          40 callgsubr
          endchar
        </CharString>
        <CharString name="Abreveacute">
          -32 callgsubr
          60 62 336 -102 callgsubr
          40 callgsubr
          -53 138 -103 callgsubr
        </CharString>
        <CharString name="Abrevedotbelow">
          68 callgsubr
          60 126 callsubr
          hstemhm
          299 157 hintmask 01111100
          -106 callgsubr
          40 callgsubr
          hintmask 10000010
          -79 -1047 rmoveto
          -100 callsubr
        </CharString>
        <CharString name="Abrevegrave">
          -32 callgsubr
          60 62 125 -102 callgsubr
          40 callgsubr
          -52 73 rmoveto
          -26 -38 -142 60 -13 6 -22 10 -5 27 rlinecurve
          38 -7 28 35 39 hhcurveto
          18 13 -9 -13 12 hvcurveto
          endchar
        </CharString>
        <CharString name="Abrevehookabove">
          -32 callgsubr
          60 62 333 -102 callgsubr
          40 callgsubr
          -59 145 -107 callgsubr
        </CharString>
        <CharString name="Abrevetilde">
          756 980 75 -53 62 -53 75 hstemhm
          cntrmask 11100000
          -106 callgsubr
          hintmask 11100000
          40 callgsubr
          10 139 rmoveto
          -28 22 rlineto
          -85 callsubr
          6 -20 -24 8 -21 hhcurveto
          -82 callgsubr
          -84 callgsubr
          -6 20 24 -8 21 hhcurveto
          39 21 27 4 3 hvcurveto
          endchar
        </CharString>
        <CharString name="Acaron">
          -32 callgsubr
          71 -21 165 -74 callgsubr
          376 -63 callgsubr
        </CharString>
        <CharString name="Acircumflex">
          -32 callgsubr
          71 -21 165 -74 callgsubr
          259 -52 callsubr
        </CharString>
        <CharString name="Acircumflexacute">
          -32 callgsubr
          71 -21 376 -74 callgsubr
          259 -95 callsubr
          -56 303 -103 callgsubr
        </CharString>
        <CharString name="Acircumflexdotbelow">
          68 callgsubr
          71 143 callsubr
          299 157 hintmask 01111100
          -106 callgsubr
          220 259 -95 callsubr
          hintmask 10000010
          -81 -850 rmoveto
          -100 callsubr
        </CharString>
        <CharString name="Acircumflexgrave">
          -32 callgsubr
          71 -21 165 -74 callgsubr
          259 -77 callsubr
        </CharString>
        <CharString name="Acircumflexhookabove">
          -32 callgsubr
          71 -21 373 -74 callgsubr
          259 -95 callsubr
          35 310 -107 callgsubr
        </CharString>
        <CharString name="Acircumflextilde">
          -32 callgsubr
          71 -21 220 75 -44 75 -104 callgsubr
          hintmask 00010100
          220 259 -7 callsubr
        </CharString>
        <CharString name="Adblgrave">
          -32 callgsubr
          81 -21 195 -102 callgsubr
          149 266 -94 callgsubr
        </CharString>
        <CharString name="Adieresis">
          -32 callgsubr
          50 140 hstemhm
          155 39 callgsubr
          hintmask 11100000
          -106 callgsubr
          hintmask 00011100
          -37 305 -82 callsubr
        </CharString>
        <CharString name="Adotbelow">
          68 callgsubr
          hstemhm
          299 157 hintmask 01110000
          -106 callgsubr
          hintmask 10001000
          123 -615 rmoveto
          -100 callsubr
        </CharString>
        <CharString name="Agrave">
          -32 callgsubr
          81 -21 176 -102 callgsubr
          115 283 -76 callgsubr
        </CharString>
        <CharString name="Ahookabove">
          -32 callgsubr
          82 -21 193 -102 callgsubr
          142 376 -107 callgsubr
        </CharString>
        <CharString name="Alpha">
          -32 callgsubr
          hstem
          -106 callgsubr
          endchar
        </CharString>
        <CharString name="Amacron">
          -32 callgsubr
          70 52 -104 callgsubr
          hintmask 00010000
          226 255 -28 callgsubr
        </CharString>
        <CharString name="Aogonek">
          756 136 callgsubr
          -45 47 133 47 469 -34 callgsubr
          endchar
        </CharString>
        <CharString name="Aogonekacute">
          756 136 callgsubr
          -45 47 133 47 469 -20 81 -21 176 -34 callgsubr
          hintmask 00000110
          183 348 -103 callgsubr
        </CharString>
        <CharString name="Aring">
          756 0 13 callsubr
          41 86 41 hstemhm
          271 22 callsubr
          hintmask 11100000
          -106 callgsubr
          hintmask 00110101
          98 289 -65 callgsubr
          hintmask 00101010
          9 callgsubr
          hintmask 00000001
          68 callsubr
          endchar
        </CharString>
        <CharString name="Aringacute">
          756 0 13 callsubr
          41 86 41 211 -20 hstemhm
          271 22 callsubr
          hintmask 1110000000000000
          -106 callgsubr
          hintmask 0011001010000000
          98 289 -65 callgsubr
          hintmask 0010010100000000
          9 callgsubr
          hintmask 0000100010000000
          68 callsubr
          -4 221 -103 callgsubr
        </CharString>
        <CharString name="Atilde">
          -32 callgsubr
          50 75 -44 75 -104 callgsubr
          hintmask 00001000
          212 319 -89 callsubr
        </CharString>
        <CharString name="B">
          -33 callgsubr
        </CharString>
        <CharString name="Beta">
          -33 callgsubr
        </CharString>
        <CharString name="C">
          63 callgsubr
          134 callgsubr
          362 47 hintmask 11011000
          -79 callsubr
          hintmask 10101000
          -2 callsubr
          endchar
        </CharString>
        <CharString name="Cacute">
          63 callgsubr
          110 callsubr
          0 47 362 47 hintmask 11000110
          -79 callsubr
          hintmask 10001010
          -2 callsubr
          hintmask 00110000
          -130 614 -103 callgsubr
        </CharString>
        <CharString name="Ccaron">
          63 callgsubr
          110 callgsubr
          0 47 362 47 hintmask 11000110
          -79 callsubr
          hintmask 10001010
          -2 callsubr
          hintmask 00110000
          -93 642 -63 callgsubr
        </CharString>
        <CharString name="Ccedilla">
          63 callgsubr
          134 callgsubr
          -6 153 215 47 hintmask 10101100
          665 227 rmoveto
          20 -7 1 -17 -13 -9 0 -17 -1 vhcurveto
          -132 -104 -63 -86 -71 -70 31 61 -37 vhcurveto
          -35 59 -6 65 91 vvcurveto
          hintmask 01010100
          64 0 96 47 65 vhcurveto
          69 50 77 13 43 hhcurveto
          -45 callgsubr
          -58 -53 rlineto
          40 -46 -51 22 -66 hhcurveto
          hintmask 00101100
          -196 -155 -128 -226 -201 122 -126 171 -23 hvcurveto
          -74 vlineto
          -11 callgsubr
          46 -39 37 -47 hvcurveto
          24 vlineto
          140 18 80 119 99 vvcurveto
          endchar
        </CharString>
        <CharString name="Ccircumflex">
          63 callgsubr
          110 callgsubr
          0 47 362 47 hintmask 11000110
          -79 callsubr
          hintmask 10001010
          -2 callsubr
          hintmask 00110000
          -93 525 -52 callsubr
        </CharString>
        <CharString name="Cdotaccent">
          63 callgsubr
          42 156 134 callgsubr
          62 157 143 47 hintmask 11001010
          -79 callsubr
          hintmask 10010010
          -2 callsubr
          hintmask 00100100
          -190 590 rmoveto
          -100 callsubr
        </CharString>
        <CharString name="Chi">
          -39 callsubr
        </CharString>
        <CharString name="D">
          767 50 callsubr
          hstem
          128 136 299 147 vstem
          -49 callgsubr
          endchar
        </CharString>
        <CharString name="Dcaron">
          767 50 callsubr
          64 callgsubr
          128 136 299 147 hintmask 11001100
          -49 callgsubr
          hintmask 00110000
          -74 532 -63 callgsubr
        </CharString>
        <CharString name="Dcroat">
          -14 callsubr
        </CharString>
        <CharString name="Ddotbelow">
          767 152 callgsubr
          128 136 -29 157 171 147 hintmask 01110100
          -49 callgsubr
          hintmask 10001000
          -171 -459 rmoveto
          -100 callsubr
        </CharString>
        <CharString name="Delta">
          833 0 121 577 -20 hstem
          782 13 rmoveto
          0 0 3 -5 10 vhcurveto
          -319 647 rlineto
          24 -12 -10 1 -20 hhcurveto
          -24 -7 -4 -20 -10 hvcurveto
          -320 -648 rlineto
          -5 -10 0 -3 0 vvcurveto
          -13 10 0 16 vhcurveto
          680 hlineto
          16 10 0 13 hvcurveto
          -210 108 rmoveto
          -411 hlineto
          205 417 rlineto
          endchar
        </CharString>
        <CharString name="Dlinebelow">
          767 -148 52 96 47 592 49 callgsubr
          299 147 hintmask 01111000
          -49 callgsubr
          hintmask 10000000
          -68 -485 -28 callgsubr
        </CharString>
        <CharString name="E">
          -13 callgsubr
        </CharString>
        <CharString name="Eacute">
          -16 callsubr
          79 -21 176 -20 -97 callsubr
          hintmask 0001100000000000
          -115 841 -103 callgsubr
        </CharString>
        <CharString name="Ebreve">
          -16 callsubr
          58 126 callsubr
          -97 callsubr
          hintmask 0001100000000000
          -96 925 -101 callsubr
          endchar
        </CharString>
        <CharString name="Ecaron">
          -16 callsubr
          69 -21 165 -20 -97 callsubr
          hintmask 0001100000000000
          -78 869 -63 callgsubr
        </CharString>
        <CharString name="Ecircumflex">
          -16 callsubr
          69 -21 165 -20 -97 callsubr
          hintmask 0001100000000000
          -78 76 callgsubr
        </CharString>
        <CharString name="Ecircumflexacute">
          -16 callsubr
          69 -21 376 -20 -97 callsubr
          hintmask 0001100000000000
          -78 752 -95 callsubr
          -56 303 -103 callgsubr
        </CharString>
        <CharString name="Ecircumflexdotbelow">
          656 -200 156 44 6 callsubr
          69 -21 165 -20 41 callsubr
          hintmask 0110001010010000
          627 274 rmoveto
          -47 hlineto
          -130 -21 -20 -97 -166 hhcurveto
          -103 282 22 hlineto
          hintmask 0000000001000000
          91 4 -44 -73 hvcurveto
          47 281 -47 hlineto
          hintmask 0111001010100000
          -73 -4 -44 -91 vhcurveto
          -22 257 99 hlineto
          155 13 -82 -112 15 hvcurveto
          47 hlineto
          -31 241 rlineto
          -534 9 callsubr
          547 hlineto
          hintmask 0000110000010000
          -78 752 -95 callsubr
          hintmask 1000000100000000
          -81 -850 rmoveto
          -100 callsubr
        </CharString>
        <CharString name="Ecircumflexgrave">
          -16 callsubr
          69 -21 165 -20 -97 callsubr
          hintmask 0001100000000000
          -78 752 -77 callsubr
        </CharString>
        <CharString name="Ecircumflexhookabove">
          -16 callsubr
          69 -21 373 -20 -97 callsubr
          hintmask 0001100100000000
          -78 752 -95 callsubr
          35 310 -107 callgsubr
        </CharString>
        <CharString name="Ecircumflextilde">
          -16 callsubr
          69 -21 220 75 -44 75 -15 callgsubr
          118 47 -19 47 hintmask 1100001100100000
          627 274 rmoveto
          -47 hlineto
          -130 -21 -20 -97 -166 hhcurveto
          -103 282 22 hlineto
          hintmask 0000000010000000
          91 4 -44 -73 hvcurveto
          47 281 -47 hlineto
          hintmask 1110001101000000
          -73 -4 -44 -91 vhcurveto
          -22 257 99 hlineto
          155 13 -82 -112 15 hvcurveto
          47 hlineto
          -31 241 rlineto
          -534 9 callsubr
          547 hlineto
          hintmask 0000000000100000
          hintmask 0001010000000000
          -78 752 rmoveto
          -175 141 -175 -141 14 -24 160 58 160 -58 rlineto
          8 304 -56 callsubr
        </CharString>
        <CharString name="Edblgrave">
          -16 callsubr
          79 -21 195 -20 -97 callsubr
          hintmask 0001100000000000
          -121 759 -94 callgsubr
        </CharString>
        <CharString name="Edieresis">
          -16 callsubr
          48 140 hstemhm
          105 141 -118 142 22 74 callgsubr
          -23 141 0 47 -19 47 hintmask 1100011000100000
          627 274 rmoveto
          -47 hlineto
          -130 -21 -20 -97 -166 hhcurveto
          -103 282 22 hlineto
          hintmask 0000000100000000
          91 4 -44 -73 hvcurveto
          47 281 -47 hlineto
          hintmask 1110011001000000
          -73 -4 -44 -91 vhcurveto
          -22 257 99 hlineto
          155 13 -82 -112 15 hvcurveto
          47 hlineto
          -31 241 rlineto
          -534 9 callsubr
          547 hlineto
          hintmask 0000000000100000
          hintmask 0001100010000000
          -335 798 -82 callsubr
        </CharString>
        <CharString name="Edotaccent">
          -16 callsubr
          59 156 41 callsubr
          hintmask 1100101001000000
          627 274 rmoveto
          -47 hlineto
          -130 -21 -20 -97 -166 hhcurveto
          -103 282 22 hlineto
          hintmask 0000000100000000
          91 4 -44 -73 hvcurveto
          47 281 -47 hlineto
          hintmask 1110101010000000
          -73 -4 -44 -91 vhcurveto
          -22 257 99 hlineto
          155 13 -82 -112 15 hvcurveto
          47 hlineto
          -31 241 rlineto
          -534 9 callsubr
          547 hlineto
          hintmask 0000000001000000
          hintmask 0001010000000000
          -175 817 rmoveto
          -100 callsubr
        </CharString>
        <CharString name="Edotbelow">
          656 -200 156 44 6 callsubr
          41 callsubr
          hintmask 0110101001000000
          627 274 rmoveto
          -47 hlineto
          -130 -21 -20 -97 -166 hhcurveto
          -103 282 22 hlineto
          hintmask 0000000100000000
          91 4 -44 -73 hvcurveto
          47 281 -47 hlineto
          hintmask 0111101010000000
          -73 -4 -44 -91 vhcurveto
          -22 257 99 hlineto
          155 13 -82 -112 15 hvcurveto
          47 hlineto
          -31 241 rlineto
          -534 9 callsubr
          547 hlineto
          hintmask 0000000001000000
          hintmask 1000010000000000
          -175 -122 rmoveto
          -100 callsubr
        </CharString>
        <CharString name="Egrave">
          -16 callsubr
          79 -21 176 -20 -97 callsubr
          hintmask 0001100000000000
          -183 776 -76 callgsubr
        </CharString>
        <CharString name="Ehookabove">
          -16 callsubr
          80 -21 193 -20 -97 callsubr
          hintmask 0001100000000000
          -156 869 -107 callgsubr
        </CharString>
        <CharString name="Emacron">
          -16 callsubr
          68 52 -15 callgsubr
          118 47 -19 47 hintmask 1100110010000000
          627 274 rmoveto
          -47 hlineto
          -130 -21 -20 -97 -166 hhcurveto
          -103 282 22 hlineto
          hintmask 0000001000000000
          91 4 -44 -73 hvcurveto
          47 281 -47 hlineto
          hintmask 1110110100000000
          -73 -4 -44 -91 vhcurveto
          -22 257 99 hlineto
          155 13 -82 -112 15 hvcurveto
          47 hlineto
          -31 241 rlineto
          -534 9 callsubr
          547 hlineto
          hintmask 0000000010000000
          hintmask 0001000000000000
          -72 748 -28 callgsubr
        </CharString>
        <CharString name="Eng">
          783 -11 126 -115 47 592 47 -37 48 hstemhm
          126 callgsubr
          296 152 hintmask 00011000
          717 343 rmoveto
          184 -114 170 -172 -61 -57 -20 -34 -44 vhcurveto
          hintmask 01101000
          43 vlineto
          -2 -24 -23 -1 -24 hhcurveto
          -41 -93 0 3 -36 hvcurveto
          -47 99 -592 -99 -47 vlineto
          3 36 93 0 41 hhcurveto
          41 93 49 callsubr
          47 -99 533 vlineto
          hintmask 10010100
          43 39 59 26 64 hhcurveto
          124 10 -162 -144 -78 0 -96 -9 -64 hvcurveto
          6 -10 -11 4 -13 hhcurveto
          -35 -28 -28 -35 -35 28 -28 35 149 46 182 172 hvcurveto
          endchar
        </CharString>
        <CharString name="Eogonek">
          656 -204 66 138 6 callsubr
          -15 callgsubr
          0 142 -71 47 0 47 -19 47 hintmask 0110110000100000
          627 274 rmoveto
          -47 hlineto
          -130 -21 -20 -97 -166 hhcurveto
          -103 282 22 hlineto
          hintmask 0000001000000000
          91 4 -44 -73 hvcurveto
          47 281 -47 hlineto
          hintmask 1111110001000000
          23 callgsubr
          hintmask 0000000100000000
          18 callgsubr
          hintmask 1100000010100000
          117 callsubr
          endchar
        </CharString>
        <CharString name="Eogonekacute">
          656 -204 66 138 6 callsubr
          79 -21 176 -20 -15 callgsubr
          0 142 -71 47 0 47 -19 47 hintmask 0110001100001000
          627 274 rmoveto
          -47 hlineto
          -130 -21 -20 -97 -166 hhcurveto
          -103 282 22 hlineto
          hintmask 0000000010000000
          91 4 -44 -73 hvcurveto
          47 281 -47 hlineto
          hintmask 1111001100010000
          23 callgsubr
          hintmask 0000000001000000
          18 callgsubr
          hintmask 1100000000101000
          117 callsubr
          hintmask 0000110000000000
          -115 841 -103 callgsubr
        </CharString>
        <CharString name="Epsilon">
          -13 callgsubr
        </CharString>
        <CharString name="Ereversed">
          -16 callsubr
          hstemhm
          34 47 -19 47 118 47 -47 142 22 142 hintmask 11101011
          627 hmoveto
          47 -94 586 94 47 -534 vlineto
          -31 -241 rlineto
          47 hlineto
          112 15 13 82 155 hhcurveto
          99 -257 -22 hlineto
          hintmask 00000100
          -91 -4 44 73 hvcurveto
          -47 -281 47 hlineto
          hintmask 11010011
          73 4 44 91 vhcurveto
          22 -282 -103 hlineto
          -166 -20 97 130 -21 hvcurveto
          -47 hlineto
          46 -274 rlineto
          endchar
        </CharString>
        <CharString name="Eta">
          783 0 47 286 47 259 47 hstem
          128 142 242 142 vstem
          -88 callsubr
          endchar
        </CharString>
        <CharString name="Eth">
          -14 callsubr
        </CharString>
        <CharString name="Etilde">
          -16 callsubr
          48 75 -44 75 -97 callsubr
          hintmask 0000100000000000
          -86 812 rmoveto
          -28 22 rlineto
          hintmask 0001000000000000
          -85 callsubr
          hintmask 0000100000000000
          6 -20 -24 8 -21 hhcurveto
          hintmask 0001000000000000
          -82 callgsubr
          hintmask 0000100000000000
          -84 callgsubr
          hintmask 0001000000000000
          -6 20 24 -8 21 hhcurveto
          hintmask 0000100000000000
          39 21 27 4 3 hvcurveto
          endchar
        </CharString>
        <CharString name="Euro">
          627 -11 48 216 48 84 48 216 48 hstem
          112 152 vstem
          571 3 rmoveto
          137 vlineto
          8 -6 6 -8 vhcurveto
          -24 hlineto
          -7 -6 -5 -7 -1 hvcurveto
          -56 -6 -38 -49 -53 hhcurveto
          -53 -47 31 47 -25 hvcurveto
          -21 39 -7 49 -3 50 rrcurveto
          191 hlineto
          108 callgsubr
          -198 42 hlineto
          42 228 vlineto
          108 callgsubr
          -231 hlineto
          3 50 7 49 21 39 rrcurveto
          47 25 47 31 53 hhcurveto
          53 38 -49 -56 6 hvcurveto
          -7 1 6 -5 7 hhcurveto
          24 hlineto
          8 6 6 8 hvcurveto
          137 vlineto
          8 -6 6 -8 vhcurveto
          -7 hlineto
          -3 -3 -1 -1 -2 hvcurveto
          -43 -28 rlineto
          19 -27 -33 11 -36 hhcurveto
          -82 -79 -34 -64 -51 hvcurveto
          -39 -48 -22 -57 -11 -61 rrcurveto
          -46 106 callgsubr
          46 hlineto
          -1 -14 0 -14 -14 vvcurveto
          -14 0 -14 1 -14 vhcurveto
          -40 106 callgsubr
          52 hlineto
          11 -61 22 -57 39 -48 rrcurveto
          -64 51 79 -34 82 hhcurveto
          36 33 11 19 27 hvcurveto
          43 -28 rlineto
          -1 2 3 -1 3 hhcurveto
          7 hlineto
          8 6 6 8 hvcurveto
          endchar
        </CharString>
        <CharString name="F">
          628 0 47 270 47 269 53 callsubr
          111 47 110 47 vstem
          585 439 rmoveto
          -31 241 rlineto
          -520 74 callsubr
          270 17 vlineto
          89 5 -41 -76 hvcurveto
          47 281 -47 hlineto
          -76 -5 -41 -89 vhcurveto
          -17 269 90 hlineto
          152 12 -84 -110 14 hvcurveto
          endchar
        </CharString>
        <CharString name="G">
          786 -11 46 callgsubr
          hintmask 01000100
          -46 callsubr
          hintmask 10111000
          -69 callsubr
          hintmask 00100100
          -61 callsubr
          hintmask 10111000
          -61 callgsubr
          hintmask 01000100
          28 callgsubr
          endchar
        </CharString>
        <CharString name="Gacute">
          34 callgsubr
          62 -21 176 -86 callsubr
          -135 612 -103 callgsubr
        </CharString>
        <CharString name="Gamma">
          600 0 47 586 53 callsubr
          vstem
          557 439 rmoveto
          -31 241 rlineto
          -492 74 callsubr
          586 72 vlineto
          143 10 -83 -111 15 hvcurveto
          endchar
        </CharString>
        <CharString name="Gbreve">
          34 callgsubr
          41 62 125 -86 callsubr
          -116 696 -101 callsubr
          endchar
        </CharString>
        <CharString name="Gcaron">
          34 callgsubr
          52 -21 165 -86 callsubr
          -98 640 -63 callgsubr
        </CharString>
        <CharString name="Gcedilla">
          786 -16 callgsubr
          22 46 callgsubr
          hintmask 00010001
          -46 callsubr
          hintmask 00101110
          -69 callsubr
          hintmask 00001001
          -61 callsubr
          hintmask 00101110
          -61 callgsubr
          hintmask 11010001
          28 callgsubr
          -210 -356 -98 callgsubr
        </CharString>
        <CharString name="Gcircumflex">
          34 callgsubr
          52 -21 165 -86 callsubr
          -98 523 -52 callsubr
        </CharString>
        <CharString name="Gcommaaccent">
          786 -16 callgsubr
          22 46 callgsubr
          hintmask 00010001
          -46 callsubr
          hintmask 00101110
          -69 callsubr
          hintmask 00001001
          -61 callsubr
          hintmask 00101110
          -61 callgsubr
          hintmask 00010001
          28 callgsubr
          hintmask 11000000
          -210 -356 -98 callgsubr
        </CharString>
        <CharString name="Gdotaccent">
          34 callgsubr
          42 156 hstemhm
          56 153 105 157 -42 142 -47 142 hintmask 01000001
          -46 callsubr
          hintmask 10101010
          -60 callsubr
          hintmask 10101010
          -46 callgsubr
          hintmask 00010100
          -195 588 rmoveto
          -100 callsubr
        </CharString>
        <CharString name="H">
          783 0 47 286 47 259 47 hstem
          128 142 242 142 vstem
          -88 callsubr
          endchar
        </CharString>
        <CharString name="H_uni0303">
          102 callgsubr
          42 124 callsubr
          242 142 hintmask 11100110
          -88 callsubr
          hintmask 00001000
          -189 812 -89 callsubr
        </CharString>
        <CharString name="Hbar">
          72 callgsubr
          111 48 100 107 callgsubr
          444 94 48 -94 100 94 47 vlineto
          -3 -35 -90 0 -40 hhcurveto
          -40 -90 0 3 -35 hvcurveto
          -47 94 -100 -242 100 94 47 vlineto
          -3 -35 -90 0 -40 hhcurveto
          -40 -90 0 3 -35 hvcurveto
          -47 94 -100 -94 -48 94 -444 -44 callsubr
          286 242 -286 -64 callgsubr
          -236 380 rmoveto
          -242 111 242 hlineto
          endchar
        </CharString>
        <CharString name="Hbrevebelow">
          783 -215 126 callsubr
          48 47 286 47 259 134 callsubr
          242 142 hintmask 00111110
          -88 callsubr
          hintmask 11000000
          -199 -28 -101 callsubr
          endchar
        </CharString>
        <CharString name="Hcircumflex">
          102 callgsubr
          100 callgsubr
          242 142 hintmask 11100110
          -88 callsubr
          hintmask 00011000
          -181 76 callgsubr
        </CharString>
        <CharString name="Hdieresis">
          102 callgsubr
          42 140 -30 callgsubr
          -101 39 callgsubr
          -104 142 hintmask 11101001
          -88 callsubr
          hintmask 00010110
          -438 798 -82 callsubr
        </CharString>
        <CharString name="Hdotbelow">
          783 16 callsubr
          286 47 259 134 callsubr
          43 157 42 142 hintmask 01111010
          -88 callsubr
          hintmask 10000100
          -278 -122 rmoveto
          -100 callsubr
        </CharString>
        <CharString name="I">
          28 callsubr
          hstem
          126 callgsubr
          vstem
          -91 callsubr
          endchar
        </CharString>
        <CharString name="I_J">
          874 -11 36 -25 47 -5 149 448 47 hstemhm
          126 callgsubr
          88 153 -142 142 113 callsubr
          hintmask 0101101100000000
          -91 callsubr
          448 11 callgsubr
          hintmask 1011001010000000
          -9 callsubr
          vhcurveto
          hintmask 1000010100000000
          -37 -40 -25 -52 -73 73 -52 103 hvcurveto
          hintmask 0001000010000000
          62 callsubr
          endchar
        </CharString>
        <CharString name="Iacute">
          28 callsubr
          73 -21 176 -20 -77 callgsubr
          hintmask 00110000
          -31 841 -103 callgsubr
        </CharString>
        <CharString name="Ibreve">
          28 callsubr
          52 126 callsubr
          -77 callgsubr
          hintmask 00110000
          -12 925 -101 callsubr
          endchar
        </CharString>
        <CharString name="Icaron">
          28 callsubr
          63 -21 165 -20 -77 callgsubr
          hintmask 00110000
          6 869 -63 callgsubr
        </CharString>
        <CharString name="Icircumflex">
          28 callsubr
          63 -21 165 -20 -77 callgsubr
          hintmask 00110000
          6 76 callgsubr
        </CharString>
        <CharString name="Idblgrave">
          28 callsubr
          73 -21 195 -20 -77 callgsubr
          hintmask 00110000
          -37 759 -94 callgsubr
        </CharString>
        <CharString name="Idieresis">
          28 callsubr
          42 140 147 callsubr
          hintmask 11001000
          -91 callsubr
          hintmask 00110100
          -251 798 -82 callsubr
        </CharString>
        <CharString name="Idieresisacute">
          28 callsubr
          42 140 73 -21 176 -20 147 callsubr
          hintmask 11000010
          -91 callsubr
          hintmask 00111101
          -251 798 rmoveto
          -103 callsubr
          306 hmoveto
          -103 callsubr
          -86 225 -103 callgsubr
        </CharString>
        <CharString name="Idotaccent">
          28 callsubr
          53 156 hstemhm
          120 157 -150 -74 callsubr
          hintmask 00110000
          -91 817 rmoveto
          -100 callsubr
        </CharString>
        <CharString name="Idotbelow">
          397 152 callgsubr
          120 157 -150 142 hintmask 01101000
          -91 callsubr
          hintmask 10010000
          -91 -122 rmoveto
          -100 callsubr
        </CharString>
        <CharString name="Igrave">
          28 callsubr
          73 -21 176 -20 -77 callgsubr
          hintmask 00111000
          -99 776 -76 callgsubr
        </CharString>
        <CharString name="Ihookabove">
          28 callsubr
          74 -21 193 -20 -77 callgsubr
          hintmask 00110000
          -72 869 -107 callgsubr
        </CharString>
        <CharString name="Imacron">
          28 callsubr
          62 52 hstemhm
          126 callgsubr
          hintmask 11010000
          -91 callsubr
          hintmask 00100000
          12 748 -28 callgsubr
        </CharString>
        <CharString name="Imacron.alt">
          28 callsubr
          62 52 hstemhm
          126 callgsubr
          hintmask 11010000
          -91 callsubr
          hintmask 00100000
          -71 748 38 callgsubr
        </CharString>
        <CharString name="Iogonek">
          397 136 callgsubr
          592 47 hstem
          126 callgsubr
          vstem
          368 hmoveto
          47 -99 592 99 47 vlineto
          -3 -36 -93 0 -41 hhcurveto
          -41 -93 0 3 -36 hvcurveto
          -47 99 -592 -99 -47 vlineto
          3 36 93 0 41 hhcurveto
          24 hlineto
          -35 -28 -34 -51 -38 -70 callsubr
          -48 -23 127 callgsubr
          11 23 19 18 22 11 rrcurveto
          29 26 -1 -1 16 hvcurveto
          endchar
        </CharString>
        <CharString name="Iogonekacute">
          397 136 callgsubr
          592 47 73 -21 176 -20 hstemhm
          126 callgsubr
          hintmask 11100100
          368 hmoveto
          47 -99 592 99 47 vlineto
          -3 -36 -93 0 -41 hhcurveto
          -41 -93 0 3 -36 hvcurveto
          -47 99 -592 -99 -47 vlineto
          3 36 93 0 41 hhcurveto
          24 hlineto
          -35 -28 -34 -51 -38 -70 callsubr
          -48 -23 127 callgsubr
          11 23 19 18 22 11 rrcurveto
          29 26 -1 -1 16 hvcurveto
          hintmask 00011000
          -31 841 -103 callgsubr
        </CharString>
        <CharString name="Iota">
          28 callsubr
          hstem
          126 callgsubr
          vstem
          -91 callsubr
          endchar
        </CharString>
        <CharString name="Itilde">
          28 callsubr
          42 75 -44 75 -77 callgsubr
          hintmask 00010000
          -2 812 -69 callgsubr
        </CharString>
        <CharString name="J">
          101 callsubr
          100 callsubr
          hintmask 00101000
          459 11 callgsubr
          hintmask 11110100
          -9 callsubr
          -37 -40 -25 -52 vhcurveto
          hintmask 10001000
          -73 73 -52 103 vhcurveto
          hintmask 00100100
          62 callsubr
          endchar
        </CharString>
        <CharString name="J_uni030C.cap">
          516.66667 -11 36 17 149 254 -21 145 117 -47 47 100 callsubr
          hintmask 00001010
          459 11 callgsubr
          hintmask 11001101
          -9 callsubr
          -37 -40 -25 -52 vhcurveto
          hintmask 10000010
          -73 73 -52 103 vhcurveto
          hintmask 00001001
          62 callsubr
          234 -47 rmoveto
          51 -24 43 -44 -34 -24 -26 -32 vhcurveto
          hintmask 00110000
          -30 21 -29 38 19 14 8 6 6 vhcurveto
          -4 -72 -40 -43 -19 -17 rrcurveto
          -8 -6 -1 -2 -4 vvcurveto
          -7 8 -8 6 11 75 66 102 vhcurveto
          endchar
        </CharString>
        <CharString name="Jacute">
          101 callsubr
          73 -21 176 -4 callsubr
          44 202 -103 callgsubr
        </CharString>
        <CharString name="Jcircumflex">
          101 callsubr
          63 -21 165 -4 callsubr
          81 113 -52 callsubr
        </CharString>
        <CharString name="K">
          783 0 47 592 53 callsubr
          94 142 vstem
          -83 callsubr
          endchar
        </CharString>
        <CharString name="Kappa">
          783 0 47 592 53 callsubr
          94 142 vstem
          -83 callsubr
          endchar
        </CharString>
        <CharString name="Kcedilla">
          783 129 callsubr
          hstem
          128 142 94 142 vstem
          -83 callsubr
          -286 -127 -98 callgsubr
        </CharString>
        <CharString name="Kcommaaccent">
          783 129 callsubr
          hstemhm
          128 142 94 142 hintmask 00111100
          -83 callsubr
          hintmask 11000100
          -286 -127 -98 callgsubr
        </CharString>
        <CharString name="L">
          149 callgsubr
          hstem
          128 142 vstem
          -78 callgsubr
          endchar
        </CharString>
        <CharString name="L_uni0303">
          149 callgsubr
          42 124 callsubr
          hintmask 11100100
          -78 callgsubr
          hintmask 00001000
          -156 812 -54 callsubr
          hintmask 00010000
          -82 callgsubr
          hintmask 00001100
          -84 callgsubr
          hintmask 00010000
          -6 20 24 -8 21 hhcurveto
          hintmask 00001000
          39 21 27 4 3 hvcurveto
          endchar
        </CharString>
        <CharString name="Lacute">
          149 callgsubr
          73 -21 176 -20 -30 callgsubr
          hintmask 11100100
          -78 callgsubr
          hintmask 00011000
          -185 841 -103 callgsubr
        </CharString>
        <CharString name="Lambda">
          700 0 47 651 -20 hstem
          664 hmoveto
          47 -74 vlineto
          -204 626 rlineto
          25 -8 -13 0 -15 hhcurveto
          -16 -13 0 -25 -8 hvcurveto
          -196 -603 rlineto
          -16 -5 -2 -7 -75 hhcurveto
          -47 vlineto
          2 31 35 1 31 hhcurveto
          117 -3 rlineto
          47 vlineto
          -20 -33 0 10 -27 hvcurveto
          134 412 137 -422 rlineto
          -84 -47 hlineto
          3 36 87 0 41 hhcurveto
          40 67 0 -3 37 hvcurveto
          endchar
        </CharString>
        <CharString name="Lcaron">
          112 callgsubr
          191 -21 145 117 -47 134 callsubr
          hintmask 11001100
          -78 callgsubr
          44 592 rmoveto
          51 -24 43 -44 -34 -24 -26 -32 vhcurveto
          hintmask 00110000
          -30 21 -29 38 19 14 8 6 6 vhcurveto
          -4 -72 -40 -43 -19 -17 rrcurveto
          -8 -6 -1 -2 -4 vvcurveto
          -7 8 -8 6 11 75 66 102 vhcurveto
          endchar
        </CharString>
        <CharString name="Lcedilla">
          600 13 callgsubr
          227 -20 385 53 callsubr
          vstem
          -78 callgsubr
          -163 -127 -98 callgsubr
        </CharString>
        <CharString name="Lcommaaccent">
          600 13 callgsubr
          227 -20 385 134 callsubr
          hintmask 00111100
          -78 callgsubr
          hintmask 11000000
          -163 -127 -98 callgsubr
        </CharString>
        <CharString name="Ldot">
          112 callgsubr
          96 156 133 53 callsubr
          150 157 vstem
          -78 callgsubr
          51 428 rmoveto
          -100 callsubr
        </CharString>
        <CharString name="Ldotbelow">
          600 16 callsubr
          227 -20 385 134 callsubr
          -49 157 hintmask 01111000
          -78 callgsubr
          hintmask 10000100
          -148 -122 rmoveto
          -100 callsubr
        </CharString>
        <CharString name="Ldotbelowmacron">
          600 16 callsubr
          227 -20 385 47 62 52 -30 callgsubr
          -49 157 hintmask 11110100
          -78 callgsubr
          -148 -122 rmoveto
          -32 callsubr
          vhcurveto
          hintmask 10000010
          -47 -32 -38 -40 -42 35 -36 43 47 32 38 40 hvcurveto
          hintmask 00001000
          14 870 -28 callgsubr
        </CharString>
        <CharString name="Lslash">
          600 50 callsubr
          hstem
          141 142 vstem
          570 274 rmoveto
          -47 hlineto
          -72 -7 -17 -155 -150 hhcurveto
          -66 340 hlineto
          173 145 -33 36 -140 -117 rlineto
          188 118 47 vlineto
          -3 -41 -99 0 -45 hhcurveto
          -40 -94 0 3 -35 hvcurveto
          -47 94 -311 vlineto
          -84 -71 31 -37 53 46 rlineto
          -219 -94 -47 492 vlineto
          endchar
        </CharString>
        <CharString name="M">
          -41 callgsubr
        </CharString>
        <CharString name="Mdotbelow">
          950 16 callsubr
          -44 47 563 47 -21 47 hstemhm
          128 53 215 157 143 125 hintmask 01001001
          915 141 callgsubr
          -208 vlineto
          -21 -11 0 -25 -9 hvcurveto
          -191 -503 rlineto
          hintmask 00010000
          -191 502 rlineto
          hintmask 00101100
          23 -9 -5 3 -27 hhcurveto
          -209 -47 94 -563 hlineto
          -22 0 -1 -24 -3 vhcurveto
          hintmask 01000000
          5 callgsubr
          hintmask 00100000
          120 3 rlineto
          hintmask 01000000
          18 callsubr
          hintmask 00110100
          -21 -21 2 1 -7 hvcurveto
          -25 3 0 1 22 vvcurveto
          537 1 vlineto
          224 -588 rlineto
          hintmask 01000001
          -13 5 4 -12 21 hhcurveto
          20 4 13 12 5 hvcurveto
          230 604 rlineto
          1 -582 -94 -47 hlineto
          hintmask 00100000
          114 callgsubr
          hintmask 01000000
          39 83 0 -3 35 hvcurveto
          hintmask 10000010
          -362 -122 rmoveto
          -100 callsubr
        </CharString>
        <CharString name="Mu">
          -41 callgsubr
        </CharString>
        <CharString name="N">
          -40 callgsubr
        </CharString>
        <CharString name="Nacute">
          17 callsubr
          73 -21 176 -20 -75 callgsubr
          hintmask 0000011000000000
          -198 202 -103 callgsubr
        </CharString>
        <CharString name="Ncaron">
          17 callsubr
          63 -21 165 -20 -75 callgsubr
          hintmask 0000011000000000
          -161 230 -63 callgsubr
        </CharString>
        <CharString name="Ncedilla">
          -43 callgsubr
          hintmask 1100001000000000
          3 22 21 0 7 hhcurveto
          -273 -766 -98 callgsubr
        </CharString>
        <CharString name="Ncommaaccent">
          -43 callgsubr
          hintmask 0000001000000000
          3 22 21 0 7 hhcurveto
          hintmask 1100000000000000
          -273 -766 -98 callgsubr
        </CharString>
        <CharString name="Ndotaccent">
          17 callsubr
          42 156 hstemhm
          128 53 132 157 131 53 hintmask 0000100000000000
          748 639 rmoveto
          47 vlineto
          hintmask 0001000000000000
          -120 -3 rlineto
          hintmask 0110101010000000
          -54 callgsubr
          hintmask 0110001000000000
          -21 -21 2 1 -7 hvcurveto
          -25 3 0 1 22 vvcurveto
          513 vlineto
          419 -576 rlineto
          hintmask 1001000010000000
          -13 9 5 0 13 hhcurveto
          27 0 9 23 hvcurveto
          578 vlineto
          22 0 1 24 3 vhcurveto
          hintmask 0000100000000000
          3 22 21 0 7 hhcurveto
          hintmask 0000010100000000
          -258 167 rmoveto
          -100 callsubr
        </CharString>
        <CharString name="Ndotbelow">
          783 -200 156 44 35 callsubr
          hstemhm
          128 53 132 157 131 53 hintmask 0000010000000000
          748 639 rmoveto
          47 vlineto
          hintmask 0000100000000000
          -120 -3 rlineto
          hintmask 0011011010000000
          -80 callgsubr
          hintmask 0100000000000000
          5 callgsubr
          hintmask 0010000000000000
          120 3 rlineto
          hintmask 0100000000000000
          18 callsubr
          hintmask 0011001000000000
          -21 -21 2 1 -7 hvcurveto
          -25 3 0 1 22 vvcurveto
          513 vlineto
          419 -576 rlineto
          hintmask 0100100010000000
          -13 9 5 0 13 hhcurveto
          27 0 9 23 hvcurveto
          578 vlineto
          22 0 1 24 3 vhcurveto
          hintmask 0000010000000000
          3 22 21 0 7 hhcurveto
          hintmask 1000000100000000
          -258 -761 rmoveto
          -100 callsubr
        </CharString>
        <CharString name="Ntilde">
          17 callsubr
          42 75 -44 75 -75 callgsubr
          hintmask 0000001000000000
          -169 173 -35 callgsubr
        </CharString>
        <CharString name="Nu">
          -40 callgsubr
        </CharString>
        <CharString name="O">
          12 callgsubr
          hstem
          56 153 331 153 vstem
          -106 callsubr
          endchar
        </CharString>
        <CharString name="OE">
          -48 callsubr
        </CharString>
        <CharString name="OE.dup">
          -48 callsubr
        </CharString>
        <CharString name="Oacute">
          12 callgsubr
          62 -21 176 -97 callgsubr
          -27 488 -103 callgsubr
        </CharString>
        <CharString name="Obreve">
          12 callgsubr
          41 62 125 -97 callgsubr
          -8 572 -101 callsubr
          endchar
        </CharString>
        <CharString name="Ocaron">
          12 callgsubr
          52 -21 165 -75 callsubr
          516 -63 callgsubr
        </CharString>
        <CharString name="Ocircumflex">
          12 callgsubr
          52 -21 165 -75 callsubr
          399 -52 callsubr
        </CharString>
        <CharString name="Ocircumflexacute">
          12 callgsubr
          52 -21 376 -75 callsubr
          399 -95 callsubr
          -56 303 -103 callgsubr
        </CharString>
        <CharString name="Ocircumflexdotbelow">
          750 26 callsubr
          33 42 626 40 110 callgsubr
          87 157 87 153 hintmask 01111101
          -106 callsubr
          10 399 -95 callsubr
          hintmask 10000010
          -81 -850 rmoveto
          -100 callsubr
        </CharString>
        <CharString name="Ocircumflexgrave">
          12 callgsubr
          52 -21 165 -75 callsubr
          399 -77 callsubr
        </CharString>
        <CharString name="Ocircumflexhookabove">
          12 callgsubr
          52 -21 373 -75 callsubr
          399 -95 callsubr
          35 310 -107 callgsubr
        </CharString>
        <CharString name="Ocircumflextilde">
          12 callgsubr
          52 -21 220 145 callsubr
          56 153 331 153 hintmask 11000110
          -106 callsubr
          hintmask 00101000
          10 399 rmoveto
          -175 141 -175 -141 14 -24 160 58 160 -58 rlineto
          8 304 -54 callsubr
          hintmask 00010100
          -82 callgsubr
          hintmask 00001000
          -84 callgsubr
          hintmask 00010000
          -6 20 24 -8 21 hhcurveto
          hintmask 00001000
          39 21 27 4 3 hvcurveto
          endchar
        </CharString>
        <CharString name="Odblgrave">
          12 callgsubr
          62 -21 195 -97 callgsubr
          -33 406 -94 callgsubr
        </CharString>
        <CharString name="Odieresis">
          12 callgsubr
          31 140 hstemhm
          56 153 -57 39 callgsubr
          -59 153 hintmask 11010010
          -106 callsubr
          hintmask 00101100
          -247 445 -82 callsubr
        </CharString>
        <CharString name="Odotbelow">
          750 26 callsubr
          33 42 626 40 hstemhm
          56 153 87 157 87 153 hintmask 01110100
          -106 callsubr
          hintmask 10001000
          -87 -475 rmoveto
          -100 callsubr
        </CharString>
        <CharString name="Ograve">
          12 callgsubr
          62 -21 176 -97 callgsubr
          -95 423 -76 callgsubr
        </CharString>
        <CharString name="Ohookabove">
          12 callgsubr
          63 -21 193 -97 callgsubr
          -68 516 -107 callgsubr
        </CharString>
        <CharString name="Ohorn">
          61 callsubr
          122 -20 42 callsubr
          hintmask 01010010
          -55 callsubr
          hintmask 10101110
          -87 callsubr
          endchar
        </CharString>
        <CharString name="Ohornacute">
          61 callsubr
          62 -21 81 -20 115 -20 42 callsubr
          hintmask 0101100010000000
          -55 callsubr
          hintmask 1010001110000000
          -87 callsubr
          hintmask 0001010000000000
          -55 484 -103 callgsubr
        </CharString>
        <CharString name="Ohorndotbelow">
          750 26 callsubr
          33 42 613 42 -29 40 122 -20 hstemhm
          55 153 38 128 -78 157 87 128 hintmask 0010100010000000
          -55 callsubr
          hintmask 0101011010000000
          -87 callsubr
          hintmask 1000000100000000
          -87 -479 rmoveto
          -32 callsubr
          -47 -32 -38 -40 vhcurveto
          hintmask 1000001000000000
          -42 35 -36 43 vhcurveto
          hintmask 0000000100000000
          47 32 38 40 hvcurveto
          endchar
        </CharString>
        <CharString name="Ohorngrave">
          61 callsubr
          62 -21 81 -20 115 -20 42 callsubr
          hintmask 0101100010000000
          -55 callsubr
          hintmask 1010001110000000
          -87 callsubr
          hintmask 0001010000000000
          -95 419 -76 callgsubr
        </CharString>
        <CharString name="Ohornhookabove">
          61 callsubr
          63 -21 80 -20 133 -20 42 callsubr
          hintmask 0100100010000000
          -55 callsubr
          hintmask 1010001110000000
          -87 callsubr
          hintmask 0001010000000000
          -68 512 -107 callgsubr
        </CharString>
        <CharString name="Ohorntilde">
          61 callsubr
          31 75 -44 75 42 callsubr
          hintmask 01000001
          -55 callsubr
          hintmask 10100111
          -87 callsubr
          hintmask 00001000
          2 455 -89 callsubr
        </CharString>
        <CharString name="Ohungarumlaut">
          12 callgsubr
          62 -21 195 -97 callgsubr
          -154 521 -81 callsubr
        </CharString>
        <CharString name="Omacron">
          12 callgsubr
          51 52 hstemhm
          56 153 331 153 hintmask 11011000
          -106 callsubr
          hintmask 00100000
          16 395 -28 callgsubr
        </CharString>
        <CharString name="Omega">
          -42 callgsubr
        </CharString>
        <CharString name="Omicron">
          12 callgsubr
          hstem
          56 153 331 153 vstem
          -106 callsubr
          endchar
        </CharString>
        <CharString name="Oogonek">
          750 -50 40 1 40 626 40 hstem
          56 153 136 153 42 153 vstem
          -31 callsubr
          endchar
        </CharString>
        <CharString name="Oogonekacute">
          750 -50 40 1 40 626 40 110 callsubr
          136 153 42 153 hintmask 11100111
          -31 callsubr
          hintmask 00011000
          -27 488 -103 callgsubr
        </CharString>
        <CharString name="Orogate">
          750 56 153 148 36 147 153 vstem
          693 339 rmoveto
          229 -135 120 -165 9 vhcurveto
          184 -36 -184 vlineto
          -171 -9 -130 -126 -223 vvcurveto
          -223 135 -119 166 -8 vhcurveto
          -183 36 183 vlineto
          172 9 128 125 216 vvcurveto
          -153 14 rmoveto
          -79 -1 -68 -29 -72 vhcurveto
          -63 -26 -53 -40 -56 hhcurveto
          -60 -48 41 58 -26 hvcurveto
          -31 70 -1 79 74 vvcurveto
          64 0 75 28 65 vhcurveto
          74 33 57 26 47 hhcurveto
          57 54 -36 -68 28 hvcurveto
          26 -63 1 -64 -73 vvcurveto
          endchar
        </CharString>
        <CharString name="Oslash">
          58 callgsubr
          hstem
          56 142 381 142 vstem
          -64 callsubr
          endchar
        </CharString>
        <CharString name="Oslash.dup">
          58 callgsubr
          hstem
          56 142 381 142 vstem
          -64 callsubr
          endchar
        </CharString>
        <CharString name="Oslashacute">
          58 callgsubr
          34 133 callsubr
          142 381 142 hintmask 1111110011000000
          -64 callsubr
          hintmask 0000001100000000
          -52 501 -103 callgsubr
        </CharString>
        <CharString name="Otilde">
          12 callgsubr
          31 75 -44 75 -99 callsubr
          hintmask 00010000
          2 459 rmoveto
          -28 22 rlineto
          hintmask 00100000
          -85 callsubr
          hintmask 00010000
          6 -20 -24 8 -21 hhcurveto
          hintmask 00101000
          -51 callsubr
        </CharString>
        <CharString name="P">
          -13 callsubr
        </CharString>
        <CharString name="Phi">
          722 0 47 104 43 298 43 104 47 hstem
          56 147 87 131 97 147 vstem
          665 343 rmoveto
          83 -70 92 -174 15 vhcurveto
          106 88 callgsubr
          -107 vlineto
          -151 -15 -83 -82 -92 vvcurveto
          -93 85 -81 149 -15 vhcurveto
          84 callsubr
          106 vlineto
          176 16 68 93 81 vvcurveto
          -375 -149 rmoveto
          -87 24 0 64 61 vvcurveto
          61 0 64 87 24 vhcurveto
          228 -149 rmoveto
          -61 0 -70 -97 -20 vhcurveto
          302 vlineto
          97 -20 0 -70 -61 vvcurveto
          endchar
        </CharString>
        <CharString name="Pi">
          783 0 47 586 107 callgsubr
          586 94 47 -714 -47 94 -586 -44 callsubr
          586 242 -586 -64 callgsubr
          endchar
        </CharString>
        <CharString name="Psi">
          778 0 47 107 47 308 38 92 47 hstem
          101 131 86 131 96 131 vstem
          721 529 rmoveto
          18 -17 0 -15 vhcurveto
          -72 hlineto
          -50 -22 -24 -98 -67 0 -119 -96 -40 hvcurveto
          440 88 callgsubr
          -438 vlineto
          -76 36 -10 98 74 vvcurveto
          79 -2 59 -70 vhcurveto
          -72 hlineto
          -15 -17 0 -18 -14 11 -2 11 -3 hvcurveto
          23 -4 0 -53 -37 vvcurveto
          1 -149 67 -92 149 -21 rrcurveto
          84 callsubr
          107 vlineto
          185 21 41 127 1 118 rrcurveto
          40 0 47 25 4 vhcurveto
          7 1 13 2 15 vvcurveto
          endchar
        </CharString>
        <CharString name="Q">
          750 -194 153 30 40 90 36 502 40 hstemhm
          56 147 84 36 223 147 -30 36 hintmask 10000001
          699 -10 rmoveto
          10 0 18 -18 -15 -2 -13 -8 -1 vhcurveto
          -33 -5 -47 -5 -19 hhcurveto
          -19 -27 0 59 -32 hvcurveto
          hintmask 11011010
          151 70 28 153 98 vvcurveto
          237 -145 121 -173 -180 -139 -127 -231 -227 139 -123 180 41 37 8 1 3 vhcurveto
          -103 14 13 -89 95 hhcurveto
          hintmask 00111101
          110 11 148 36 hvcurveto
          -153 350 rmoveto
          -73 0 -121 -65 -68 vhcurveto
          41 -23 -32 36 -51 hhcurveto
          -50 -38 -37 -45 0 0 -9 1 -4 hvcurveto
          -80 63 -5 113 104 vvcurveto
          53 0 76 23 65 vhcurveto
          102 37 70 21 41 hhcurveto
          54 60 -33 -82 32 hvcurveto
          hintmask 01100110
          24 -62 2 -66 -74 vvcurveto
          -100 -291 rmoveto
          -12 -19 -27 -8 -25 hhcurveto
          -48 -4 35 9 23 20 23 33 39 21 -25 -45 10 hvcurveto
          endchar
        </CharString>
        <CharString name="R">
          -95 callgsubr
          endchar
        </CharString>
        <CharString name="Racute">
          -95 callgsubr
          hintmask 11100000
          37 341 -103 callgsubr
        </CharString>
        <CharString name="Rcaron">
          -95 callgsubr
          hintmask 11100000
          74 369 -63 callgsubr
        </CharString>
        <CharString name="Rcedilla">
          -95 callgsubr
          -38 -627 -98 callgsubr
        </CharString>
        <CharString name="Rcommaaccent">
          -95 callgsubr
          hintmask 11100000
          -38 -627 -98 callgsubr
        </CharString>
        <CharString name="Rdblgrave">
          -95 callgsubr
          hintmask 11100000
          3 259 -94 callgsubr
        </CharString>
        <CharString name="Rdotaccent">
          -76 callsubr
          hintmask 11100010
          135 0 -68 -71 hvcurveto
          hintmask 11101000
          -23 317 rmoveto
          -100 callsubr
        </CharString>
        <CharString name="Rdotbelow">
          -76 callsubr
          hintmask 11100010
          135 0 -68 -71 hvcurveto
          hintmask 11101000
          -23 -622 rmoveto
          -100 callsubr
        </CharString>
        <CharString name="Rdotbelowmacron">
          -76 callsubr
          hintmask 11101010
          135 0 -68 -71 hvcurveto
          -23 -622 93 callsubr
          hintmask 11100000
          103 870 -28 callgsubr
        </CharString>
        <CharString name="Rho">
          -13 callsubr
        </CharString>
        <CharString name="S">
          111 callsubr
          hstem
          56 97 249 97 vstem
          499 203 rmoveto
          -101 callgsubr
          28 28 rlineto
          -44 58 70 -7 39 hhcurveto
          130 67 96 118 hvcurveto
          endchar
        </CharString>
        <CharString name="S_S">
          1111 -11 47 618 43 hstem
          56 97 249 97 113 97 249 97 vstem
          499 203 rmoveto
          -101 callgsubr
          28 28 rlineto
          -44 58 70 -7 39 hhcurveto
          130 67 96 118 hvcurveto
          556 hmoveto
          -101 callgsubr
          28 28 rlineto
          -44 58 70 -7 39 hhcurveto
          130 67 96 118 hvcurveto
          endchar
        </CharString>
        <CharString name="Sacute">
          111 callsubr
          139 callsubr
          97 249 97 hintmask 11001100
          499 203 rmoveto
          -101 callgsubr
          28 28 rlineto
          -44 58 70 -7 39 hhcurveto
          130 67 96 118 hvcurveto
          hintmask 00110000
          -83 638 -103 callgsubr
        </CharString>
        <CharString name="Scaron">
          111 callsubr
          141 callsubr
          97 249 97 hintmask 11001100
          499 203 rmoveto
          -101 callgsubr
          28 28 rlineto
          -44 58 70 -7 39 hhcurveto
          130 67 96 118 hvcurveto
          hintmask 00110000
          -46 666 -63 callgsubr
        </CharString>
        <CharString name="Scedilla">
          556 -11 47 -39 43 614 43 hstemhm
          56 97 39 97 113 97 hintmask 10111100
          499 203 rmoveto
          -101 callgsubr
          hintmask 01001100
          28 28 30 -23 34 -13 31 -7 rlinecurve
          -78 vlineto
          27 27 -12 -23 -36 -64 0 -52 hvcurveto
          -24 -48 48 hlineto
          102 118 0 84 46 -39 37 -47 hvcurveto
          23 vlineto
          114 11 59 91 111 vvcurveto
          endchar
        </CharString>
        <CharString name="Scircumflex">
          111 callsubr
          141 callsubr
          97 249 97 hintmask 11001100
          499 203 rmoveto
          -101 callgsubr
          28 28 rlineto
          -44 58 70 -7 39 hhcurveto
          130 67 96 118 hvcurveto
          hintmask 00110000
          -46 549 -52 callsubr
        </CharString>
        <CharString name="Sdotbelow">
          556 26 callsubr
          33 47 618 43 hstemhm
          56 97 46 157 46 97 hintmask 01110100
          499 203 rmoveto
          -101 callgsubr
          28 28 rlineto
          -44 58 70 -7 39 hhcurveto
          130 67 96 118 hvcurveto
          hintmask 10001000
          -143 -325 rmoveto
          -100 callsubr
        </CharString>
        <CharString name="Sigma">
          722 0 66 573 47 hstem
          56 609 vstem
          665 260 rmoveto
          -47 hlineto
          -150 -18 -56 -44 -153 hhcurveto
          -219 hlineto
          257 256 rlineto
          14 13 0 2 6 vvcurveto
          5 -3 5 -5 8 vhcurveto
          -196 278 rlineto
          156 hlineto
          154 50 -49 -145 19 hvcurveto
          47 hlineto
          -31 241 rlineto
          -546 hlineto
          -20 -12 0 -24 -8 0 -3 9 -13 hvcurveto
          251 -355 -248 -246 rlineto
          -9 -9 -3 -3 -7 vvcurveto
          -18 17 0 15 vhcurveto
          546 hlineto
          endchar
        </CharString>
        <CharString name="T">
          90 callgsubr
          hstem
          276 142 vstem
          -83 callgsubr
          endchar
        </CharString>
        <CharString name="T_uni0303">
          90 callgsubr
          53 145 callsubr
          276 142 hintmask 11001000
          -83 callgsubr
          hintmask 00010000
          -96 378 -69 callgsubr
        </CharString>
        <CharString name="T_uni0308">
          90 callgsubr
          53 140 hstemhm
          124 141 11 142 12 141 hintmask 11001000
          -83 callgsubr
          hintmask 00110100
          -345 364 -82 callsubr
        </CharString>
        <CharString name="Tau">
          90 callgsubr
          hstem
          276 142 vstem
          -83 callgsubr
          endchar
        </CharString>
        <CharString name="Tcaron">
          90 callgsubr
          74 143 callsubr
          276 142 hintmask 11001000
          -83 callgsubr
          hintmask 00110000
          -88 435 -63 callgsubr
        </CharString>
        <CharString name="Tcedilla">
          694 -200 48 71 48 33 47 581 47 hstemhm
          276 142 -119 96 -42 128 hintmask 00111000
          657 434 rmoveto
          -21 241 rlineto
          -579 hlineto
          -21 -241 rlineto
          47 hlineto
          110 9 7 84 128 hhcurveto
          49 -581 -134 -47 hlineto
          hintmask 01000100
          2 36 67 1 54 hhcurveto
          -84 vlineto
          hintmask 10000010
          -11 callgsubr
          hvcurveto
          hintmask 01100100
          46 -39 37 -47 vhcurveto
          36 vlineto
          54 67 -1 -2 36 hvcurveto
          47 vlineto
          hintmask 00111000
          -134 581 48 hlineto
          128 7 -83 -111 9 hvcurveto
          endchar
        </CharString>
        <CharString name="Tdotbelow">
          694 16 callsubr
          581 47 hstemhm
          268 157 -149 142 hintmask 01101000
          -83 callgsubr
          hintmask 10010000
          -185 -556 rmoveto
          -100 callsubr
        </CharString>
        <CharString name="Theta">
          778 -11 38 257 121 256 36 hstem
          56 142 57 47 173 47 57 142 vstem
          721 340 rmoveto
          226 -142 131 -190 -197 -136 -137 -220 -226 143 -125 190 186 146 123 228 vhcurveto
          -142 hmoveto
          -67 -1 -86 -41 -72 vhcurveto
          -61 -36 -60 -27 -52 hhcurveto
          -52 -61 25 68 -38 hvcurveto
          -38 68 -2 85 67 vvcurveto
          95 6 64 34 66 vhcurveto
          56 29 57 40 64 hhcurveto
          32 76 -8 -99 49 hvcurveto
          33 -67 1 -90 -57 vvcurveto
          -57 -90 rmoveto
          189 -47 -34 -173 34 -47 -189 47 34 173 -34 vlineto
          endchar
        </CharString>
        <CharString name="Thorn">
          628 0 47 131 47 292 47 75 47 hstem
          128 131 166 147 vstem
          572 371 rmoveto
          107 -69 86 -136 vhcurveto
          -108 75 94 47 hlineto
          -159 -3 -160 3 rlineto
          -47 94 -592 -94 -47 vlineto
          159 3 160 -3 rlineto
          47 -94 131 99 vlineto
          177 37 119 74 hvcurveto
          -147 1 rmoveto
          -32 -5 -35 -12 -29 vhcurveto
          -51 -24 -35 0 -24 hhcurveto
          -66 292 83 hlineto
          23 23 0 -46 20 hvcurveto
          17 -38 0 -54 -7 vvcurveto
          endchar
        </CharString>
        <CharString name="Tlinebelow">
          694 -148 52 96 47 581 47 hstemhm
          276 142 hintmask 01110000
          -83 callgsubr
          hintmask 10000000
          -82 -582 -28 callgsubr
        </CharString>
        <CharString name="U">
          769 -11 89 callgsubr
          317 53 hintmask 00100000
          734 639 rmoveto
          47 vlineto
          hintmask 01000000
          -120 -3 rlineto
          hintmask 00100000
          -121 3 rlineto
          -47 20 vlineto
          hintmask 11011000
          -85 callgsubr
          hintmask 00110000
          429 94 47 vlineto
          hintmask 01000000
          -3 -35 -90 0 -40 hhcurveto
          hintmask 10111000
          -40 -90 0 3 -35 hvcurveto
          125 callgsubr
          -136 102 -104 174 154 82 107 131 vhcurveto
          383 vlineto
          hintmask 01000000
          22 0 1 24 3 vhcurveto
          hintmask 00100000
          133 callgsubr
        </CharString>
        <CharString name="U_uni032F">
          769 -194 152 callsubr
          17 89 callgsubr
          317 53 hintmask 00001000
          734 639 rmoveto
          47 vlineto
          hintmask 00010000
          -120 -3 rlineto
          hintmask 00001000
          -121 3 rlineto
          -47 20 vlineto
          hintmask 00110110
          -85 callgsubr
          hintmask 00001100
          429 94 47 vlineto
          hintmask 00010000
          -3 -35 -90 0 -40 hhcurveto
          hintmask 00101110
          -40 -90 0 3 -35 hvcurveto
          125 callgsubr
          -136 102 -104 174 154 82 107 131 vhcurveto
          383 vlineto
          hintmask 00010000
          22 0 1 24 3 vhcurveto
          hintmask 00001000
          3 22 21 0 7 hhcurveto
          hintmask 11000000
          -149 -854 -50 callgsubr
        </CharString>
        <CharString name="Uacute">
          -17 callsubr
          73 -21 176 -20 -98 callsubr
          hintmask 00011000
          -168 202 -103 callgsubr
        </CharString>
        <CharString name="Ubreve">
          -17 callsubr
          52 126 callsubr
          -98 callsubr
          hintmask 00011000
          -149 286 -101 callsubr
          endchar
        </CharString>
        <CharString name="Ucaron">
          -17 callsubr
          63 -21 165 -20 -98 callsubr
          hintmask 00011000
          -131 230 -63 callgsubr
        </CharString>
        <CharString name="Ucircumflex">
          -17 callsubr
          63 -21 165 -20 -98 callsubr
          hintmask 00011000
          -131 113 -52 callsubr
        </CharString>
        <CharString name="Udblgrave">
          -17 callsubr
          73 -21 195 -20 -98 callsubr
          hintmask 00011000
          -174 120 -94 callgsubr
        </CharString>
        <CharString name="Udieresis">
          -17 callsubr
          42 140 -30 callgsubr
          -85 39 callgsubr
          -45 53 hintmask 00100000
          734 639 rmoveto
          47 vlineto
          hintmask 01000000
          -120 -3 rlineto
          hintmask 00100000
          -121 3 rlineto
          -47 20 vlineto
          hintmask 11001001
          -85 callgsubr
          hintmask 00101000
          429 94 47 vlineto
          hintmask 01000000
          -3 -35 -90 0 -40 hhcurveto
          hintmask 10101001
          -40 -90 0 3 -35 hvcurveto
          125 callgsubr
          -136 102 -104 174 154 82 107 131 vhcurveto
          383 vlineto
          hintmask 01000000
          22 0 1 24 3 vhcurveto
          hintmask 00100000
          3 22 21 0 7 hhcurveto
          hintmask 00010110
          -24 callsubr
          endchar
        </CharString>
        <CharString name="Udieresisacute">
          -17 callsubr
          42 140 73 -21 176 -68 callsubr
          hintmask 0001110110000000
          -24 callsubr
          -86 225 -103 callgsubr
        </CharString>
        <CharString name="Udieresiscaron">
          -17 callsubr
          42 140 63 -21 165 -68 callsubr
          hintmask 0001110110000000
          -24 callsubr
          -49 253 -63 callgsubr
        </CharString>
        <CharString name="Udieresisgrave">
          -17 callsubr
          42 140 73 -21 176 -68 callsubr
          hintmask 0001010110000000
          -24 callsubr
          -154 160 rmoveto
          -105 116 rlineto
          13 -12 -13 9 -18 hhcurveto
          hintmask 0000101000000000
          -39 -28 -35 -38 7 hvcurveto
          5 -27 22 -10 13 -6 142 -60 rcurveline
          endchar
        </CharString>
        <CharString name="Udotbelow">
          769 26 callsubr
          33 89 callgsubr
          59 157 101 53 hintmask 00010000
          734 639 rmoveto
          47 vlineto
          hintmask 00100000
          -120 -3 rlineto
          hintmask 00010000
          -121 3 rlineto
          -47 20 vlineto
          hintmask 01101010
          -85 callgsubr
          hintmask 00011000
          429 94 47 vlineto
          hintmask 00100000
          -3 -35 -90 0 -40 hhcurveto
          hintmask 01011010
          -40 -90 0 3 -35 hvcurveto
          125 callgsubr
          -136 102 -104 174 154 82 107 131 vhcurveto
          383 vlineto
          hintmask 00100000
          22 0 1 24 3 vhcurveto
          hintmask 00010000
          3 22 21 0 7 hhcurveto
          hintmask 10000100
          -228 -761 rmoveto
          -100 callsubr
        </CharString>
        <CharString name="Ugrave">
          -17 callsubr
          73 -21 176 -20 -98 callsubr
          hintmask 00011100
          -236 137 -76 callgsubr
        </CharString>
        <CharString name="Uhookabove">
          -17 callsubr
          74 -21 193 -20 -98 callsubr
          hintmask 00011000
          -209 230 -107 callgsubr
        </CharString>
        <CharString name="Uhorn">
          47 callsubr
          hstem
          126 callgsubr
          137 133 48 53 6 133 cntrmask 11100000
          -92 callsubr
          endchar
        </CharString>
        <CharString name="Uhornacute">
          47 callsubr
          hstemhm
          126 callgsubr
          137 133 48 53 6 133 cntrmask 11100000
          -92 callsubr
          hintmask 11100000
          -261 105 -103 callgsubr
        </CharString>
        <CharString name="Uhorndotbelow">
          47 callsubr
          hstemhm
          126 callgsubr
          37 157 -57 133 48 53 6 133 cntrmask 11100000
          hintmask 11110111
          -92 callsubr
          hintmask 11101000
          -316 -858 rmoveto
          -100 callsubr
        </CharString>
        <CharString name="Uhorngrave">
          47 callsubr
          hstemhm
          126 callgsubr
          137 133 48 53 6 133 cntrmask 11100000
          -92 callsubr
          hintmask 11100000
          -301 40 -76 callgsubr
        </CharString>
        <CharString name="Uhornhookabove">
          47 callsubr
          hstemhm
          126 callgsubr
          137 133 48 53 6 133 cntrmask 11100000
          -92 callsubr
          hintmask 11100000
          -274 133 -107 callgsubr
        </CharString>
        <CharString name="Uhorntilde">
          47 callsubr
          hstemhm
          126 callgsubr
          137 133 48 53 6 133 cntrmask 11100000
          -92 callsubr
          hintmask 11101000
          -204 76 rmoveto
          -28 22 rlineto
          -85 callsubr
          6 -20 -24 8 -21 hhcurveto
          -82 callgsubr
          -84 callgsubr
          -6 20 24 -8 21 hhcurveto
          39 21 27 4 3 hvcurveto
          endchar
        </CharString>
        <CharString name="Uhungarumlaut">
          -17 callsubr
          73 -21 195 -20 -98 callsubr
          hintmask 00011000
          -295 235 -81 callsubr
        </CharString>
        <CharString name="Umacron">
          -17 callsubr
          62 52 -30 callgsubr
          317 53 hintmask 00100000
          734 639 rmoveto
          47 vlineto
          hintmask 01000000
          -120 -3 rlineto
          hintmask 00100000
          -121 3 rlineto
          -47 20 vlineto
          hintmask 11001100
          -85 callgsubr
          hintmask 00101000
          429 94 47 vlineto
          hintmask 01000000
          -3 -35 -90 0 -40 hhcurveto
          hintmask 10101100
          -40 -90 0 3 -35 hvcurveto
          125 callgsubr
          -136 102 -104 174 154 82 107 131 vhcurveto
          383 vlineto
          hintmask 01000000
          22 0 1 24 3 vhcurveto
          hintmask 00100000
          3 22 21 0 7 hhcurveto
          hintmask 00010000
          -125 109 -28 callgsubr
        </CharString>
        <CharString name="Uogonek">
          769 -204 66 127 89 callgsubr
          94 53 170 53 hintmask 00010000
          734 639 rmoveto
          47 vlineto
          hintmask 00100000
          -120 -3 rlineto
          hintmask 00010000
          -121 3 rlineto
          -47 20 vlineto
          hintmask 01101010
          -85 callgsubr
          hintmask 00011100
          429 94 47 vlineto
          hintmask 00100000
          -3 -35 -90 0 -40 hhcurveto
          hintmask 10011110
          -40 -90 0 3 -35 hvcurveto
          125 callgsubr
          -130 93 -100 159 -9 vhcurveto
          -30 -29 -25 -42 -33 -70 callsubr
          -47 -24 127 callgsubr
          9 17 13 15 15 11 rrcurveto
          122 21 64 97 116 vvcurveto
          383 vlineto
          hintmask 00100000
          22 0 1 24 3 vhcurveto
          hintmask 00010000
          133 callgsubr
        </CharString>
        <CharString name="Upsilon">
          778 0 47 535 115 hstem
          56 53 209 142 208 53 vstem
          721 554 rmoveto
          56 -42 87 -93 -136 -48 -150 -61 -13 vhcurveto
          -1 hlineto
          124 -28 -65 87 -104 hhcurveto
          -93 -42 -88 -55 -23 13 0 14 14 9 0 20 3 hvcurveto
          21 3 16 10 53 hhcurveto
          26 46 0 -67 33 hvcurveto
          32 -63 0 -90 -11 vvcurveto
          -304 -118 -47 vlineto
          3 41 102 0 46 hhcurveto
          46 102 0 -3 41 hvcurveto
          47 -118 304 vlineto
          10 0 89 28 60 vhcurveto
          72 34 47 0 27 hhcurveto
          34 34 -3 -26 4 hvcurveto
          -16 2 2 -6 22 hhcurveto
          14 13 0 23 hvcurveto
          endchar
        </CharString>
        <CharString name="Uring">
          -17 callsubr
          12 41 86 41 -30 callgsubr
          31 22 callsubr
          72 53 hintmask 0010000000000000
          734 639 rmoveto
          47 vlineto
          hintmask 0100000000000000
          -120 -3 rlineto
          hintmask 0010000000000000
          -121 3 rlineto
          -47 20 vlineto
          hintmask 1100010000100000
          -85 callgsubr
          hintmask 0010010000000000
          429 94 47 vlineto
          hintmask 0100000000000000
          -3 -35 -90 0 -40 hhcurveto
          hintmask 1010010000100000
          -40 -90 0 3 -35 hvcurveto
          125 callgsubr
          -136 102 -104 174 154 82 107 131 vhcurveto
          383 vlineto
          hintmask 0100000000000000
          22 0 1 24 3 vhcurveto
          hintmask 0010000000000000
          3 22 21 0 7 hhcurveto
          hintmask 0001100101000000
          -253 143 -65 callgsubr
          hintmask 0001001010000000
          9 callgsubr
          hintmask 0000000001000000
          68 callsubr
          endchar
        </CharString>
        <CharString name="Utilde">
          -17 callsubr
          42 75 -44 75 -98 callsubr
          hintmask 00001000
          -139 173 -54 callsubr
          hintmask 00010100
          -82 callgsubr
          hintmask 00001000
          -84 callgsubr
          hintmask 00010000
          -6 20 24 -8 21 hhcurveto
          hintmask 00001000
          39 21 27 4 3 hvcurveto
          endchar
        </CharString>
        <CharString name="V">
          756 142 callsubr
          hstem
          733 639 rmoveto
          47 vlineto
          -102 -3 -117 3 rlineto
          -47 vlineto
          18 34 0 -10 25 hvcurveto
          -169 -445 -173 455 rlineto
          82 47 hlineto
          -3 -36 -86 0 -40 hhcurveto
          -39 -72 0 3 -36 hvcurveto
          -47 81 vlineto
          237 -622 rlineto
          -17 6 4 -8 27 hhcurveto
          28 3 8 17 7 hvcurveto
          229 599 rlineto
          17 7 2 6 80 hhcurveto
          endchar
        </CharString>
        <CharString name="W">
          111 callgsubr
          hstem
          -88 callgsubr
          endchar
        </CharString>
        <CharString name="Wacute">
          111 callgsubr
          73 -21 176 -20 hstemhm
          hintmask 11000000
          -88 callgsubr
          hintmask 00110000
          -356 202 -103 callgsubr
        </CharString>
        <CharString name="Wcircumflex">
          111 callgsubr
          64 callgsubr
          hintmask 11000000
          -88 callgsubr
          hintmask 00110000
          -319 113 -52 callsubr
        </CharString>
        <CharString name="Wdieresis">
          111 callgsubr
          42 140 hstemhm
          294 39 callgsubr
          hintmask 11000000
          -88 callgsubr
          hintmask 00111000
          -576 29 callgsubr
        </CharString>
        <CharString name="Wgrave">
          111 callgsubr
          73 -21 176 -20 hstemhm
          hintmask 11000000
          -88 callgsubr
          hintmask 00110000
          -424 137 -76 callgsubr
        </CharString>
        <CharString name="X">
          -39 callsubr
        </CharString>
        <CharString name="Xi">
          667 0 112 97 -20 80 -21 47 112 47 -20 64 -21 86 112 hstemhm
          42 47 -42 47 45 47 294 47 45 47 -42 47 hintmask 0000011010010000
          619 477 rmoveto
          -9 198 rlineto
          -554 hlineto
          -9 -198 rlineto
          47 hlineto
          1 32 2 28 7 14 rrcurveto
          12 6 40 0 28 hhcurveto
          310 hlineto
          9 57 0 -9 6 hvcurveto
          8 -12 2 -32 2 -33 rrcurveto
          52 -268 rmoveto
          hintmask 1111100101101000
          -47 hlineto
          -2 -45 -2 -28 -7 -13 rrcurveto
          -11 -7 -52 0 -18 hhcurveto
          -312 hlineto
          -26 -46 0 13 -5 hvcurveto
          -7 14 -2 25 -2 45 rrcurveto
          -47 hlineto
          9 -209 rlineto
          564 hlineto
          -88 248 rmoveto
          206 -47 -47 -294 47 -47 -206 47 47 294 -47 vlineto
          endchar
        </CharString>
        <CharString name="Y">
          756 50 callsubr
          hstem
          309 136 vstem
          -90 callsubr
          endchar
        </CharString>
        <CharString name="Yacute">
          756 50 callsubr
          73 -21 176 -20 hstemhm
          309 136 hintmask 11001000
          -90 callsubr
          hintmask 00110000
          -223 202 -103 callgsubr
        </CharString>
        <CharString name="Ycircumflex">
          756 50 callsubr
          64 callgsubr
          309 136 hintmask 11001000
          -90 callsubr
          hintmask 00110000
          -186 113 -52 callsubr
        </CharString>
        <CharString name="Ydieresis">
          756 50 callsubr
          42 140 hstemhm
          155 141 13 136 16 141 hintmask 11001000
          -90 callsubr
          hintmask 00110100
          -443 29 callgsubr
        </CharString>
        <CharString name="Ydotbelow">
          756 152 callgsubr
          299 157 -147 136 hintmask 01101000
          -90 callsubr
          hintmask 10010000
          -283 -761 rmoveto
          -100 callsubr
        </CharString>
        <CharString name="Ygrave">
          756 50 callsubr
          73 -21 176 -20 hstemhm
          309 136 hintmask 11001000
          -90 callsubr
          hintmask 00110000
          -291 137 -76 callgsubr
        </CharString>
        <CharString name="Yhookabove">
          756 50 callsubr
          74 142 callgsubr
          309 136 hintmask 11001000
          -90 callsubr
          hintmask 00111000
          -264 230 -107 callgsubr
        </CharString>
        <CharString name="Ytilde">
          756 50 callsubr
          42 145 callsubr
          309 136 hintmask 11001000
          -90 callsubr
          hintmask 00010000
          -194 173 -69 callgsubr
        </CharString>
        <CharString name="Z">
          91 callgsubr
          hstem
          -80 callsubr
          endchar
        </CharString>
        <CharString name="Zacute">
          91 callgsubr
          73 -21 176 -20 hstemhm
          hintmask 11000000
          -80 callsubr
          hintmask 00110000
          -98 841 -103 callgsubr
        </CharString>
        <CharString name="Zcaron">
          91 callgsubr
          64 callgsubr
          hintmask 11000000
          -80 callsubr
          hintmask 00110000
          -61 869 -63 callgsubr
        </CharString>
        <CharString name="Zdotaccent">
          91 callgsubr
          53 156 hstemhm
          227 157 hintmask 11000000
          -80 callsubr
          hintmask 00110000
          -158 817 rmoveto
          -100 callsubr
        </CharString>
        <CharString name="Zdotbelow">
          611 26 callsubr
          44 51 588 47 hstemhm
          227 157 hintmask 01100000
          -80 callsubr
          hintmask 10010000
          -158 -122 rmoveto
          -100 callsubr
        </CharString>
        <CharString name="Zeta">
          91 callgsubr
          hstem
          -80 callsubr
          endchar
        </CharString>
        <CharString name="a">
          -27 callsubr
          hstem
          71 callsubr
          vstem
          -107 callsubr
          endchar
        </CharString>
        <CharString name="aacute">
          -27 callsubr
          79 -21 195 -100 callgsubr
          74 411 -91 callgsubr
        </CharString>
        <CharString name="abreve">
          -27 callsubr
          62 62 125 -100 callgsubr
          102 469 -101 callsubr
          endchar
        </CharString>
        <CharString name="abreveacute">
          -27 callsubr
          63 62 336 -100 callgsubr
          102 470 -101 callsubr
          -53 138 -103 callgsubr
        </CharString>
        <CharString name="abrevedotbelow">
          486 73 callgsubr
          -10 callgsubr
          62 126 callsubr
          hstemhm
          23 117 24 157 -23 114 hintmask 0111111010000000
          -107 callsubr
          102 469 -101 callsubr
          hintmask 1000000100000000
          -79 -824 rmoveto
          -100 callsubr
        </CharString>
        <CharString name="abrevegrave">
          -27 callsubr
          63 62 125 -104 callsubr
          hintmask 00011100
          102 470 -101 callsubr
          -52 73 rmoveto
          -26 -38 -142 60 -13 6 -22 10 -5 27 rlinecurve
          38 -7 28 35 39 hhcurveto
          18 13 -9 -13 12 hvcurveto
          endchar
        </CharString>
        <CharString name="abrevehookabove">
          -27 callsubr
          63 62 333 -100 callgsubr
          102 470 -101 callsubr
          -59 145 -107 callgsubr
        </CharString>
        <CharString name="abrevetilde">
          486 758 75 -53 62 -53 75 hstemhm
          71 callsubr
          cntrmask 11100000
          -107 callsubr
          hintmask 11100000
          102 470 -101 callsubr
          10 139 rmoveto
          -28 22 rlineto
          -85 callsubr
          6 -20 -24 8 -21 hhcurveto
          -82 callgsubr
          -84 callgsubr
          -6 20 24 -8 21 hhcurveto
          39 21 27 4 3 hvcurveto
          endchar
        </CharString>
        <CharString name="acaron">
          -27 callsubr
          73 -21 207 -100 callgsubr
          122 457 -53 callsubr
        </CharString>
        <CharString name="acircumflex">
          -27 callsubr
          73 -21 207 -100 callgsubr
          122 294 -68 callgsubr
          endchar
        </CharString>
        <CharString name="acircumflexacute">
          -27 callsubr
          73 -21 376 -100 callgsubr
          120 296 -95 callsubr
          -56 303 -103 callgsubr
        </CharString>
        <CharString name="acircumflexdotbelow">
          486 73 callgsubr
          -10 callgsubr
          73 -21 207 -20 hstemhm
          23 117 24 157 -23 114 hintmask 0111111010000000
          -107 callsubr
          122 294 -68 callgsubr
          hintmask 1000000100000000
          -79 -627 rmoveto
          -100 callsubr
        </CharString>
        <CharString name="acircumflexgrave">
          -27 callsubr
          73 -21 165 -104 callsubr
          hintmask 00011100
          120 296 -77 callsubr
        </CharString>
        <CharString name="acircumflexhookabove">
          -27 callsubr
          73 -21 373 -100 callgsubr
          120 296 -95 callsubr
          35 310 -107 callgsubr
        </CharString>
        <CharString name="acircumflextilde">
          -27 callsubr
          73 -21 220 145 callsubr
          71 callsubr
          hintmask 11100011
          -107 callsubr
          hintmask 00010100
          120 296 -7 callsubr
        </CharString>
        <CharString name="acute">
          500 532 51 callgsubr
          hstem
          379 644 -91 callgsubr
        </CharString>
        <CharString name="acute.cap">
          500 517 -21 176 -20 hstem
          388 599 -103 callgsubr
        </CharString>
        <CharString name="acute.dup">
          500 532 51 callgsubr
          hstem
          379 644 -91 callgsubr
        </CharString>
        <CharString name="acute.ts1">
          500 535 -21 192 132 callsubr
          400 645 rmoveto
          32 -31 30 -32 vhcurveto
          hintmask 11000000
          -3 -2 -1 -3 hhcurveto
          -21 -3 -13 -17 -11 -17 -23 -36 -21 -36 -24 -35 -2 -4 -5 -5 -1 -5 rrcurveto
          -2 vlineto
          -3 2 -2 2 -3 vhcurveto
          18 -18 rlineto
          -3 3 3 -3 4 hhcurveto
          8 20 16 8 12 hvcurveto
          74 48 rlineto
          21 13 25 16 30 vvcurveto
          endchar
        </CharString>
        <CharString name="adblgrave">
          -27 callsubr
          79 -21 195 -100 callgsubr
          77 299 -94 callgsubr
        </CharString>
        <CharString name="adieresis">
          -27 callsubr
          86 140 hstemhm
          23 117 -96 141 113 114 -110 141 hintmask 11101010
          -107 callsubr
          hintmask 00010101
          -113 376 -73 callgsubr
        </CharString>
        <CharString name="adotbelow">
          486 73 callgsubr
          -10 callgsubr
          hstemhm
          23 117 24 157 -23 114 hintmask 01111010
          -107 callsubr
          hintmask 10000100
          23 -355 rmoveto
          -100 callsubr
        </CharString>
        <CharString name="ae">
          -53 callgsubr
        </CharString>
        <CharString name="ae.dup">
          -53 callgsubr
        </CharString>
        <CharString name="aeacute">
          722 -6 36 184 33 -29 73 callsubr
          82 callsubr
          28 117 159 114 -95 95 180 95 hintmask 0010000010000000
          693 117 rmoveto
          18 -19 0 -5 -18 -2 -7 -12 -4 vhcurveto
          -66 -23 -54 -16 -31 hhcurveto
          -31 -40 13 45 -25 hvcurveto
          -22 39 -1 55 32 vvcurveto
          243 hlineto
          hintmask 1101001101000000
          25 7 1 28 121 -57 85 -119 -46 -53 -13 -37 -42 hvcurveto
          50 -53 -79 0 -23 hhcurveto
          -34 -131 -2 -90 -44 35 -19 27 31 32 21 42 32 -23 18 0 hvcurveto
          4 21 8 2 30 hhcurveto
          60 27 -46 -70 hvcurveto
          -53 vlineto
          -65 -3 -211 -12 -130 vvcurveto
          -75 81 -34 91 47 70 9 51 52 vhcurveto
          -48 52 62 -12 46 hhcurveto
          121 43 101 22 144 callgsubr
          hintmask 1011001011000000
          -180 hlineto
          1 35 1 39 16 35 rrcurveto
          30 14 29 27 38 hhcurveto
          77 3 -128 -38 1 hvcurveto
          -275 -130 rmoveto
          -37 -45 -54 -68 -43 -22 40 33 vhcurveto
          hintmask 0100000100000000
          97 130 12 29 2 vhcurveto
          1 -21 3 -29 12 -34 rrcurveto
          hintmask 0000000010000000
          3 -5 0 -4 0 vvcurveto
          hintmask 0000110000000000
          167 523 -91 callgsubr
        </CharString>
        <CharString name="agrave">
          -27 callsubr
          79 -21 195 -100 callgsubr
          10 311 -66 callsubr
        </CharString>
        <CharString name="ahookabove">
          -27 callsubr
          80 -21 193 -100 callgsubr
          42 409 -107 callgsubr
        </CharString>
        <CharString name="amacron">
          -27 callsubr
          130 52 hstemhm
          71 callsubr
          hintmask 11101100
          -107 callsubr
          hintmask 00010000
          126 350 -28 callgsubr
        </CharString>
        <CharString name="ampersand">
          778 -11 47 349 36 -27 47 -44 47 84 47 94 36 hstemhm
          200 47 114 104 114 47 cntrmask 0000001110000000
          hintmask 0001001110000000
          727 397 rmoveto
          47 vlineto
          hintmask 0010001110000000
          -2 -32 -40 -1 -27 hhcurveto
          hintmask 0001001110000000
          -11 -84 1 2 -27 hvcurveto
          -47 vlineto
          hintmask 1100111110000000
          10 67 0 -12 -5 -59 -97 -8 -14 hvcurveto
          -17 -30 -29 -46 -34 -40 -35 42 -80 102 -35 86 rrcurveto
          16 16 106 101 74 vvcurveto
          51 -25 80 -74 -76 -90 -62 -115 -80 25 -77 16 -39 vhcurveto
          -4 -3 -47 -47 -11 -11 -19 -19 -31 -31 -5 -8 rrcurveto
          -23 -32 -2 -28 -16 vvcurveto
          -84 81 -64 100 74 60 32 32 41 vhcurveto
          -34 45 67 -30 69 hhcurveto
          79 61 53 76 2 hvcurveto
          -47 hlineto
          -68 -4 -63 -14 -22 hhcurveto
          -52 -63 76 6 -5 hvcurveto
          53 62 40 69 45 77 3 7 14 24 6 9 rrcurveto
          hintmask 0010001110000000
          14 24 1 1 21 3 rrcurveto
          hintmask 0001001110000000
          3 22 32 0 11 hhcurveto
          -366 178 rmoveto
          hintmask 1100111110000000
          -32 -14 -43 -75 -79 vhcurveto
          -15 43 -10 54 47 vvcurveto
          82 39 22 25 48 2 -85 -9 vhcurveto
          1 -494 rmoveto
          -24 -34 -44 -21 -51 hhcurveto
          -29 -34 13 125 23 0 61 30 39 hvcurveto
          40 -82 55 -73 67 -61 rrcurveto
          endchar
        </CharString>
        <CharString name="anglearc">
          778 -61 -21 666 -20 hstem
          444 60 39 60 vstem
          721 30 rmoveto
          13 -8 11 -12 4 vhcurveto
          -120 44 rlineto
          14 48 8 50 51 vvcurveto
          51 -8 50 -14 48 vhcurveto
          120 44 rlineto
          12 4 8 11 13 vvcurveto
          17 -13 13 -17 -4 -3 -1 -1 -3 vhcurveto
          -121 -44 -18 42 -23 39 -29 36 rlinecurve
          7 -5 -8 4 -10 hhcurveto
          -17 -13 -13 -17 -7 2 -7 5 -5 hvcurveto
          24 -30 20 -34 16 -35 -428 -157 rcurveline
          -12 -4 -8 -11 -13 vvcurveto
          -13 8 -11 12 -4 vhcurveto
          428 -157 -16 -35 -20 -34 -24 -30 rlinecurve
          -5 -5 -2 -7 -7 vvcurveto
          -17 13 -13 17 10 8 4 7 5 vhcurveto
          29 36 23 39 18 42 121 -44 rcurveline
          -1 3 3 -1 4 hhcurveto
          17 13 13 17 hvcurveto
          -178 221 rmoveto
          -44 -6 -43 -12 -41 vhcurveto
          -352 128 352 128 rlineto
          12 -41 6 -43 -44 vvcurveto
          endchar
        </CharString>
        <CharString name="angleleft">
          389 -229 -21 1000 132 callsubr
          333 -221 rmoveto
          9 -4 10 -3 9 vhcurveto
          -50 135 -43 138 -48 136 rrcurveto
          -4 10 -7 16 8 vvcurveto
          11 7 13 3 10 vhcurveto
          106 306 30 87 4 13 7 13 2 13 rlinecurve
          3 vlineto
          17 -13 15 -17 vhcurveto
          hintmask 11000000
          -6 -1 -21 -3 -5 -25 -6 -17 rlinecurve
          -49 -140 -44 -143 -53 -139 rrcurveto
          -3 -11 -6 -11 -11 vvcurveto
          -11 6 -10 3 -10 vhcurveto
          83 -241 62 -181 7 -19 5 -26 24 -2 rlinecurve
          7 7 1 4 6 hvcurveto
          6 6 rlineto
          5 6 2 6 6 vvcurveto
          endchar
        </CharString>
        <CharString name="angleright">
          389 -229 -21 1000 132 callsubr
          278 251 rmoveto
          11 -6 10 -3 10 vhcurveto
          -20 58 -125 364 -6 18 -5 25 -23 4 rlinecurve
          hintmask 11000000
          -3 -4 0 -1 -3 hvcurveto
          -15 -10 -17 -12 -7 2 -8 3 -7 hvcurveto
          122 -353 21 -60 rlineto
          3 -11 8 -15 -9 vvcurveto
          -11 -7 -13 -3 -10 vhcurveto
          -23 -66 -81 -234 -12 -36 -14 -36 -11 -36 rlinecurve
          -4 -8 -4 -12 -9 vvcurveto
          -16 13 -14 17 vhcurveto
          2 hlineto
          24 1 5 24 7 19 146 424 rcurveline
          3 11 6 11 11 vvcurveto
          endchar
        </CharString>
        <CharString name="aogonek">
          137 callgsubr
          hstem
          71 callsubr
          vstem
          480 24 rmoveto
          20 -10 2 -11 1 vhcurveto
          -47 3 0 13 21 vvcurveto
          216 vlineto
          95 -74 58 -123 -33 -131 -2 -90 -44 35 -19 27 31 32 21 42 32 -23 18 0 vhcurveto
          4 21 8 2 30 hhcurveto
          60 26 -48 -68 hvcurveto
          -36 vlineto
          -144 -3 -131 -48 -105 vvcurveto
          -83 94 -32 75 61 41 35 45 21 vhcurveto
          -14 0 -28 29 -18 vhcurveto
          -40 -24 -45 -60 -44 -70 callsubr
          -68 -19 93 45 93 hvcurveto
          42 hlineto
          20 12 0 24 hvcurveto
          -182 114 rmoveto
          -86 -65 -22 -29 -41 -23 41 38 110 132 12 26 2 vhcurveto
          endchar
        </CharString>
        <CharString name="aogonekacute">
          137 callgsubr
          82 callsubr
          71 callsubr
          hintmask 11100110
          480 24 rmoveto
          20 -10 2 -11 1 vhcurveto
          -47 3 0 13 21 vvcurveto
          216 vlineto
          95 -74 58 -123 -33 -131 -2 -90 -44 35 -19 27 31 32 21 42 32 -23 18 0 vhcurveto
          4 21 8 2 30 hhcurveto
          60 26 -48 -68 hvcurveto
          -36 vlineto
          -144 -3 -131 -48 -105 vvcurveto
          -83 94 -32 75 61 41 35 45 21 vhcurveto
          -14 0 -28 29 -18 vhcurveto
          -40 -24 -45 -60 -44 -70 callsubr
          -68 -19 93 45 93 hvcurveto
          42 hlineto
          20 12 0 24 hvcurveto
          -182 114 rmoveto
          -86 -65 -22 -29 -41 -23 41 38 110 132 12 26 2 vhcurveto
          hintmask 00011000
          74 411 -91 callgsubr
        </CharString>
        <CharString name="aring">
          -27 callsubr
          68 41 86 41 hstemhm
          23 117 -4 22 callsubr
          -52 114 hintmask 1110010000100000
          -107 callsubr
          hintmask 0001100101000000
          -2 372 -65 callgsubr
          hintmask 0001001010000000
          9 callgsubr
          hintmask 0000000001000000
          68 callsubr
          endchar
        </CharString>
        <CharString name="aringacute">
          -27 callsubr
          68 41 86 41 211 -20 hstemhm
          23 117 -4 22 callsubr
          -52 114 hintmask 1110001000010000
          -107 callsubr
          hintmask 0001100010100000
          -2 372 -65 callgsubr
          hintmask 0001000101000000
          9 callgsubr
          hintmask 0000010000100000
          68 callsubr
          -4 221 -103 callgsubr
        </CharString>
        <CharString name="asciicircum">
          556 583 -21 182 -20 hstem
          561 584 rmoveto
          -283 160 -283 -160 11 -22 271 123 272 -123 rlineto
          endchar
        </CharString>
        <CharString name="asciitilde">
          556 193 43 -25 43 -8 43 -25 43 hstemhm
          hintmask 10010000
          555 290 52 callgsubr
          hintmask 01000000
          30 callsubr
          hintmask 00100000
          20 10 20 11 17 14 rrcurveto
          endchar
        </CharString>
        <CharString name="asciitilde.low">
          556 0 43 -25 43 -8 43 -25 43 hstemhm
          0 555 hintmask 10010000
          555 97 52 callgsubr
          hintmask 01001000
          30 callsubr
          hintmask 00101000
          20 10 20 11 17 14 rrcurveto
          endchar
        </CharString>
        <CharString name="asterisk">
          500 327 138 callgsubr
          443 rmoveto
          26 -15 6 -14 5 vhcurveto
          -121 48 121 48 rlineto
          14 5 15 6 26 vvcurveto
          30 -25 19 -20 -12 -8 -6 -7 -8 vhcurveto
          -94 -85 22 134 rlineto
          1 8 1 5 0 vvcurveto
          25 -24 14 -20 -23 -22 -16 -23 -3 1 -4 2 -13 vhcurveto
          21 -127 -94 84 rlineto
          10 -11 -5 4 -12 hhcurveto
          -20 -25 -19 -30 -26 15 -6 14 -5 hvcurveto
          121 -48 -121 -48 rlineto
          -14 -5 -15 -6 -26 vvcurveto
          -30 25 -19 20 12 8 6 7 8 vhcurveto
          94 85 -22 -134 rlineto
          -1 -8 -1 -5 0 vvcurveto
          -25 24 -14 20 23 22 16 23 3 -1 4 -2 13 vhcurveto
          -21 127 94 -84 rlineto
          -10 11 5 -4 12 hhcurveto
          20 25 19 30 hvcurveto
          endchar
        </CharString>
        <CharString name="asterisk.math">
          500 50 138 callgsubr
          166 rmoveto
          32 -29 5 -22 9 vhcurveto
          -33 13 -33 12 -32 14 32 14 33 12 33 13 rrcurveto
          22 9 29 5 32 vvcurveto
          24 -21 25 -24 -20 -13 -18 -12 -14 vhcurveto
          -25 -22 -26 -22 -24 -23 4 36 8 35 6 36 rrcurveto
          2 12 4 14 13 vvcurveto
          25 -22 14 -22 -22 -23 -14 -25 -12 4 -14 2 -11 vhcurveto
          6 -36 8 -37 4 -36 -24 23 -26 22 -25 22 rrcurveto
          12 -14 -13 18 -20 hhcurveto
          -24 -21 -25 -24 -33 30 -4 21 -9 hvcurveto
          33 -13 33 -12 32 -14 -32 -14 -33 -12 -33 -13 rrcurveto
          -21 -9 -30 -4 -33 vvcurveto
          -24 21 -25 24 20 13 18 12 14 vhcurveto
          25 22 26 22 24 23 -4 -36 -8 -37 -6 -36 rrcurveto
          -2 -11 -4 -14 -12 vvcurveto
          -25 23 -14 22 22 22 14 25 13 -4 14 -2 12 vhcurveto
          -6 36 -8 35 -4 36 24 -23 26 -22 25 -22 rrcurveto
          -12 14 13 -18 20 hhcurveto
          24 21 25 24 hvcurveto
          endchar
        </CharString>
        <CharString name="at">
          778 -6 36 98 36 366 36 98 36 hstemhm
          56 47 86 114 171 114 -111 47 -33 114 -81 114 -80 47 69 47 hintmask 1101100001010000
          721 79 rmoveto
          14 -13 0 -15 vhcurveto
          -24 hlineto
          -16 -2 0 -7 -13 hvcurveto
          -42 -92 -84 -14 -71 hhcurveto
          -174 -114 121 196 210 129 107 156 66 86 -21 -70 60 hvcurveto
          74 -86 0 -107 -48 vvcurveto
          -80 -4 -88 -56 vhcurveto
          hintmask 0000001000000000
          -26 0 43 14 hvcurveto
          232 vlineto
          hintmask 0110010100100000
          27 -1 2 -29 vhcurveto
          -34 hlineto
          63 -33 -57 21 -47 hhcurveto
          -104 -94 -72 -147 -148 95 -71 103 hvcurveto
          hintmask 1101100010010000
          41 35 15 25 28 hvcurveto
          -39 35 60 -1 19 hhcurveto
          86 30 81 134 240 -153 117 -180 -189 -143 -129 -224 -208 126 -145 210 42 51 4 13 61 hvcurveto
          60 12 59 17 53 29 rrcurveto
          0 3 5 5 vvcurveto
          -244 399 rmoveto
          hintmask 0110011000000000
          -3 -7 0 -3 -15 vvcurveto
          -242 vlineto
          -27 -21 -29 -20 -34 hhcurveto
          -45 -42 57 126 126 42 57 45 hvcurveto
          hintmask 0000000100000000
          29 34 -16 -36 24 hvcurveto
          endchar
        </CharString>
        <CharString name="atilde">
          -27 callsubr
          103 75 -44 75 -105 callgsubr
          hintmask 00001000
          112 407 -89 callsubr
        </CharString>
        <CharString name="b">
          556 -6 36 384 36 189 55 hstem
          140 callgsubr
          vstem
          97 callsubr
          286 vlineto
          -177 -90 callgsubr
          -600 19 callgsubr
          118 callgsubr
        </CharString>
        <CharString name="backslash">
          575 750 -20 hstem
          510 -219 rmoveto
          6 -1 1 -5 13 vhcurveto
          -377 919 rlineto
          17 -7 -5 13 -21 hhcurveto
          -14 -16 -11 -20 -6 1 -1 5 -13 hvcurveto
          377 -919 rlineto
          -15 6 6 -15 21 hhcurveto
          14 16 11 20 hvcurveto
          endchar
        </CharString>
        <CharString name="baht">
          711 0 47 245 47 0 36 264 47 hstemhm
          128 131 0 142 -77 48 -24 131 -103 131 -69 48 -1 142 -120 147 hintmask 0001000100100000
          654 186 rmoveto
          84 -57 74 -118 15 vhcurveto
          96 19 52 62 74 vvcurveto
          89 -70 83 -145 vhcurveto
          hintmask 0001001000000000
          -40 48 hlineto
          hintmask 0000000100000000
          13 -11 11 -13 vhcurveto
          hintmask 1001101000000000
          -14 -10 -11 -13 hvcurveto
          -48 -290 -47 94 -592 -94 -47 290 -48 vlineto
          hintmask 0000000100000000
          -13 10 -11 14 vhcurveto
          hintmask 1000001001010000
          13 11 11 13 hvcurveto
          48 66 vlineto
          147 69 89 97 hvcurveto
          -169 328 rmoveto
          hintmask 0011001010000000
          -74 -28 -65 -81 vhcurveto
          -4 264 27 hlineto
          hintmask 0011101000100000
          18 68 0 -125 hvcurveto
          -161 -139 rmoveto
          -65 264 65 hlineto
          183 -451 rmoveto
          -43 -9 -31 -13 -22 vhcurveto
          hintmask 1000010000000000
          -45 -27 -40 0 -17 hhcurveto
          hintmask 1010001000000000
          -29 292 39 hlineto
          hintmask 1100101001010000
          20 32 0 -47 23 hvcurveto
          21 -40 0 -55 -9 vvcurveto
          -183 -141 rmoveto
          -65 292 65 hlineto
          endchar
        </CharString>
        <CharString name="bar">
          319 750 -20 hstem
          129 61 vstem
          190 -206 rmoveto
          26 callgsubr
          endchar
        </CharString>
        <CharString name="bigcircle">
          686 143 callgsubr
          hstem
          143 callgsubr
          vstem
          -71 callsubr
          endchar
        </CharString>
        <CharString name="blanksymbol">
          556 -6 36 384 36 189 36 -36 55 hstemhm
          85 114 52 128 -111 114 12 128 hintmask 01000010
          97 callsubr
          155 vlineto
          75 71 rlineto
          5 4 2 6 7 vvcurveto
          hintmask 00100100
          13 -10 11 -14 -6 -6 -2 -4 -4 vhcurveto
          -42 -40 rlineto
          hintmask 11011101
          65 vlineto
          -177 -90 callgsubr
          -72 vlineto
          -61 -58 rlineto
          -5 -4 -3 -6 -7 vvcurveto
          -13 11 -11 13 6 6 2 4 4 vhcurveto
          29 27 rlineto
          -462 19 callgsubr
          hintmask 00000011
          118 callgsubr
        </CharString>
        <CharString name="braceleft">
          83 callsubr
          -232 rmoveto
          13 -5 4 -12 1 vhcurveto
          -84 5 -37 35 -12 36 rrcurveto
          -3 10 0 8 17 vvcurveto
          237 vlineto
          -1 42 -32 51 -86 23 rrcurveto
          119 32 0 69 45 vvcurveto
          210 vlineto
          22 0 29 39 29 vhcurveto
          11 7 29 18 52 3 rrcurveto
          14 1 8 0 17 vvcurveto
          18 -9 0 -22 -142 -90 -50 -77 -1 vhcurveto
          -206 vlineto
          -62 0 -21 -33 -29 vhcurveto
          -23 -21 -35 -14 -41 -2 rrcurveto
          -14 -1 -8 0 -17 vvcurveto
          -13 5 -4 12 -1 vhcurveto
          90 -5 36 -45 9 -36 rrcurveto
          2 -8 0 -2 -37 vvcurveto
          -210 vlineto
          -128 166 -11 67 22 9 0 18 vhcurveto
          endchar
        </CharString>
        <CharString name="braceright">
          83 callsubr
          250 rmoveto
          13 -5 4 -12 1 vhcurveto
          -64 3 -52 26 -17 55 rrcurveto
          -3 8 0 2 39 vvcurveto
          210 vlineto
          123 -152 16 -82 -21 -10 0 -18 -13 5 -4 12 -1 vhcurveto
          81 -4 41 -33 12 -39 rrcurveto
          3 -10 0 -8 -17 vvcurveto
          -237 vlineto
          1 -42 31 -50 87 -24 rrcurveto
          -119 -32 0 -68 -46 vvcurveto
          -210 vlineto
          -23 0 -26 -37 -29 vhcurveto
          -10 -7 -31 -20 -54 -3 rrcurveto
          -14 -1 -8 0 -17 vvcurveto
          -18 10 0 21 150 83 54 73 1 vhcurveto
          206 vlineto
          65 0 17 34 31 vhcurveto
          11 11 33 22 53 3 rrcurveto
          14 1 8 0 17 vvcurveto
          endchar
        </CharString>
        <CharString name="bracketleft">
          280 -250 61 878 61 hstem
          107 61 vstem
          257 -250 rmoveto
          61 -89 878 89 61 -150 -1000 vlineto
          endchar
        </CharString>
        <CharString name="bracketright">
          280 -250 61 878 61 hstem
          111 61 vstem
          172 -250 rmoveto
          1000 -150 -61 89 -878 -89 -61 vlineto
          endchar
        </CharString>
        <CharString name="breve">
          500 515 126 callsubr
          hstem
          407 702 -101 callsubr
          endchar
        </CharString>
        <CharString name="breve.cap">
          500 496 126 callsubr
          hstem
          407 683 -101 callsubr
          endchar
        </CharString>
        <CharString name="breve.ts1">
          611 508 126 callsubr
          hstem
          93 36 352 36 vstem
          517 695 rmoveto
          -36 hlineto
          -86 -2 -95 -39 -79 hhcurveto
          -77 -97 38 87 -2 hvcurveto
          -36 hlineto
          -118 110 -69 101 100 113 65 122 vhcurveto
          endchar
        </CharString>
        <CharString name="brokenbar">
          319 750 -20 hstem
          129 61 vstem
          190 341 rmoveto
          365 vlineto
          14 0 30 -30 -31 0 -29 -15 vhcurveto
          -365 vlineto
          -14 15 -10 16 15 15 10 14 vhcurveto
          -547 vmoveto
          365 vlineto
          14 -15 10 -15 -16 -15 -10 -14 vhcurveto
          -365 35 callgsubr
          endchar
        </CharString>
        <CharString name="bullet">
          778 61 328 hstem
          225 328 69 callsubr
          endchar
        </CharString>
        <CharString name="c">
          63 callsubr
          hstem
          33 128 118 125 vstem
          -79 callgsubr
          -148 97 -80 118 136 31 112 11 vhcurveto
          endchar
        </CharString>
        <CharString name="cacute">
          63 callsubr
          82 callsubr
          33 128 118 125 hintmask 11001100
          -79 callgsubr
          -148 97 -80 118 136 31 112 11 vhcurveto
          hintmask 00110000
          -42 527 -91 callgsubr
        </CharString>
        <CharString name="caron">
          500 90 callsubr
          427 690 -53 callsubr
        </CharString>
        <CharString name="caron.cap">
          115 callgsubr
          165 -20 hstem
          425 627 -63 callgsubr
        </CharString>
        <CharString name="caron.ts1">
          611 572 -21 164 -20 hstem
          497 674 rmoveto
          -23 41 -169 -82 -123 60 -46 22 -23 -41 192 -123 rlineto
          endchar
        </CharString>
        <CharString name="ccaron">
          63 callsubr
          73 -21 207 -20 hstemhm
          33 128 118 125 hintmask 11001100
          -79 callgsubr
          -148 97 -80 118 136 31 112 11 vhcurveto
          hintmask 00110000
          6 573 -53 callsubr
        </CharString>
        <CharString name="ccedilla">
          63 callsubr
          hstemhm
          33 128 89 128 -99 125 hintmask 11101000
          -79 callgsubr
          -126 70 -76 93 -21 vhcurveto
          -80 vlineto
          hintmask 00010000
          -11 callgsubr
          46 -39 37 -47 hvcurveto
          31 vlineto
          99 21 24 88 10 vvcurveto
          endchar
        </CharString>
        <CharString name="ccircumflex">
          63 callsubr
          73 -21 207 -20 hstemhm
          33 128 118 125 hintmask 11001100
          -79 callgsubr
          -148 97 -80 118 136 31 112 11 vhcurveto
          hintmask 00110000
          6 410 -68 callgsubr
          endchar
        </CharString>
        <CharString name="cdotaccent">
          63 callsubr
          78 156 hstemhm
          33 128 4 157 -43 125 hintmask 11010100
          -79 callgsubr
          -148 97 -80 118 136 31 112 11 vhcurveto
          hintmask 00101000
          -93 492 rmoveto
          -100 callsubr
        </CharString>
        <CharString name="cedilla">
          17 callgsubr
        </CharString>
        <CharString name="cedilla.dup">
          17 callgsubr
        </CharString>
        <CharString name="cent">
          63 callsubr
          hstem
          33 128 59 48 11 125 vstem
          415 117 rmoveto
          14 -14 0 -10 -15 -4 -1 -12 -4 vhcurveto
          -7 -20 -21 -62 -72 -2 rrcurveto
          379 vlineto
          11 -1 9 -2 11 -2 rrcurveto
          -9 -8 -11 -16 -23 vvcurveto
          -44 35 -19 27 31 32 21 42 61 -63 27 -73 4 vhcurveto
          39 vlineto
          14 -10 10 -14 -13 -11 -10 -14 vhcurveto
          -41 vlineto
          -114 -13 -73 -87 -129 vvcurveto
          -136 82 -79 105 -12 vhcurveto
          -43 vlineto
          -13 11 -11 13 14 10 11 13 vhcurveto
          43 vlineto
          119 10 28 102 10 vvcurveto
          -195 -70 rmoveto
          -16 10 -14 16 -10 22 rrcurveto
          -18 39 -1 45 48 vvcurveto
          53 0 100 59 26 vhcurveto
          endchar
        </CharString>
        <CharString name="cent.oldstyle">
          444 -43 40 -3 40 379 40 hstemhm
          33 128 19 128 -29 125 hintmask 01000100
          415 117 rmoveto
          14 -14 0 -10 -15 -4 -1 -12 -4 vhcurveto
          -20 -7 -22 -64 -74 hhcurveto
          -16 -15 4 8 -13 hvcurveto
          59 301 rlineto
          -34 7 30 -15 24 hhcurveto
          31 32 21 42 52 -46 27 -57 9 hvcurveto
          hintmask 10111000
          7 39 rlineto
          15 3 -11 13 -15 hhcurveto
          -12 -10 -8 -11 -2 hvcurveto
          -9 -44 rlineto
          -1 hlineto
          -132 -86 -91 -140 -111 55 -73 77 -29 hvcurveto
          -11 -52 rlineto
          -15 -3 12 -14 15 hhcurveto
          11 10 8 11 2 hvcurveto
          10 50 rlineto
          hintmask 01111000
          -2 12 12 -1 13 hhcurveto
          136 31 112 11 hvcurveto
          -171 296 rmoveto
          -63 -320 -1 2 rlineto
          -18 39 -1 45 48 vvcurveto
          60 0 117 83 9 vhcurveto
          endchar
        </CharString>
        <CharString name="centigrade">
          944 -10 47 428 61 49 61 -10 61 -36 47 1 -20 hstemhm
          0 61 1 61 38 61 55 153 363 61 hintmask 1000100001100000
          888 230 rmoveto
          6 vlineto
          12 -2 -10 1 -10 hhcurveto
          -4 hlineto
          -10 -11 -1 -16 hvcurveto
          -7 vlineto
          -96 -10 -68 -92 -111 hhcurveto
          -65 -65 25 52 -40 hvcurveto
          -49 64 -3 91 75 vvcurveto
          101 5 126 113 57 vhcurveto
          16 33 34 7 35 hhcurveto
          103 66 -103 -88 13 hvcurveto
          -16 4 -4 -17 22 hhcurveto
          12 hlineto
          22 0 10 12 hvcurveto
          230 vlineto
          hintmask 0010010000100000
          10 -5 10 -12 -14 -13 -16 -9 -10 vhcurveto
          -11 -10 -10 -9 -12 -8 -8 -11 rlinecurve
          hintmask 1010100001000000
          41 -46 -58 21 -62 hhcurveto
          -104 -108 -39 -84 -65 hvcurveto
          -50 -64 -23 -83 -82 vvcurveto
          -88 24 -91 59 -66 vhcurveto
          -79 71 104 -32 102 hhcurveto
          5 hlineto
          128 1 118 109 130 vvcurveto
          -666 347 rmoveto
          hintmask 0001000000000000
          68 -51 42 -61 vhcurveto
          -11 hlineto
          hintmask 0110001110000000
          -65 -7 -34 -49 -56 vvcurveto
          -68 51 -42 61 vhcurveto
          11 hlineto
          65 7 34 49 56 vvcurveto
          -61 -3 rmoveto
          -30 -21 -18 -29 -29 -18 16 26 -2 vhcurveto
          -1 3 0 4 3 vvcurveto
          hintmask 0001000010000000
          29 20 19 30 31 19 -19 -33 vhcurveto
          endchar
        </CharString>
        <CharString name="circumflex">
          500 90 callsubr
          427 527 -68 callgsubr
          endchar
        </CharString>
        <CharString name="circumflex.cap">
          115 callgsubr
          165 -20 hstem
          425 510 -52 callsubr
        </CharString>
        <CharString name="circumflex.dup">
          500 90 callsubr
          427 527 -68 callgsubr
          endchar
        </CharString>
        <CharString name="colon">
          278 0 156 132 156 hstem
          61 156 vstem
          217 366 -39 callgsubr
          -288 vmoveto
          45 callgsubr
        </CharString>
        <CharString name="colonmonetary">
          63 callgsubr
          134 callgsubr
          117 48 149 48 0 47 hintmask 11001010
          665 227 rmoveto
          20 -7 1 -17 -13 -9 0 -17 -1 vhcurveto
          -132 -104 -63 -86 vhcurveto
          -7 614 5 hlineto
          -45 callgsubr
          hintmask 11101100
          -58 -53 -43 37 -47 22 -59 3 rlinecurve
          37 vlineto
          13 -11 11 -13 -13 -11 -11 -13 vhcurveto
          -38 vlineto
          -180 -14 -137 -126 -213 vvcurveto
          -210 134 -128 183 -15 vhcurveto
          -38 vlineto
          -13 11 -11 13 13 11 11 13 vhcurveto
          37 vlineto
          hintmask 00011010
          155 7 89 127 104 vvcurveto
          -292 -185 rmoveto
          -50 12 -46 29 -27 45 rrcurveto
          -35 59 -6 65 91 vvcurveto
          64 0 96 47 65 vhcurveto
          33 46 45 21 39 9 rrcurveto
          endchar
        </CharString>
        <CharString name="comma">
          278 -173 -21 194 156 hstem
          61 167 vstem
          228 31 rmoveto
          68 -32 57 -58 -46 -31 -35 -43 -40 27 -38 51 25 19 10 8 8 vhcurveto
          -5 -95 -54 -58 -25 -22 rrcurveto
          -10 -9 -2 -2 -6 vvcurveto
          -9 11 -11 8 15 99 89 136 vhcurveto
          endchar
        </CharString>
        <CharString name="copyleft">
          686 0 60 176 60 159 60 111 60 hstem
          143 callgsubr
          vstem
          -71 callsubr
          -111 hmoveto
          113 -77 64 -98 -33 -26 -11 -20 -22 vhcurveto
          -29 26 rlineto
          4 -4 -1 1 -5 hhcurveto
          -9 0 -5 -9 hvcurveto
          -108 vlineto
          -13 1 -1 13 8 4 0 8 1 vhcurveto
          73 10 42 31 40 hhcurveto
          22 38 -6 -35 25 hvcurveto
          24 -32 0 -48 -32 vvcurveto
          -45 -3 -33 -18 -29 vhcurveto
          -31 -18 -35 -15 -36 hhcurveto
          -43 -51 31 66 hvcurveto
          9 -1 -4 0 -7 hhcurveto
          -8 -4 -1 -10 -53 47 -66 81 101 75 66 111 hvcurveto
          endchar
        </CharString>
        <CharString name="copyright">
          686 0 60 176 60 159 60 111 60 hstem
          143 callgsubr
          vstem
          -71 callsubr
          -151 -58 rmoveto
          10 -3 1 -9 -6 -5 0 -9 -66 -52 -31 -43 -36 -35 15 31 -18 vhcurveto
          -18 29 -3 33 45 vvcurveto
          32 0 48 24 32 vhcurveto
          35 25 38 6 22 hhcurveto
          40 42 -31 -73 11 hvcurveto
          -8 1 3 0 9 hhcurveto
          12 1 1 13 hvcurveto
          108 vlineto
          9 0 5 -9 -4 -1 -1 -4 -4 vhcurveto
          -29 -26 rlineto
          20 -23 -26 11 -33 hhcurveto
          -98 -77 -64 -113 -111 75 -66 101 81 47 66 53 hvcurveto
          endchar
        </CharString>
        <CharString name="copyright.alt">
          702 -129 60 92 60 430 60 hstem
          0 60 320 92 170 60 vstem
          702 222 rmoveto
          215 -136 136 -215 -215 -136 -136 -215 -215 136 -136 215 215 136 136 215 vhcurveto
          -60 hmoveto
          -178 -113 -113 -178 -179 -112 113 178 179 112 112 179 178 113 -112 -179 vhcurveto
          -108 -75 rmoveto
          13 -5 1 -11 -8 -6 0 -11 -86 -68 -41 -56 -46 -45 20 40 -24 vhcurveto
          -23 38 -3 42 59 vvcurveto
          42 0 62 30 42 vhcurveto
          45 32 50 8 28 hhcurveto
          53 54 -40 -95 14 hvcurveto
          -10 1 4 0 12 hhcurveto
          16 1 1 17 hvcurveto
          139 vlineto
          13 0 5 -12 -5 -2 -1 -4 -5 vhcurveto
          -38 -35 rlineto
          26 -29 -33 14 -43 hhcurveto
          -127 -100 -82 -147 -144 97 -85 131 105 61 85 69 hvcurveto
          endchar
        </CharString>
        <CharString name="currency">
          778 34 60 312 60 hstem
          173 60 311 60 vstem
          624 485 rmoveto
          -22 22 -20 -20 -10 -10 -54 -54 rcurveline
          27 -36 -45 16 -48 hhcurveto
          -49 -44 -16 -27 -36 hvcurveto
          -55 54 -9 9 -21 21 -21 -21 rlinecurve
          -22 -22 20 -20 10 -10 54 -55 rcurveline
          -27 -36 -16 -44 -49 vvcurveto
          -48 16 -45 27 -36 vhcurveto
          -54 -54 -9 -9 -21 -21 21 -21 rlinecurve
          22 -22 20 20 10 10 54 54 rcurveline
          -27 36 45 -17 49 hhcurveto
          48 45 16 28 36 hvcurveto
          54 -54 9 -9 21 -21 21 21 rlinecurve
          22 22 -20 20 -10 10 -54 54 rcurveline
          27 36 16 45 48 vvcurveto
          49 -16 45 -27 36 vhcurveto
          54 54 9 9 21 21 -21 21 rlinecurve
          -80 -235 rmoveto
          -86 -69 -70 -86 -86 -70 70 86 86 70 70 86 86 69 -70 -86 vhcurveto
          endchar
        </CharString>
        <CharString name="cwm">
          0 endchar
        </CharString>
        <CharString name="cwmascender">
          0 endchar
        </CharString>
        <CharString name="cwmcapital">
          0 endchar
        </CharString>
        <CharString name="d">
          138 callsubr
          189 47 callgsubr
          hintmask 0100010010000000
          46 callsubr
          hintmask 1001101100000000
          -19 callgsubr
          hintmask 0100000000000000
          100 vmoveto
          hintmask 1011001010000000
          -30 callsubr
          endchar
        </CharString>
        <CharString name="dagger">
          511 388 111 203 -20 hstemhm
          200 111 -32 111 hintmask 10010000
          447 443 rmoveto
          151 callgsubr
          -33 -16 -9 -2 -13 -3 3 28 7 23 9 27 rrcurveto
          hintmask 11100000
          11 36 11 37 33 vvcurveto
          49 -37 10 -18 -22 -34 -13 -46 -33 11 -36 10 -32 vhcurveto
          10 -33 7 -23 3 -27 -10 2 -11 3 -19 9 rrcurveto
          12 -24 -29 14 -27 109 callgsubr
          33 16 9 2 13 3 -3 -27 -10 -28 -7 -20 rrcurveto
          -21 -64 0 -15 -43 vvcurveto
          -129 10 -130 16 -128 vhcurveto
          2 -16 4 -28 3 -4 rrcurveto
          -7 3 8 0 9 hhcurveto
          hintmask 00010000
          11 10 0 11 3 hvcurveto
          hintmask 00100000
          2 12 30 208 211 vvcurveto
          46 0 12 -23 70 vhcurveto
          -7 21 -8 25 -3 23 10 -2 11 -3 19 -9 rrcurveto
          hintmask 10010000
          -12 24 29 -14 27 hhcurveto
          41 16 30 25 hvcurveto
          endchar
        </CharString>
        <CharString name="daggerdbl">
          511 -32 111 323 111 -92 110 171 -20 hstemhm
          200 111 hintmask 00100000
          447 476 rmoveto
          28 -19 27 -37 vhcurveto
          hintmask 01011000
          -18 -23 -6 -12 -24 hvcurveto
          -32 -15 -6 -2 -17 -4 3 18 1 8 13 33 rrcurveto
          13 34 10 31 28 vvcurveto
          44 -34 14 -21 -26 -30 -16 -42 -31 14 -36 10 -27 vhcurveto
          12 -33 1 -6 3 -19 -15 4 -6 1 -19 9 rrcurveto
          hintmask 00101000
          12 -24 -28 13 -28 hhcurveto
          -37 -19 -27 -28 -13 6 -42 51 13 16 0 24 49 hvcurveto
          20 10 5 1 16 4 -3 -18 -1 -8 -13 -33 rrcurveto
          -13 -34 -10 -31 -28 vvcurveto
          -44 34 -14 21 26 30 16 42 vhcurveto
          hintmask 01001000
          31 -14 36 -10 27 vhcurveto
          -12 33 -1 6 -3 19 15 -4 6 -1 19 -9 rrcurveto
          hintmask 10101000
          -21 42 17 -4 20 hhcurveto
          51 6 42 13 hvcurveto
          -453 vmoveto
          151 callgsubr
          -28 -13 -12 -4 -14 -4 3 20 1 6 16 44 rrcurveto
          14 36 6 25 21 vvcurveto
          44 -34 14 -21 -26 -30 -16 -42 -28 11 -31 11 -30 vhcurveto
          14 -37 1 -7 3 -19 -13 3 -11 4 -15 8 rrcurveto
          12 -26 -28 13 -26 109 callgsubr
          22 10 16 7 16 4 -3 -20 -1 -6 -16 -44 rrcurveto
          -14 -36 -6 -25 -21 vvcurveto
          -44 34 -14 21 26 30 16 42 28 -11 31 -11 30 vhcurveto
          -14 37 -1 7 -3 19 18 -5 15 -7 23 -10 rrcurveto
          -9 18 24 -9 21 hhcurveto
          41 16 30 25 hvcurveto
          endchar
        </CharString>
        <CharString name="dblbracketleft">
          403 -249 61 878 61 hstem
          107 61 64 61 vstem
          380 -249 rmoveto
          61 -87 878 87 61 -273 -1000 vlineto
          125 61 rmoveto
          -64 878 64 hlineto
          endchar
        </CharString>
        <CharString name="dblbracketright">
          403 -249 61 878 61 hstem
          109 61 64 61 vstem
          295 -249 rmoveto
          1000 -272 -61 86 -878 -86 -61 vlineto
          211 61 rmoveto
          -64 878 64 hlineto
          endchar
        </CharString>
        <CharString name="dblgrave.ts1">
          500 539 -21 194 -20 hstem
          214 540 rmoveto
          31 callgsubr
          166 hmoveto
          31 callgsubr
          endchar
        </CharString>
        <CharString name="dblverticalbar">
          499 750 -20 hstem
          129 61 119 61 vstem
          190 -206 rmoveto
          26 callgsubr
          180 hmoveto
          26 callgsubr
          endchar
        </CharString>
        <CharString name="dcaron">
          138 callsubr
          3 -21 145 117 -55 47 callgsubr
          hintmask 0100000100100000
          46 callsubr
          hintmask 1001001011000000
          -19 callgsubr
          hintmask 0100000000000000
          100 vmoveto
          hintmask 1011000110100000
          -30 callsubr
          277 239 rmoveto
          51 -24 43 -44 -34 -24 -26 -32 vhcurveto
          hintmask 0000110000000000
          -30 21 -29 38 19 14 8 6 6 vhcurveto
          -4 -72 -40 -43 -19 -17 rrcurveto
          -8 -6 -1 -2 -4 vvcurveto
          -7 8 -8 6 11 75 66 102 vhcurveto
          endchar
        </CharString>
        <CharString name="dcroat">
          138 callsubr
          71 48 70 47 callgsubr
          hintmask 0100101001000000
          539 71 callgsubr
          435 69 48 -69 125 vlineto
          hintmask 1001110110000000
          -177 -90 callgsubr
          -31 -140 -48 140 -109 4 callgsubr
          hintmask 0100000000000000
          100 vmoveto
          hintmask 1011000101000000
          -30 callsubr
          endchar
        </CharString>
        <CharString name="ddotbelow">
          147 callgsubr
          0 47 320 36 189 47 -47 55 hstemhm
          33 128 38 157 -114 114 0 114 hintmask 0010001000100000
          46 callsubr
          hintmask 0100110101000000
          -19 callgsubr
          hintmask 0010000000000000
          100 vmoveto
          hintmask 0101100100100000
          -30 callsubr
          hintmask 1000000010000000
          -483 vmoveto
          -100 callsubr
        </CharString>
        <CharString name="degree">
          375 408 60 158 60 hstem
          49 60 157 60 vstem
          326 547 rmoveto
          77 -62 62 -76 -77 -62 -62 -77 -76 62 -63 77 76 62 63 76 vhcurveto
          -60 hmoveto
          -43 -35 -36 -43 -44 -35 36 43 44 35 35 44 43 35 -35 -44 vhcurveto
          endchar
        </CharString>
        <CharString name="diameter">
          778 -71 60 524 60 hstem
          67 60 524 60 vstem
          721 553 rmoveto
          17 -13 13 -17 -8 -8 -3 -6 -5 vhcurveto
          -76 -75 rlineto
          46 -55 -72 28 -78 hhcurveto
          -178 -144 -144 -178 -78 28 -72 46 -55 hvcurveto
          -76 -77 rlineto
          -6 -5 -3 -8 -8 vvcurveto
          -17 13 -13 17 8 8 3 6 5 vhcurveto
          77 76 rlineto
          -46 55 72 -28 78 hhcurveto
          178 144 144 178 78 -28 72 -46 55 hvcurveto
          75 76 rlineto
          6 5 3 8 8 vvcurveto
          -70 -302 rmoveto
          -145 -117 -117 -145 -62 -56 21 36 -45 vhcurveto
          368 368 rlineto
          36 -45 21 -56 -62 vvcurveto
          -99 205 rmoveto
          -368 -368 rlineto
          -36 45 -21 56 62 vvcurveto
          145 117 117 145 62 56 -21 -36 45 vhcurveto
          endchar
        </CharString>
        <CharString name="died">
          500 -3 -21 363 73 -66 57 205 -20 hstemhm
          193 112 -111 112 -94 75 cntrmask 00001110
          hintmask 01001110
          463 376 rmoveto
          8 vlineto
          14 -4 14 -16 -13 -13 -2 -1 -13 vhcurveto
          hintmask 00111110
          -4 -39 -40 -2 -39 hhcurveto
          1 8 1 8 8 vvcurveto
          25 vlineto
          3 42 6 42 8 42 rrcurveto
          4 1 3 4 vvcurveto
          15 -11 4 -12 vhcurveto
          -65 hlineto
          -11 -14 -2 -17 -16 6 -20 3 -16 hvcurveto
          4 -28 3 -29 2 -29 rrcurveto
          -24 vlineto
          -8 0 -8 2 -8 vhcurveto
          -49 -50 3 5 -49 hvcurveto
          hintmask 01001110
          -3 -3 1 -3 hhcurveto
          -16 -4 -14 -14 hvcurveto
          -15 vlineto
          -16 2 -16 19 3 4 0 1 3 vhcurveto
          33 3 rlineto
          hintmask 10101110
          3 37 38 2 37 hhcurveto
          -113 -8 -111 -10 -112 vhcurveto
          -5 -1 -4 -5 vvcurveto
          -13 9 -7 13 vhcurveto
          75 hlineto
          8 1 6 6 2 8 rrcurveto
          5 vlineto
          35 -6 37 -3 35 vhcurveto
          -6 81 -4 81 81 vvcurveto
          37 38 -2 -3 37 hvcurveto
          33 -3 rlineto
          -1 3 4 0 3 hhcurveto
          20 1 22 17 hvcurveto
          endchar
        </CharString>
        <CharString name="dieresis">
          500 539 140 hstem
          51 55 callgsubr
          vstem
          -40 callsubr
          endchar
        </CharString>
        <CharString name="dieresis.cap">
          500 486 140 hstem
          27 39 callgsubr
          vstem
          0 callgsubr
          endchar
        </CharString>
        <CharString name="dieresis.dup">
          500 539 140 hstem
          51 55 callgsubr
          vstem
          -40 callsubr
          endchar
        </CharString>
        <CharString name="dieresis.ts1">
          500 551 145 hstem
          80 145 49 145 vstem
          225 624 rmoveto
          67 callgsubr
          194 hmoveto
          67 callgsubr
          endchar
        </CharString>
        <CharString name="discount">
          500 20 180 -178 -21 552 180 17 -20 21 -20 hstemhm
          103 181 -69 181 hintmask 00001000
          444 721 rmoveto
          16 -14 14 -16 vhcurveto
          hintmask 01010000
          -6 -1 -19 -3 -7 -20 -6 -15 rlinecurve
          -301 -632 rlineto
          -9 -16 -11 -18 -14 vvcurveto
          -17 13 -14 17 vhcurveto
          2 hlineto
          22 1 7 22 8 17 302 635 rcurveline
          7 13 11 18 14 vvcurveto
          -160 -79 rmoveto
          hintmask 10100100
          -49 -41 -40 -47 vhcurveto
          -6 hlineto
          105 callgsubr
          112 -533 rmoveto
          -49 -41 -40 -47 vhcurveto
          -6 hlineto
          hintmask 10000010
          105 callgsubr
          endchar
        </CharString>
        <CharString name="divide">
          778 -80 156 144 61 145 156 hstem
          311 156 vstem
          721 250 20 callgsubr
          -254 254 -39 callgsubr
          -506 vmoveto
          45 callgsubr
        </CharString>
        <CharString name="divorced">
          500 -92 -21 141 76 -75 75 294 75 -75 76 141 -20 hstemhm
          212 75 -75 81 -75 75 cntrmask 0000001110000000
          hintmask 0000101110000000
          182 252 rmoveto
          102 -52 120 -136 vhcurveto
          hintmask 0101001110000000
          -5 -6 0 -1 -5 hvcurveto
          -103 -12 -79 -73 -137 vvcurveto
          -54 13 -56 34 -43 vhcurveto
          -45 35 59 -25 56 hhcurveto
          124 65 108 116 hvcurveto
          521 -2 rmoveto
          108 -58 115 -142 vhcurveto
          -13 hlineto
          -118 -14 -55 -97 -112 vvcurveto
          hintmask 1011011110000000
          -104 52 -117 138 vhcurveto
          13 hlineto
          103 9 80 77 135 vvcurveto
          -397 -340 rmoveto
          57 -11 57 -2 57 vhcurveto
          -6 231 rlineto
          84 6 82 9 84 vhcurveto
          3 24 rlineto
          3 1 4 3 vvcurveto
          18 -15 1 -11 vhcurveto
          -62 hlineto
          -4 -4 0 -1 -4 hvcurveto
          -11 -3 -3 -7 -10 vvcurveto
          -9 3 -11 1 -7 vhcurveto
          11 -90 5 -90 -91 vvcurveto
          -118 -6 -119 -10 -118 vhcurveto
          -3 -34 rlineto
          -19 14 -1 12 vhcurveto
          61 hlineto
          22 4 9 14 hvcurveto
          322 345 rmoveto
          -40 -3 -45 -28 -31 vhcurveto
          -26 -23 -35 -9 -34 hhcurveto
          -71 -51 41 72 -8 hvcurveto
          -2 10 0 9 -1 10 rrcurveto
          72 24 80 110 91 31 -69 -74 vhcurveto
          -502 -10 rmoveto
          -68 -28 -73 -105 -97 -25 74 77 74 31 69 91 84 49 -53 -90 vhcurveto
          endchar
        </CharString>
        <CharString name="dlinebelow">
          556 -148 52 90 36 -30 47 0 47 320 36 189 47 callgsubr
          hintmask 0010001001000000
          46 callsubr
          hintmask 0100110110000000
          -19 callgsubr
          hintmask 0010000000000000
          100 vmoveto
          hintmask 0101100101000000
          -30 callsubr
          hintmask 1000000000000000
          103 -509 -28 callgsubr
        </CharString>
        <CharString name="dollar">
          500 -35 -21 54 45 84 125 204 125 70 45 54 -20 hstem
          56 80 90 47 90 80 cntrmask 0000001110000000
          443 210 rmoveto
          58 -23 129 -147 31 vhcurveto
          224 vlineto
          45 -5 45 -22 20 -44 rrcurveto
          -50 -15 -37 -25 -45 36 -18 26 18 45 10 56 83 -50 83 -120 11 hvcurveto
          51 -47 -51 vlineto
          -114 -12 -56 -87 -102 vvcurveto
          -69 36 -109 134 -26 vhcurveto
          -252 vlineto
          -32 4 -58 17 -22 64 rrcurveto
          57 10 42 20 47 -39 16 -23 -8 -55 -3 -64 -77 40 -100 130 -13 hvcurveto
          -51 47 51 vlineto
          124 17 46 100 98 vvcurveto
          -217 230 rmoveto
          -66 16 -24 51 39 vvcurveto
          28 11 64 79 13 vhcurveto
          137 -490 rmoveto
          -23 -4 -77 -86 -18 vhcurveto
          239 vlineto
          63 -17 27 -54 -50 vvcurveto
          endchar
        </CharString>
        <CharString name="dollar.oldstyle">
          610 -34 -21 50 48 -47 47 -45 47 -47 48 -43 125 0 125 -67 125 -98 48 196 125 69 47 -45 47 51 -20 hstemhm
          55 80 -80 125 36 47 84 47 36 125 -80 80 hintmask 000000000110110111000000
          216 456 rmoveto
          -44 16 -37 26 51 vvcurveto
          32 22 39 59 20 vhcurveto
          339 -427 rmoveto
          4 vlineto
          -1 100 -69 61 -91 33 rrcurveto
          232 vlineto
          40 -10 40 -17 18 -34 rrcurveto
          -33 -29 -25 -37 -36 27 -27 35 37 26 27 39 97 -68 53 -93 19 hvcurveto
          59 -47 -53 vlineto
          hintmask 000000000001000000000000
          1 -13 -14 1 -14 hhcurveto
          hintmask 000001010010101100000000
          -15 -14 -1 -1 -14 hvcurveto
          53 -47 -62 vlineto
          -99 -24 -62 -68 -99 vvcurveto
          -4 vlineto
          1 -72 42 -69 118 -42 rrcurveto
          -258 vlineto
          -60 15 -25 32 -16 28 rrcurveto
          35 30 23 39 hvcurveto
          hintmask 000000100000000000000000
          38 -29 25 -33 vhcurveto
          hintmask 100001010000001100000000
          -36 -27 -27 -40 -75 42 -83 119 -25 hvcurveto
          -58 47 vlineto
          hintmask 001000000000000100000000
          51 vlineto
          hintmask 010000000000000000000000
          -1 10 11 0 11 hhcurveto
          hintmask 100100001010000111000000
          19 17 1 2 16 hvcurveto
          -53 47 62 vlineto
          120 33 41 94 79 vvcurveto
          -208 212 rmoveto
          -11 3 -12 3 -11 2 -50 10 rcurveline
          208 vlineto
          hintmask 000000000001000000000000
          1 13 13 1 15 hhcurveto
          hintmask 001000000010000010000000
          10 16 -1 -1 17 hvcurveto
          -605 vmoveto
          -2 -13 -14 -1 -16 hhcurveto
          hintmask 000100000000000110000000
          -15 -14 1 1 -12 hvcurveto
          253 vlineto
          13 -4 13 -2 14 -3 16 -3 15 -3 13 -4 rrcurveto
          hintmask 000010001000000010100000
          128 -117 rmoveto
          -35 -18 -47 -63 -23 vhcurveto
          204 vlineto
          58 -27 23 -37 -35 vvcurveto
          endchar
        </CharString>
        <CharString name="dong">
          556 -48 48 68 48 262 48 hstem
          512 35 rmoveto
          44 vlineto
          -59 -7 0 37 hvcurveto
          1 414 rlineto
          65 45 -66 119 hlineto
          -168 -8 rlineto
          -44 vlineto
          59 7 0 -37 hvcurveto
          -30 -133 -45 133 -104 vlineto
          33 -43 -39 3 -23 hhcurveto
          -113 -95 -76 -140 -145 93 -72 106 39 37 12 27 32 hvcurveto
          -39 vlineto
          174 -53 rmoveto
          13 -11 11 -13 vhcurveto
          -433 50 callgsubr
          433 hlineto
          13 11 11 13 hvcurveto
          -174 148 rmoveto
          -34 -22 -35 -27 -43 hhcurveto
          -35 -27 24 36 -13 hvcurveto
          -10 32 0 56 34 vvcurveto
          38 0 50 11 33 vhcurveto
          38 15 31 24 39 hhcurveto
          29 35 -14 -36 25 hvcurveto
          endchar
        </CharString>
        <CharString name="dotaccent">
          278 531 79 callgsubr
          609 rmoveto
          -100 callsubr
        </CharString>
        <CharString name="dotaccent.alt">
          278 487 79 callgsubr
          565 rmoveto
          -100 callsubr
        </CharString>
        <CharString name="dotaccent.cap">
          278 486 79 callgsubr
          564 rmoveto
          -100 callsubr
        </CharString>
        <CharString name="dotlessi">
          -7 callgsubr
          hstemhm
          95 108 hintmask 10110000
          2 callsubr
          hintmask 11010000
          -67 callgsubr
          endchar
        </CharString>
        <CharString name="dotlessj">
          34 callsubr
          hstemhm
          -62 125 71 108 hintmask 10111000
          -59 callgsubr
          hintmask 01010000
          -38 -25 -27 -36 hvcurveto
          hintmask 10001000
          32 callgsubr
          endchar
        </CharString>
        <CharString name="e">
          -23 callsubr
          hstemhm
          28 128 92 95 0 95 hintmask 11110100
          -102 callsubr
          hintmask 01101000
          -52 callgsubr
          endchar
        </CharString>
        <CharString name="eacute">
          -23 callsubr
          79 -21 195 -89 callgsubr
          19 393 -91 callgsubr
        </CharString>
        <CharString name="ebreve">
          -23 callsubr
          62 62 125 -89 callgsubr
          47 451 -101 callsubr
          endchar
        </CharString>
        <CharString name="ecaron">
          -23 callsubr
          73 -21 207 -89 callgsubr
          67 439 -53 callsubr
        </CharString>
        <CharString name="ecircumflex">
          -23 callsubr
          73 -21 207 -89 callgsubr
          67 276 -68 callgsubr
          endchar
        </CharString>
        <CharString name="ecircumflexacute">
          -23 callsubr
          73 -21 376 -89 callgsubr
          65 278 -95 callsubr
          -56 303 -103 callgsubr
        </CharString>
        <CharString name="ecircumflexdotbelow">
          467 73 callgsubr
          40 184 73 callsubr
          73 -21 207 -20 89 callsubr
          hintmask 0111001001000000
          -102 callsubr
          hintmask 0011110010000000
          -52 callgsubr
          67 276 -68 callgsubr
          hintmask 1000000100000000
          -79 -627 rmoveto
          -100 callsubr
        </CharString>
        <CharString name="ecircumflexgrave">
          -23 callsubr
          73 -21 165 -89 callgsubr
          65 278 -77 callsubr
        </CharString>
        <CharString name="ecircumflexhookabove">
          -23 callsubr
          73 -21 373 -93 callgsubr
          hintmask 00011001
          65 278 -95 callsubr
          35 310 -107 callgsubr
        </CharString>
        <CharString name="ecircumflextilde">
          -23 callsubr
          73 -21 220 145 callsubr
          28 128 92 95 0 95 hintmask 1110001010000000
          -102 callsubr
          hintmask 0110000100000000
          -52 callgsubr
          hintmask 0001010000000000
          65 278 rmoveto
          -175 141 -175 -141 14 -24 160 58 160 -58 rlineto
          8 304 -56 callsubr
        </CharString>
        <CharString name="edblgrave">
          -23 callsubr
          79 -21 195 -93 callgsubr
          hintmask 00011101
          22 281 -94 callgsubr
        </CharString>
        <CharString name="edieresis">
          -23 callsubr
          86 140 hstemhm
          28 128 -122 141 73 95 -51 141 -90 95 hintmask 1110100010000000
          -102 callsubr
          hintmask 0110001000000000
          -52 callgsubr
          hintmask 0001010100000000
          -168 358 -73 callgsubr
        </CharString>
        <CharString name="edotaccent">
          -23 callsubr
          78 156 89 callsubr
          hintmask 11101001
          -102 callsubr
          hintmask 01100010
          -52 callgsubr
          hintmask 00010100
          -32 358 rmoveto
          -100 callsubr
        </CharString>
        <CharString name="edotbelow">
          467 73 callgsubr
          40 184 73 callsubr
          89 callsubr
          hintmask 01111001
          -102 callsubr
          hintmask 00110010
          -52 callgsubr
          hintmask 10000100
          -32 -373 rmoveto
          -100 callsubr
        </CharString>
        <CharString name="egrave">
          -23 callsubr
          79 -21 195 -89 callgsubr
          -45 293 -66 callsubr
        </CharString>
        <CharString name="ehookabove">
          -23 callsubr
          80 -21 193 -89 callgsubr
          -13 391 -107 callgsubr
        </CharString>
        <CharString name="eight">
          500 80 callsubr
          42 86 216 86 -59 86 hintmask 10111000
          457 -18 callgsubr
        </CharString>
        <CharString name="eight.oldstyle">
          563 80 callsubr
          74 86 -59 75 200 86 -75 75 -59 86 hintmask 00101100
          489 -20 callgsubr
        </CharString>
        <CharString name="eight.prop">
          563 80 callsubr
          74 86 216 86 -59 86 hintmask 10111000
          489 -18 callgsubr
        </CharString>
        <CharString name="eight.taboldstyle">
          500 80 callsubr
          42 86 -59 75 200 86 -75 75 -59 86 hintmask 00101100
          457 -20 callgsubr
        </CharString>
        <CharString name="ellipsis">
          770 0 156 hstem
          61 156 90 156 90 156 cntrmask 01110000
          217 78 -39 callgsubr
          246 hmoveto
          -57 callsubr
          246 hmoveto
          45 callgsubr
        </CharString>
        <CharString name="emacron">
          -23 callsubr
          130 52 hstemhm
          28 128 92 95 0 95 hintmask 11101010
          -102 callsubr
          hintmask 01100100
          -52 callgsubr
          hintmask 00010000
          71 332 -28 callgsubr
        </CharString>
        <CharString name="emdash">
          1000 256 36 hstem
          999 256 rmoveto
          36 -999 -36 vlineto
          endchar
        </CharString>
        <CharString name="emdash.alt">
          667 257 36 hstem
          666 257 rmoveto
          36 -666 -36 vlineto
          endchar
        </CharString>
        <CharString name="endash">
          500 256 36 hstem
          499 256 rmoveto
          36 -499 -36 vlineto
          endchar
        </CharString>
</ttFont>
